<svg width="100" height="100" fill="none" xmlns="http://www.w3.org/2000/svg"><g clip-path="url(#clip0_523_2723)"><path d="M35.124 15.6571C35.535 19.8661 34.202 23.8541 31.702 26.9381C29.065 30.1901 25.288 34.0481 20.73 34.4931C16.637 34.8931 12.599 32.1591 9.52002 29.9851C5.91902 27.4411 3.41702 23.4601 2.96102 18.7981C2.11702 10.1531 8.63202 2.44006 17.513 1.57206C26.394 0.704058 34.279 7.01006 35.124 15.6561V15.6571Z" fill="#E999A4"/><path d="M19.8929 35.0011C16.1439 35.0011 12.5869 32.7251 9.24992 30.3671C5.40792 27.6541 2.94592 23.4531 2.49592 18.8441C1.62792 9.95609 8.34392 1.99909 17.4679 1.10709C26.5929 0.217086 34.7199 6.72309 35.5899 15.6111C35.9989 19.7971 34.7479 23.9241 32.0659 27.2321C29.5629 30.3201 25.6689 34.4811 20.7759 34.9591C20.4809 34.9881 20.1869 35.0011 19.8939 35.0011H19.8929ZM19.1379 1.96009C18.6159 1.96009 18.0889 1.98509 17.5579 2.03709C8.94792 2.87909 2.60792 10.3771 3.42692 18.7541C3.84992 23.0931 6.16992 27.0471 9.78992 29.6041C13.2439 32.0441 16.9309 34.3981 20.6849 34.0281C25.2289 33.5841 28.9419 29.6011 31.3389 26.6431C33.8649 23.5271 35.0449 19.6421 34.6589 15.7021C33.8909 7.84309 27.0889 1.96009 19.1379 1.96009V1.96009Z" fill="#595757"/><path d="M27.677 67.9721C27.645 67.9721 27.614 67.9681 27.581 67.9621C27.328 67.9091 27.166 67.6611 27.219 67.4091C27.686 65.1621 27.453 62.7621 26.563 60.6471C26.202 59.7891 25.721 58.9401 25.256 58.1201C24.336 56.4971 23.385 54.8181 23.237 52.8951C23.167 51.9921 23.284 51.1011 23.396 50.2391C23.489 49.5261 23.578 48.8521 23.569 48.1721C23.528 44.9791 22.392 41.4921 21.39 38.4171C20.951 37.0691 20.536 35.7961 20.28 34.7241C20.22 34.4731 20.375 34.2211 20.626 34.1611C20.88 34.1011 21.129 34.2561 21.189 34.5071C21.437 35.5431 21.846 36.7991 22.279 38.1281C23.251 41.1121 24.461 44.8261 24.504 48.1621C24.514 48.9091 24.417 49.6471 24.324 50.3621C24.213 51.2141 24.107 52.0191 24.169 52.8241C24.301 54.5401 25.16 56.0551 26.069 57.6601C26.548 58.5041 27.042 59.3771 27.424 60.2851C28.387 62.5721 28.639 65.1701 28.133 67.5991C28.087 67.8201 27.893 67.9721 27.676 67.9721H27.677Z" fill="#595757"/><path d="M5.95499 20.222L5.39199 14.457C5.34399 13.966 5.41899 13.588 5.61499 13.321C5.81099 13.054 6.08999 12.903 6.44999 12.868C6.82599 12.831 7.13699 12.925 7.38099 13.149C7.62499 13.373 7.77199 13.73 7.81999 14.221L8.39599 20.117C8.46199 20.788 8.59099 21.34 8.78499 21.776C8.97899 22.212 9.27899 22.534 9.68499 22.745C10.091 22.956 10.637 23.028 11.324 22.96C12.273 22.867 12.919 22.55 13.262 22.007C13.605 21.464 13.727 20.681 13.627 19.656L13.046 13.711C12.998 13.215 13.07 12.835 13.265 12.571C13.46 12.307 13.739 12.157 14.104 12.122C14.469 12.087 14.777 12.179 15.027 12.399C15.277 12.619 15.426 12.978 15.475 13.474L16.038 19.239C16.13 20.177 16.115 20.968 15.993 21.613C15.871 22.258 15.581 22.842 15.12 23.366C14.723 23.812 14.245 24.156 13.685 24.398C13.125 24.64 12.458 24.799 11.684 24.874C10.763 24.964 9.95999 24.942 9.27499 24.808C8.58999 24.674 8.01799 24.419 7.55699 24.043C7.09599 23.667 6.73599 23.163 6.47599 22.53C6.21599 21.897 6.04199 21.129 5.95399 20.224L5.95499 20.222Z" fill="white"/><path d="M23.344 18.8122L21.12 19.0292L21.452 22.4232C21.499 22.9082 21.421 23.2872 21.216 23.5612C21.011 23.8352 20.735 23.9882 20.386 24.0222C20.021 24.0582 19.714 23.9622 19.466 23.7362C19.218 23.5102 19.071 23.1572 19.024 22.6772L18.121 13.4362C18.069 12.9022 18.154 12.5082 18.377 12.2552C18.6 12.0022 18.979 11.8492 19.513 11.7972L22.628 11.4932C23.549 11.4032 24.265 11.4052 24.775 11.4982C25.279 11.5862 25.725 11.7712 26.113 12.0532C26.501 12.3352 26.81 12.6952 27.04 13.1352C27.27 13.5752 27.413 14.0812 27.469 14.6532C27.588 15.8742 27.303 16.8362 26.612 17.5402C25.921 18.2442 24.832 18.6672 23.343 18.8132L23.344 18.8122ZM22.218 13.3742L20.583 13.5342L20.941 17.1982L22.576 17.0382C23.148 16.9822 23.621 16.8752 23.994 16.7182C24.367 16.5612 24.64 16.3362 24.816 16.0432C24.992 15.7502 25.057 15.3842 25.014 14.9422C24.962 14.4132 24.765 13.9982 24.422 13.6952C24.038 13.3752 23.304 13.2682 22.219 13.3742H22.218Z" fill="white"/><path d="M30.3911 17.5951L29.7471 13.7041C29.6231 12.9461 29.5451 12.4001 29.5131 12.0681C29.4691 11.6161 29.5531 11.2511 29.7651 10.9741C29.9771 10.6971 30.2771 10.5401 30.6641 10.5021C31.1331 10.4561 31.4621 10.5881 31.6521 10.8971C31.8421 11.2061 31.9671 11.6661 32.0261 12.2761C32.0611 12.6361 32.0781 13.0031 32.0761 13.3771L32.1181 17.4431C32.1271 17.9261 32.0811 18.3021 31.9811 18.5711C31.8811 18.8401 31.6861 18.9881 31.3971 19.0161C31.1031 19.0451 30.8861 18.9411 30.7471 18.7041C30.6081 18.4671 30.4901 18.0981 30.3911 17.5951V17.5951ZM31.8241 22.8871C31.4911 22.9191 31.1911 22.8401 30.9221 22.6491C30.6531 22.4581 30.4991 22.1691 30.4621 21.7821C30.4291 21.4441 30.5191 21.1451 30.7331 20.8851C30.9471 20.6251 31.2261 20.4781 31.5691 20.4441C31.9121 20.4101 32.2171 20.5001 32.4831 20.7141C32.7491 20.9281 32.8981 21.2031 32.9311 21.5411C32.9681 21.9231 32.8751 22.2341 32.6511 22.4761C32.4271 22.7181 32.1511 22.8551 31.8241 22.8871V22.8871Z" fill="white"/><path d="M42.3531 24.1491C42.7561 23.7241 43.6261 23.4421 44.1981 23.5651C44.6691 23.6661 45.2051 24.0081 45.4411 24.4281C46.1301 25.6541 46.1221 27.0821 45.4151 28.2981C44.6791 29.5651 42.2421 30.9821 41.0531 29.2741C39.8491 27.5441 41.1671 25.3991 42.3531 24.1491V24.1491Z" fill="#F7F6F0"/><path d="M42.5332 30.5291C41.7632 30.5291 41.1212 30.1891 40.6702 29.5411C39.0692 27.2421 41.2952 24.5861 42.0152 23.8271C42.5322 23.2831 43.5792 22.9541 44.2972 23.1081C44.9362 23.2451 45.5602 23.6841 45.8492 24.1991C46.6152 25.5621 46.6042 27.1821 45.8202 28.5331C45.2752 29.4711 43.9372 30.4741 42.6422 30.5271C42.6052 30.5281 42.5692 30.5291 42.5332 30.5291V30.5291ZM43.9062 24.0041C43.4982 24.0041 42.9442 24.2071 42.6942 24.4711C42.0972 25.1001 40.2412 27.2881 41.4392 29.0071C41.7282 29.4221 42.1052 29.6121 42.6062 29.5931C43.5372 29.5551 44.6022 28.7711 45.0132 28.0631C45.6382 26.9861 45.6472 25.7451 45.0352 24.6571C44.8802 24.3801 44.4702 24.1011 44.1022 24.0221C44.0432 24.0091 43.9772 24.0031 43.9072 24.0031L43.9062 24.0041Z" fill="#595757"/><path d="M41.8703 29.4441C41.8133 29.3681 41.7613 29.2851 41.7383 29.1931C41.6993 29.0371 41.7453 28.8731 41.7933 28.7201C41.9923 28.0851 42.2553 27.4341 42.7713 27.0141C43.2873 26.5941 44.1223 26.4991 44.5893 26.9721C44.9953 27.3831 44.9843 28.0741 44.7203 28.5891C44.1953 29.6141 42.8043 30.7001 41.8703 29.4451V29.4441Z" fill="#595757"/><path d="M43.5742 26.4791C43.3602 26.4131 43.1882 26.2251 43.1422 26.0061C43.0812 25.7151 43.2292 25.4221 43.4022 25.1801C43.6162 24.8801 43.9482 24.5881 44.3072 24.6671C44.6022 24.7321 44.7962 25.0451 44.7992 25.3471C44.8022 25.6491 44.6492 25.9331 44.4562 26.1661C44.3802 26.2581 43.7882 26.5461 43.5742 26.4801V26.4791Z" fill="#595757"/><path d="M42.4211 26.7351C42.0831 26.6401 41.7741 26.3841 41.6981 26.0411C41.6221 25.6981 41.8481 25.2941 42.1961 25.2491C42.4951 25.2101 42.7881 25.4461 42.8641 25.7371C42.9401 26.0281 42.8281 26.3481 42.6261 26.5711C42.6261 26.5711 42.4811 26.7521 42.4211 26.7351Z" fill="#595757"/><path d="M44.7992 26.641C44.6042 26.349 44.5362 25.953 44.7012 25.644C44.8662 25.335 45.3012 25.174 45.5952 25.366C45.8482 25.531 45.9162 25.9 45.7852 26.171C45.6542 26.442 45.3612 26.612 45.0622 26.65C45.0622 26.65 44.8342 26.693 44.7992 26.641Z" fill="#595757"/><path d="M41.1161 42.3782C41.8141 43.0822 42.9881 43.2552 43.8601 42.7842C44.7321 42.3132 45.2301 41.2362 45.0241 40.2662C44.7471 38.9622 43.1291 37.4732 41.6511 38.4102C40.0831 39.4032 39.9171 41.1702 41.1161 42.3782V42.3782Z" fill="#C4BBB0"/><path d="M42.7781 43.5191C42.0441 43.5191 41.3111 43.2381 40.7841 42.7071C40.1021 42.0191 39.7811 41.1581 39.8791 40.2821C39.9811 39.3771 40.5211 38.5721 41.4001 38.0141C42.0611 37.5961 42.8261 37.5361 43.5571 37.8421C44.4821 38.2311 45.2731 39.1881 45.4811 40.1681C45.7321 41.3481 45.1451 42.6211 44.0831 43.1951C43.6801 43.4131 43.2291 43.5191 42.7791 43.5191H42.7781ZM42.6271 38.5831C42.3771 38.5831 42.1341 38.6571 41.9001 38.8051C41.2651 39.2071 40.8771 39.7691 40.8071 40.3871C40.7411 40.9761 40.9681 41.5661 41.4471 42.0491C42.0011 42.6091 42.9431 42.7481 43.6371 42.3731C44.3301 41.9981 44.7301 41.1341 44.5661 40.3631C44.4221 39.6861 43.8321 38.9731 43.1931 38.7041C43.0011 38.6231 42.8111 38.5831 42.6261 38.5831H42.6271Z" fill="#595757"/><path d="M41.8682 30.0029C41.4082 30.2509 41.0112 30.6079 40.6982 31.0259C39.6512 32.4229 39.6202 34.3089 39.6322 36.0549C39.6382 36.9319 39.6442 37.8089 39.6512 38.6859C39.6552 39.2389 39.6882 39.8619 40.0992 40.2319C40.3602 40.4669 40.7232 40.5479 41.0722 40.5849C42.4852 40.7369 43.9532 40.2879 45.0402 39.3709C45.3202 39.1349 45.5862 38.8519 45.6772 38.4969C45.7552 38.1929 45.6972 37.8739 45.6462 37.5649C45.4272 36.2409 45.3402 34.8959 45.3872 33.5549C45.4152 32.7549 45.4762 31.8979 45.0602 31.2149C44.5972 30.4559 43.6782 30.1299 42.8252 29.8779L41.8682 30.0039V30.0029Z" fill="#F7F6F0"/><path d="M41.6061 41.08C41.4101 41.08 41.2151 41.07 41.0221 41.049C40.6751 41.012 40.1691 40.923 39.7861 40.578C39.2381 40.085 39.1871 39.344 39.1831 38.688L39.1641 36.057C39.1531 34.483 39.1381 32.327 40.3241 30.745C40.6871 30.261 41.1441 29.861 41.6461 29.591C41.6961 29.564 41.7501 29.547 41.8071 29.539L42.7651 29.414C42.8311 29.405 42.8961 29.411 42.9581 29.429C43.8801 29.701 44.9091 30.068 45.4591 30.971C45.9231 31.731 45.8891 32.629 45.8601 33.421L45.8551 33.57C45.8091 34.878 45.8941 36.195 46.1071 37.487C46.1681 37.849 46.2301 38.223 46.1291 38.612C45.9971 39.127 45.6151 39.495 45.3401 39.727C44.3141 40.593 42.9521 41.079 41.6051 41.079L41.6061 41.08ZM42.0171 30.455C41.6621 30.661 41.3361 30.954 41.0721 31.307C40.1501 32.536 40.0861 34.183 40.0991 36.052L40.1181 38.683C40.1211 39.16 40.1471 39.646 40.4121 39.885C40.5491 40.009 40.7751 40.084 41.1211 40.12C42.4051 40.258 43.7541 39.844 44.7391 39.014C45.0201 38.777 45.1751 38.576 45.2251 38.381C45.2761 38.183 45.2351 37.935 45.1911 37.673C44.9621 36.288 44.8731 34.908 44.9211 33.539L44.9271 33.387C44.9531 32.695 44.9791 31.979 44.6621 31.458C44.3001 30.865 43.5161 30.574 42.7881 30.354L42.0181 30.455H42.0171Z" fill="#595757"/><path d="M45.2363 42.137C44.4403 41.466 43.3533 40.856 42.4293 41.281C41.9613 41.496 41.6483 41.936 41.3703 42.368C41.0173 42.917 40.6823 43.503 40.6113 44.157C40.5143 45.046 40.9143 45.915 41.1853 46.778C41.6263 48.179 41.7403 49.654 42.0993 51.076C42.8113 53.895 44.4563 56.406 46.1923 58.765C46.7323 59.499 47.2923 60.234 48.0053 60.803C50.1963 62.551 53.5533 62.306 55.6783 60.595C56.0143 60.325 56.3323 60.012 56.5003 59.614C56.6633 59.227 56.6723 58.791 56.6543 58.367C56.5553 56.045 55.9133 54.087 54.1443 52.55C51.9293 50.626 50.3493 48.161 48.5963 45.843C47.5903 44.512 46.5163 43.218 45.2363 42.138V42.137Z" fill="#F7F6F0"/><path d="M51.6152 62.457C50.1912 62.457 48.7952 62.029 47.7142 61.167C46.9652 60.57 46.3892 59.82 45.8162 59.041C44.0862 56.689 42.3832 54.11 41.6462 51.188C41.4882 50.563 41.3762 49.926 41.2682 49.31C41.1222 48.477 40.9832 47.689 40.7402 46.917C40.6872 46.749 40.6292 46.58 40.5712 46.411C40.3192 45.678 40.0582 44.92 40.1472 44.105C40.2322 43.329 40.6202 42.67 40.9782 42.114C41.2782 41.647 41.6482 41.125 42.2342 40.855C43.1702 40.426 44.3132 40.745 45.5382 41.779C46.9352 42.958 48.0572 44.352 48.9702 45.56C49.3452 46.057 49.7132 46.56 50.0802 47.063C51.3922 48.859 52.7482 50.717 54.4512 52.196C56.1582 53.677 57.0072 55.633 57.1222 58.346C57.1422 58.819 57.1332 59.321 56.9332 59.794C56.7112 60.318 56.3042 60.69 55.9732 60.957C54.7362 61.953 53.1612 62.456 51.6172 62.456L51.6152 62.457ZM43.0902 41.607C42.9292 41.607 42.7732 41.637 42.6242 41.705C42.2672 41.869 42.0032 42.247 41.7632 42.62C41.4632 43.087 41.1382 43.633 41.0752 44.207C41.0092 44.814 41.2242 45.443 41.4532 46.108C41.5142 46.284 41.5752 46.461 41.6302 46.637C41.8922 47.467 42.0422 48.322 42.1872 49.148C42.2922 49.748 42.4022 50.368 42.5512 50.96C43.2492 53.726 44.8942 56.212 46.5682 58.487C47.1032 59.215 47.6382 59.911 48.2972 60.437C50.2212 61.971 53.3362 61.88 55.3852 60.23C55.7492 59.937 55.9602 59.691 56.0702 59.432C56.1982 59.127 56.2022 58.749 56.1872 58.386C56.0822 55.913 55.3572 54.222 53.8362 52.902C52.0542 51.354 50.6662 49.454 49.3242 47.615C48.9592 47.116 48.5952 46.616 48.2222 46.124C47.3412 44.957 46.2602 43.614 44.9342 42.495C44.5052 42.133 43.7662 41.608 43.0892 41.608L43.0902 41.607Z" fill="#595757"/><path d="M80.1281 88.222C80.4101 87.551 80.3491 86.724 79.8951 86.156C79.7651 85.993 79.6071 85.854 79.4471 85.719C79.1611 85.477 78.8561 85.238 78.4951 85.142C78.2691 85.082 78.0291 85.081 77.7981 85.118C76.1991 85.373 75.5031 87.338 76.2311 88.687C77.0661 90.235 79.5171 89.674 80.1281 88.222V88.222Z" fill="#C4BBB0"/><path d="M77.8641 90.0791C76.9631 90.0791 76.2221 89.6571 75.8191 88.9081C75.3681 88.0721 75.3591 87.0041 75.7971 86.1181C76.1911 85.3211 76.8931 84.7881 77.7241 84.6551C78.0401 84.6051 78.3411 84.6161 78.6161 84.6901C79.0701 84.8101 79.4261 85.0861 79.7491 85.3601C79.9321 85.5151 80.1061 85.6701 80.2611 85.8641C80.8051 86.5451 80.9221 87.5411 80.5601 88.4031C80.1681 89.3341 79.1191 90.0211 78.0071 90.0751C77.9591 90.0781 77.9121 90.0791 77.8651 90.0791H77.8641ZM78.1001 85.5591C78.0271 85.5591 77.9511 85.5651 77.8711 85.5791C77.1481 85.6941 76.7861 86.2251 76.6351 86.5321C76.3291 87.1501 76.3321 87.8901 76.6421 88.4651C76.9811 89.0931 77.6141 89.1491 77.9611 89.1421C78.7141 89.1061 79.4431 88.6431 79.6971 88.0401C79.9251 87.4981 79.8571 86.8581 79.5291 86.4471C79.4181 86.3061 79.2801 86.1891 79.1431 86.0731C78.8921 85.8621 78.6431 85.6641 78.3741 85.5941C78.2891 85.5721 78.1971 85.5601 78.1001 85.5601V85.5591Z" fill="#595757"/><path d="M73.819 89.5001C74.584 89.6391 75.36 89.8301 76.129 89.7191C76.538 89.6601 76.954 89.5021 77.215 89.1821C77.514 88.8161 77.562 88.3071 77.532 87.8361C77.492 87.2081 77.404 86.5501 77.072 86.0161C74.318 81.5811 68.843 79.3821 66.946 78.6051C65.75 78.1161 62.602 76.8531 60.694 77.7311C59.014 78.5041 57.941 80.5261 57.886 82.1821C57.796 84.8781 59.253 86.7761 61.18 87.4051C63.238 88.0761 71.659 89.1101 73.819 89.5021V89.5001Z" fill="#F7F6F0"/><path d="M75.646 90.2201C75.104 90.2201 74.577 90.1191 74.062 90.0221L73.736 89.9601C73.052 89.8361 71.74 89.6481 70.201 89.4271C66.761 88.9331 62.477 88.3191 61.035 87.8481C58.747 87.1031 57.327 84.8721 57.419 82.1661C57.476 80.4711 58.574 78.1911 60.498 77.3061C62.397 76.4341 65.188 77.3821 67.122 78.1721C69.241 79.0391 74.67 81.2621 77.47 85.7691C77.862 86.4011 77.957 87.1541 77.999 87.8071C78.045 88.5281 77.907 89.0751 77.577 89.4781C77.271 89.8521 76.794 90.0961 76.196 90.1831C76.011 90.2091 75.828 90.2201 75.646 90.2201V90.2201ZM62.281 77.8941C61.772 77.8941 61.294 77.9691 60.888 78.1561C59.305 78.8851 58.4 80.7831 58.352 82.1981C58.276 84.4771 59.442 86.3461 61.324 86.9601C62.69 87.4051 67.108 88.0391 70.334 88.5031C71.888 88.7261 73.213 88.9161 73.902 89.0411L74.238 89.1031C74.878 89.2251 75.482 89.3381 76.062 89.2571C76.314 89.2211 76.657 89.1261 76.853 88.8861C77.024 88.6771 77.095 88.3341 77.065 87.8661C77.031 87.3281 76.958 86.7181 76.674 86.2621C74.034 82.0111 68.81 79.8721 66.842 79.0671C66 78.7231 63.971 77.8931 62.28 77.8931L62.281 77.8941Z" fill="#595757"/><path d="M87.702 86.22C88.7525 86.22 89.604 85.3685 89.604 84.318C89.604 83.2676 88.7525 82.416 87.702 82.416C86.6516 82.416 85.8 83.2676 85.8 84.318C85.8 85.3685 86.6516 86.22 87.702 86.22Z" fill="#C4BBB0"/><path d="M87.698 86.6871C87.257 86.6871 86.812 86.5641 86.415 86.3081C85.884 85.9651 85.518 85.4351 85.385 84.8161C85.252 84.1981 85.368 83.5641 85.712 83.0331C86.423 81.9351 87.895 81.6211 88.988 82.3301C89.519 82.6731 89.885 83.2031 90.018 83.8221C90.151 84.4401 90.035 85.0741 89.691 85.6051C89.238 86.3051 88.475 86.6871 87.698 86.6871V86.6871ZM87.704 82.8851C87.233 82.8851 86.771 83.1161 86.497 83.5401C86.289 83.8611 86.219 84.2451 86.299 84.6201C86.38 84.9941 86.601 85.3141 86.923 85.5221C87.588 85.9521 88.478 85.7601 88.906 85.0961C89.114 84.7751 89.184 84.3911 89.104 84.0161C89.023 83.6421 88.802 83.3221 88.48 83.1141C88.24 82.9591 87.97 82.8851 87.704 82.8851V82.8851Z" fill="#595757"/><path d="M80.0911 88.657C80.7071 88.687 81.2861 88.398 81.8551 88.162C82.8371 87.755 83.8771 87.489 84.9331 87.375C85.5011 87.314 86.0841 87.294 86.6161 87.086C87.1481 86.878 87.6331 86.431 87.6891 85.862C87.7251 85.496 87.5821 85.138 87.4291 84.804C87.1191 84.127 86.7431 83.46 86.1811 82.972C85.6191 82.484 84.8401 82.195 84.1171 82.371C83.2561 82.581 82.6501 83.379 81.8111 83.663C81.1951 83.871 80.5261 83.78 79.8761 83.763C79.2261 83.746 78.5151 83.832 78.0591 84.295C77.5881 84.774 77.5261 85.519 77.5891 86.187C77.7071 87.453 78.7571 88.593 80.0901 88.657H80.0911Z" fill="#F7F6F0"/><path d="M80.177 89.1271C80.141 89.1271 80.105 89.1271 80.069 89.1241C78.562 89.0501 77.269 87.7791 77.125 86.2291C77.032 85.2291 77.234 84.4671 77.729 83.9651C78.199 83.4871 78.9 83.2591 79.891 83.2951L80.282 83.3111C80.782 83.3341 81.252 83.3581 81.664 83.2191C81.992 83.1081 82.297 82.8891 82.619 82.6571C83.034 82.3581 83.464 82.0501 84.01 81.9171C84.826 81.7171 85.756 81.9791 86.49 82.6191C87.158 83.2001 87.571 83.9871 87.856 84.6081C88.04 85.0071 88.203 85.4411 88.156 85.9081C88.074 86.7351 87.395 87.2841 86.788 87.5211C86.292 87.7141 85.782 87.7621 85.29 87.8091L84.986 87.8391C83.973 87.9471 82.981 88.2001 82.036 88.5921L81.823 88.6821C81.333 88.8911 80.781 89.1261 80.178 89.1261L80.177 89.1271ZM80.114 88.1901C80.546 88.2131 80.987 88.0221 81.456 87.8231L81.677 87.7291C82.706 87.3031 83.785 87.0281 84.885 86.9101L85.201 86.8791C85.649 86.8361 86.073 86.7961 86.447 86.6501C86.806 86.5091 87.187 86.1971 87.225 85.8161C87.25 85.5581 87.124 85.2581 87.005 84.9991C86.759 84.4631 86.408 83.7881 85.875 83.3241C85.376 82.8891 84.742 82.7001 84.229 82.8251C83.86 82.9151 83.521 83.1581 83.163 83.4161C82.799 83.6791 82.422 83.9491 81.961 84.1051C81.383 84.2991 80.799 84.2721 80.235 84.2451L79.864 84.2291C79.172 84.2161 78.672 84.3381 78.393 84.6221C78.102 84.9181 77.988 85.4301 78.055 86.1431C78.157 87.2401 79.061 88.1391 80.113 88.1911L80.114 88.1901Z" fill="#595757"/><path d="M90.184 84.6761C90.831 84.5651 91.4501 84.3201 92.0971 84.2101C92.7241 84.1031 93.4711 84.0671 93.8151 83.5331C94.1131 83.0701 93.9391 82.4351 93.603 82.0001C92.931 81.1311 91.7781 80.8221 90.7091 80.5651C90.251 80.4551 89.794 80.3451 89.336 80.2351C89.003 80.1551 88.6451 80.0771 88.3271 80.2031C88.0821 80.3001 87.898 80.5061 87.728 80.7081C87.541 80.9321 87.357 81.1651 87.247 81.4351C87.035 81.9531 87.119 82.5541 87.347 83.0641C87.894 84.2901 88.824 84.9101 90.184 84.6771V84.6761Z" fill="#F7F6F0"/><path d="M89.6301 85.1921C88.4201 85.1921 87.4911 84.5311 86.9211 83.2531C86.6101 82.5591 86.5721 81.8501 86.8161 81.2571C86.9531 80.9211 87.1661 80.6531 87.3721 80.4061C87.5691 80.1701 87.8101 79.9031 88.1581 79.7661C88.6241 79.5801 89.0991 79.6961 89.4471 79.7801L90.8201 80.1101C92.0571 80.4061 93.2301 80.7521 93.9731 81.7131C94.4011 82.2651 94.6381 83.1191 94.2081 83.7861C93.7971 84.4241 93.0411 84.5381 92.4341 84.6301L92.1771 84.6711C91.8671 84.7241 91.5661 84.8091 91.2631 84.8941C90.9331 84.9871 90.6021 85.0791 90.2641 85.1371C90.0451 85.1741 89.8341 85.1931 89.6301 85.1931V85.1921ZM88.7041 80.6021C88.6291 80.6021 88.5611 80.6121 88.5031 80.6351C88.3581 80.6931 88.2201 80.8491 88.0901 81.0051C87.9301 81.1951 87.7681 81.3981 87.6821 81.6091C87.5391 81.9591 87.5741 82.4181 87.7761 82.8711C88.2621 83.9601 89.0251 84.3991 90.1071 84.2141C90.4131 84.1611 90.7121 84.0761 91.0121 83.9921C91.3451 83.8991 91.6791 83.8061 92.0211 83.7481L92.2951 83.7051C92.7811 83.6311 93.2411 83.5611 93.4241 83.2781C93.5971 83.0091 93.4601 82.5751 93.2351 82.2841C92.6771 81.5631 91.6721 81.2741 90.6031 81.0171L89.2301 80.6881C89.0341 80.6401 88.8551 80.6011 88.7051 80.6011L88.7041 80.6021Z" fill="#595757"/><path d="M46.5102 52.6C44.3142 54.687 42.3032 57.057 41.1592 59.862C40.0152 62.667 39.8262 65.971 41.1912 68.677C41.9322 70.146 43.0792 71.365 43.9922 72.734C46.7912 76.933 47.2152 82.211 48.4892 87.094C48.9962 89.037 49.6722 90.987 50.9362 92.547C52.8202 94.872 55.8572 96.071 58.8472 96.184C61.8372 96.297 64.7912 95.424 67.5182 94.193C69.8062 93.16 72.0142 91.839 73.6792 89.961C75.3442 88.083 76.4222 85.584 76.1972 83.084C75.7192 77.782 70.0092 74.569 67.9382 69.665C66.3342 65.866 67.8952 61.592 66.1152 57.872C65.2272 56.015 64.0802 54.616 62.4712 53.333C60.6372 51.871 58.7222 50.04 56.3412 49.579C53.4452 49.019 48.4402 50.766 46.5092 52.601L46.5102 52.6Z" fill="#F7F6F0"/><path d="M59.3791 96.661C59.1951 96.661 59.0131 96.657 58.8301 96.65C55.4901 96.524 52.4041 95.099 50.5731 92.839C49.1861 91.128 48.5131 89.034 48.0371 87.211C47.6981 85.911 47.4151 84.567 47.1411 83.267C46.3901 79.698 45.6131 76.007 43.6021 72.993C43.2711 72.496 42.9081 72.019 42.5451 71.543C41.9131 70.712 41.2591 69.853 40.7721 68.888C39.4371 66.241 39.4191 62.887 40.7251 59.686C41.7401 57.199 43.4751 54.839 46.1871 52.261C48.2021 50.345 53.3231 48.52 56.4291 49.119C58.5761 49.534 60.2921 50.943 61.9501 52.307C62.2231 52.531 62.4941 52.753 62.7621 52.967C64.4671 54.326 65.6311 55.776 66.5371 57.668C67.4951 59.671 67.5291 61.817 67.5611 63.893C67.5921 65.86 67.6231 67.717 68.3681 69.483C69.2101 71.476 70.7161 73.23 72.1721 74.926C74.2361 77.331 76.3711 79.819 76.6621 83.041C76.8841 85.498 75.9241 88.133 74.0281 90.27C72.5411 91.947 70.4731 93.369 67.7091 94.617C64.6721 95.99 61.9401 96.661 59.3781 96.661H59.3791ZM46.8321 52.938C44.2191 55.421 42.5541 57.677 41.5911 60.039C40.4061 62.945 40.4121 66.096 41.6081 68.466C42.0561 69.355 42.6551 70.143 43.2901 70.977C43.6641 71.469 44.0391 71.961 44.3801 72.474C46.4901 75.64 47.2861 79.42 48.0551 83.076C48.3261 84.365 48.6071 85.699 48.9401 86.976C49.3911 88.703 50.0231 90.679 51.2981 92.252C52.9621 94.305 55.7901 95.6 58.8641 95.717C61.4421 95.805 64.2051 95.176 67.3241 93.766C69.9671 92.573 71.9301 91.226 73.3291 89.65C75.0541 87.705 75.9301 85.327 75.7301 83.126C75.4661 80.201 73.5211 77.935 71.4611 75.536C69.9581 73.785 68.4041 71.974 67.5061 69.847C66.6911 67.915 66.6571 65.878 66.6261 63.909C66.5941 61.844 66.5631 59.892 65.6921 58.073C64.8501 56.315 63.7661 54.966 62.1781 53.699C61.9061 53.482 61.6321 53.258 61.3561 53.03C59.7871 51.742 58.1651 50.409 56.2501 50.039C53.5251 49.514 48.6331 51.227 46.8301 52.94L46.8321 52.938Z" fill="#595757"/><path d="M71.562 76.188C71.528 76.188 71.493 76.184 71.458 76.176C70.442 75.945 68.553 75.513 67.78 74.429C67.748 74.383 64.528 69.334 64.856 65.28C64.933 64.32 65.65 62.014 66.964 62.011C67.222 62.011 67.431 62.22 67.432 62.478C67.432 62.736 67.223 62.946 66.965 62.947C66.518 62.947 65.861 64.427 65.786 65.355C65.51 68.768 68.134 73.318 68.54 73.886C69.105 74.681 70.833 75.075 71.663 75.264C71.915 75.322 72.072 75.573 72.016 75.824C71.966 76.041 71.774 76.188 71.56 76.188H71.562Z" fill="#595757"/><path d="M53.0229 94.684C52.8369 94.684 52.6619 94.572 52.5879 94.389C52.4929 94.149 52.6099 93.877 52.8499 93.782C55.0649 92.903 55.1809 91.266 55.4919 86.893C55.5329 86.321 55.5759 85.705 55.6289 85.045C55.8489 82.264 58.4149 79.305 62.0159 77.682C65.4349 76.139 68.8409 76.244 71.1269 77.961C71.5499 78.279 72.2499 78.864 72.9619 79.46C73.8309 80.187 74.9119 81.091 75.1959 81.244C75.2999 81.301 75.3859 81.352 75.4599 81.396C75.4899 81.414 75.5159 81.43 75.5399 81.445C75.5689 81.421 75.6099 81.384 75.6679 81.33C75.8559 81.153 76.1519 81.162 76.3289 81.349C76.5059 81.537 76.4979 81.832 76.3099 82.01C75.7599 82.529 75.4649 82.491 74.9789 82.198C74.9149 82.16 74.8399 82.115 74.7499 82.066C74.4079 81.88 73.6199 81.228 72.3609 80.176C71.6639 79.593 70.9779 79.02 70.5629 78.708C68.5549 77.197 65.5009 77.132 62.3979 78.532C59.1509 79.997 56.7509 82.705 56.5589 85.118C56.5069 85.775 56.4629 86.388 56.4229 86.958C56.1109 91.35 55.9539 93.554 53.1939 94.649C53.1369 94.671 53.0789 94.682 53.0209 94.682L53.0229 94.684Z" fill="#595757"/><path d="M49.0091 89.3511C48.8121 89.3511 48.6291 89.2261 48.5651 89.0291C48.4851 88.7831 48.6191 88.5191 48.8641 88.4391C49.8231 88.1261 50.1581 87.4811 50.1941 85.8821C50.2301 84.2171 47.1731 71.2851 45.5091 70.3971C43.9101 69.5431 43.2841 70.5901 43.2591 70.6351C43.1301 70.8591 42.8441 70.9341 42.6201 70.8071C42.3961 70.6781 42.3201 70.3921 42.4481 70.1681C42.8241 69.5161 44.0381 68.5531 45.9491 69.5721C48.3751 70.8681 51.1531 84.7701 51.1281 85.9021C51.0961 87.3561 50.8351 88.7771 49.1541 89.3271C49.1061 89.3431 49.0571 89.3501 49.0091 89.3501V89.3511Z" fill="#595757"/><path d="M55.75 72.4661C53.889 72.4661 52.023 71.8621 50.582 70.6951C48.123 68.7051 47.02 65.1991 47.902 62.1701C48.085 61.5401 48.391 60.9751 48.687 60.4281L48.839 60.1451C50.186 57.6211 52.933 56.0891 56.187 56.0461C56.937 56.0501 57.795 56.2011 58.642 56.5371C61.599 57.7111 63.707 60.6271 63.89 63.7911C64.072 66.9291 62.258 70.1301 59.481 71.5771C58.335 72.1751 57.043 72.4671 55.751 72.4671L55.75 72.4661ZM56.198 56.9811C55.109 56.9951 51.418 57.2961 49.664 60.5841L49.509 60.8731C49.224 61.3991 48.955 61.8961 48.799 62.4321C48.02 65.1101 48.995 68.2081 51.17 69.9691C53.332 71.7181 56.573 72.0401 59.049 70.7491C61.511 69.4661 63.117 66.6271 62.956 63.8461C62.797 61.0801 60.881 58.4331 58.296 57.4071C57.565 57.1171 56.857 56.9451 56.198 56.9821V56.9811Z" fill="#595757"/><path d="M45.137 55.3412C45.342 55.8962 45.942 56.2292 46.531 56.2802C47.12 56.3312 47.703 56.1502 48.258 55.9462C51.604 54.7152 54.588 52.5192 56.759 49.6912C57.184 49.9042 57.61 50.1182 58.035 50.3312C57.095 52.3772 50.05 58.5782 47.737 58.7302C44.113 58.9682 41.97 57.5372 43.456 54.5072C43.675 54.0612 44.408 53.1642 45.001 53.5312C45.572 53.8842 44.927 54.7772 45.136 55.3422L45.137 55.3412Z" fill="#F7F6F0"/><path d="M46.989 59.2231C45.024 59.2231 43.597 58.6901 42.929 57.6921C42.52 57.0811 42.206 55.9961 43.037 54.3011C43.241 53.8851 43.769 53.2001 44.388 53.0231C44.694 52.9361 44.99 52.9741 45.248 53.1331C45.86 53.5111 45.72 54.1811 45.628 54.6241C45.586 54.8221 45.535 55.0701 45.575 55.1791C45.719 55.5691 46.192 55.7821 46.571 55.8141C47.041 55.8561 47.518 55.7201 48.097 55.5071C51.341 54.3131 54.285 52.1461 56.389 49.4051C56.525 49.2261 56.768 49.1711 56.97 49.2721L58.245 49.9121C58.471 50.0251 58.566 50.2961 58.461 50.5251C57.472 52.6801 50.321 59.0281 47.769 59.1961C47.5 59.2141 47.241 59.2221 46.989 59.2221V59.2231ZM44.701 53.9121C44.686 53.9121 44.669 53.9141 44.647 53.9211C44.371 54.0001 44.013 54.4361 43.877 54.7131C43.367 55.7521 43.31 56.5791 43.706 57.1721C44.258 57.9961 45.718 58.3971 47.707 58.2631C49.594 58.1391 55.884 52.8421 57.389 50.5291L56.892 50.2791C54.702 53.0131 51.706 55.1751 48.421 56.3831C47.817 56.6051 47.166 56.8021 46.492 56.7441C45.656 56.6721 44.952 56.1841 44.7 55.5021C44.567 55.1421 44.645 54.7651 44.714 54.4321C44.746 54.2831 44.804 54.0031 44.769 53.9341C44.749 53.9221 44.732 53.9121 44.702 53.9121H44.701Z" fill="#595757"/><path d="M36.028 61.1713C35.472 61.7943 35.214 62.6773 35.454 63.4973C35.68 64.2693 36.234 64.9903 36.973 65.3683C38.048 65.9193 40.452 65.6253 40.464 63.0623C40.47 61.6753 37.65 59.3573 36.029 61.1713H36.028Z" fill="#C4BBB0"/><path d="M38.055 66.0712C37.558 66.0712 37.098 65.9582 36.76 65.7842C35.933 65.3612 35.2771 64.5552 35.0061 63.6282C34.7321 62.6932 34.9901 61.6322 35.6801 60.8592C36.404 60.0502 37.448 59.8302 38.541 60.2472C39.842 60.7472 40.937 62.0372 40.932 63.0642C40.925 64.5442 40.219 65.2842 39.627 65.6432C39.125 65.9492 38.57 66.0712 38.056 66.0712H38.055ZM36.377 61.4822C35.9 62.0152 35.718 62.7372 35.903 63.3652C36.1 64.0402 36.5921 64.6482 37.186 64.9522C37.653 65.1922 38.498 65.2372 39.141 64.8452C39.705 64.5022 39.993 63.9022 39.997 63.0612C39.999 62.4952 39.2011 61.5032 38.2051 61.1212C37.6951 60.9252 36.964 60.8292 36.377 61.4832V61.4822Z" fill="#595757"/><path d="M48.873 59.1611C46.768 59.3371 44.662 59.5131 42.557 59.6891C41.068 59.8131 39.319 60.1081 38.688 61.4441C38.239 62.3961 38.764 64.4661 39.448 65.2851C40.132 66.1041 41.138 66.1741 42.1 66.6401C45.871 68.4661 49.705 69.2681 53.848 69.8451C54.605 69.9501 55.374 70.0341 56.129 69.9301C58.268 69.6351 59.99 67.7371 60.27 65.6151C60.542 63.5511 59.284 60.4941 57.512 59.2581C55.415 57.7961 51.209 58.9651 48.874 59.1611H48.873Z" fill="#F7F6F0"/><path d="M55.3931 70.4452C54.8291 70.4452 54.2791 70.3782 53.784 70.3082C50.004 69.7812 45.948 69.0222 41.897 67.0612C41.602 66.9172 41.303 66.8152 41.011 66.7142C40.334 66.4802 39.635 66.2372 39.089 65.5842C38.28 64.6142 37.731 62.3762 38.266 61.2442C38.988 59.7152 40.821 59.3642 42.519 59.2232L48.834 58.6952C49.362 58.6512 49.987 58.5552 50.662 58.4542C53.046 58.0922 56.011 57.6432 57.78 58.8752C59.659 60.1862 61.0391 63.3642 60.7341 65.6772C60.4211 68.0522 58.4691 70.0802 56.1931 70.3942C55.9261 70.4312 55.6581 70.4462 55.3931 70.4462V70.4452ZM48.913 59.6272L42.597 60.1552C41.164 60.2742 39.631 60.5452 39.112 61.6432C38.754 62.4012 39.221 64.2822 39.807 64.9852C40.186 65.4402 40.71 65.6212 41.317 65.8312C41.642 65.9442 41.975 66.0602 42.304 66.2202C46.238 68.1252 50.208 68.8662 53.912 69.3832C54.577 69.4762 55.347 69.5662 56.065 69.4682C57.938 69.2092 59.5461 67.5282 59.8051 65.5552C60.0621 63.6132 58.8171 60.7402 57.2431 59.6432C55.781 58.6242 53.02 59.0402 50.801 59.3782C50.103 59.4832 49.457 59.5812 48.911 59.6272H48.913Z" fill="#595757"/><path d="M23.765 50.2942C23.095 50.5172 22.92 51.2612 22.866 51.9232C22.792 52.8292 22.854 53.8682 23.601 54.6072C25.071 56.0622 28.081 55.6092 27.853 53.6152C27.7 52.2752 25.333 49.7722 23.765 50.2942V50.2942Z" fill="#F7F6F0"/><path d="M25.774 55.9351C24.861 55.9351 23.922 55.5841 23.271 54.9401C22.341 54.0181 22.329 52.7551 22.4 51.8851C22.434 51.4711 22.536 50.2101 23.617 49.8511C24.276 49.6311 25.061 49.7951 25.888 50.3231C27.113 51.1041 28.202 52.5571 28.317 53.5621C28.421 54.4681 27.997 55.2231 27.155 55.6311C26.734 55.8361 26.258 55.9351 25.774 55.9351V55.9351ZM24.215 50.6921C24.106 50.6921 24.005 50.7071 23.912 50.7381C23.7 50.8091 23.409 51.0121 23.332 51.9621C23.242 53.0641 23.426 53.7771 23.93 54.2761C24.718 55.0551 26.007 55.1511 26.747 54.7911C27.231 54.5571 27.447 54.1791 27.389 53.6681C27.315 53.0181 26.442 51.7851 25.386 51.1111C24.954 50.8351 24.55 50.6921 24.216 50.6921H24.215Z" fill="#595757"/><path d="M28.7506 56.3629C29.2232 55.4378 28.7726 54.2619 27.7442 53.7366C26.7158 53.2112 25.499 53.5353 25.0264 54.4604C24.5538 55.3855 25.0043 56.5614 26.0328 57.0867C27.0612 57.6121 28.278 57.288 28.7506 56.3629Z" fill="#C4BBB0"/><path d="M27.0589 57.8051C26.6459 57.8051 26.2209 57.7081 25.8199 57.5031C25.2199 57.1971 24.7619 56.6951 24.5309 56.0921C24.2929 55.4711 24.3209 54.8161 24.6109 54.2481C24.9009 53.6821 25.4149 53.2741 26.0579 53.1031C26.6799 52.9351 27.3569 53.0131 27.9579 53.3211C28.5579 53.6281 29.0159 54.1291 29.2479 54.7331C29.4859 55.3541 29.4579 56.0081 29.1679 56.5761C28.7669 57.3611 27.9419 57.8051 27.0599 57.8051H27.0589ZM26.7169 53.9531C26.5749 53.9531 26.4349 53.9711 26.2989 54.0071C25.9149 54.1101 25.6109 54.3461 25.4439 54.6741C25.2769 55.0021 25.2629 55.3871 25.4049 55.7571C25.5529 56.1461 25.8519 56.4701 26.2459 56.6711C27.0439 57.0781 27.9799 56.8461 28.3349 56.1501C28.5019 55.8231 28.5159 55.4381 28.3739 55.0671C28.2259 54.6791 27.9259 54.3551 27.5319 54.1531C27.2719 54.0201 26.9919 53.9531 26.7169 53.9531Z" fill="#595757"/><path d="M29.7859 54.7961C29.5659 54.6971 29.3369 54.6041 29.1029 54.5901C28.7529 54.5701 28.4459 54.7291 28.1799 54.9061C27.4229 55.4091 26.8229 56.0941 26.4439 56.8881C26.3669 57.0491 26.2979 57.2201 26.3069 57.4041C26.3299 57.9021 27.4059 59.3201 27.8839 59.6151C29.9909 60.9131 33.3409 64.5281 35.6019 64.4061C36.1949 64.3741 37.5399 62.7671 36.8419 61.0981C36.3869 60.0101 37.2049 59.9561 33.6379 57.5161C32.1379 56.4901 31.4719 55.5521 29.7879 54.7951L29.7859 54.7961Z" fill="#F7F6F0"/><path d="M35.4901 64.8771C33.7841 64.8771 31.7071 63.1911 29.8691 61.7001C29.0481 61.0341 28.2731 60.4051 27.6371 60.0121C27.1211 59.6951 25.8711 58.1501 25.8391 57.4251C25.8261 57.1391 25.9231 56.8921 26.0211 56.6871C26.4361 55.8171 27.0931 55.0661 27.9201 54.5161C28.2201 54.3181 28.6261 54.0851 29.1291 54.1221C29.4461 54.1411 29.7331 54.2591 29.9771 54.3681C31.0941 54.8711 31.7841 55.4461 32.5141 56.0561C32.9311 56.4031 33.3611 56.7621 33.8991 57.1301C36.7271 59.0641 36.9491 59.5851 37.1241 60.4111C37.1551 60.5581 37.1871 60.7181 37.2701 60.9171C37.6591 61.8481 37.5551 62.9021 36.9851 63.8131C36.6751 64.3061 36.1561 64.8431 35.6251 64.8731C35.5801 64.8751 35.5351 64.8771 35.4901 64.8771ZM29.0411 55.0561C28.8721 55.0561 28.6891 55.1291 28.4371 55.2961C27.7501 55.7521 27.2071 56.3721 26.8641 57.0901C26.8141 57.1941 26.7681 57.3041 26.7721 57.3831C26.8111 57.7221 27.7361 58.9761 28.1271 59.2181C28.8151 59.6421 29.6121 60.2891 30.4581 60.9751C32.1271 62.3291 34.2011 64.0371 35.5741 63.9401C35.6661 63.9201 36.0181 63.6641 36.2881 63.1531C36.4761 62.7971 36.7421 62.0791 36.4081 61.2801C36.2971 61.0141 36.2501 60.8021 36.2091 60.6061C36.1041 60.1081 36.0211 59.7151 33.3721 57.9031C32.7961 57.5091 32.3491 57.1361 31.9161 56.7751C31.2071 56.1831 30.5941 55.6721 29.5941 55.2231C29.4271 55.1471 29.2341 55.0661 29.0751 55.0571C29.0641 55.0571 29.0531 55.0571 29.0411 55.0571V55.0561Z" fill="#595757"/><path d="M80.282 98.968C81.4153 98.968 82.334 98.0493 82.334 96.916C82.334 95.7827 81.4153 94.864 80.282 94.864C79.1487 94.864 78.23 95.7827 78.23 96.916C78.23 98.0493 79.1487 98.968 80.282 98.968Z" fill="#C4BBB0"/><path d="M80.2849 99.435C79.2829 99.435 78.3349 98.834 77.9409 97.849C77.4259 96.559 78.0579 95.091 79.3479 94.576C79.9709 94.327 80.6549 94.336 81.2759 94.601C81.8939 94.867 82.3719 95.358 82.6219 95.983C82.8709 96.608 82.8619 97.293 82.5969 97.911C82.3319 98.529 81.8399 99.007 81.2149 99.257C80.9099 99.378 80.5949 99.436 80.2849 99.436V99.435ZM80.2819 95.331C80.0829 95.331 79.8849 95.369 79.6939 95.445C78.8819 95.768 78.4859 96.692 78.8099 97.504C79.1329 98.316 80.0569 98.713 80.8689 98.388C81.2619 98.232 81.5699 97.931 81.7369 97.542C81.9039 97.153 81.9099 96.723 81.7529 96.329C81.5969 95.936 81.2959 95.628 80.9069 95.461C80.7059 95.374 80.4939 95.331 80.2819 95.331V95.331Z" fill="#595757"/><path d="M62.4349 94.002C64.1269 95.319 66.7839 96.095 68.9929 96.395C70.0329 96.536 74.2029 98.418 75.4869 98.732C76.2269 98.913 77.0199 99.103 77.7639 98.857C79.0009 98.448 79.5449 97.012 79.4899 95.798C79.3829 93.42 77.7549 91.448 76.1319 89.701C74.0739 87.485 71.8899 85.341 69.2919 83.7C68.0099 82.891 66.5449 82.189 64.9629 82.282C63.2479 82.383 61.6439 83.446 60.6799 84.833C58.1719 88.442 59.1889 91.476 62.4349 94.002V94.002Z" fill="#F7F6F0"/><path d="M76.986 99.442C76.424 99.442 75.878 99.309 75.376 99.186C74.755 99.034 73.565 98.563 72.307 98.064C70.961 97.531 69.437 96.926 68.93 96.857C66.212 96.49 63.676 95.56 62.148 94.371C58.468 91.509 57.829 88.118 60.296 84.567C61.402 82.973 63.181 81.92 64.936 81.815C66.764 81.715 68.355 82.554 69.542 83.304C72.286 85.037 74.586 87.349 76.475 89.382C78.1 91.131 79.843 93.212 79.957 95.777C80.018 97.128 79.403 98.807 77.91 99.3C77.6 99.403 77.291 99.442 76.986 99.442V99.442ZM65.246 82.741C65.161 82.741 65.076 82.744 64.99 82.749C63.515 82.836 62.011 83.737 61.063 85.101C58.865 88.264 59.407 91.055 62.721 93.633C64.124 94.726 66.492 95.585 69.055 95.932C69.674 96.016 71.119 96.589 72.65 97.196C73.825 97.661 75.04 98.142 75.597 98.279C76.284 98.447 76.996 98.621 77.617 98.414C78.602 98.089 79.07 96.862 79.023 95.82C78.922 93.572 77.3 91.647 75.789 90.02C73.942 88.031 71.696 85.771 69.042 84.096C68.032 83.458 66.703 82.742 65.246 82.742V82.741Z" fill="#595757"/><path d="M91.593 94.323C92.5998 94.323 93.416 93.5068 93.416 92.5C93.416 91.4932 92.5998 90.677 91.593 90.677C90.5862 90.677 89.77 91.4932 89.77 92.5C89.77 93.5068 90.5862 94.323 91.593 94.323Z" fill="#C4BBB0"/><path d="M91.593 94.7911C91.461 94.7911 91.326 94.7791 91.192 94.7551C89.95 94.5331 89.118 93.3421 89.338 92.0991C89.559 90.8551 90.753 90.0221 91.993 90.2451C93.236 90.4671 94.068 91.6581 93.847 92.9011C93.65 94.0091 92.681 94.7911 91.592 94.7911H91.593ZM91.593 91.1451C90.949 91.1451 90.376 91.6071 90.259 92.2631C90.129 92.9981 90.621 93.7031 91.357 93.8351C92.097 93.9611 92.797 93.4731 92.929 92.7371C93.059 92.0021 92.567 91.2971 91.83 91.1651C91.751 91.1511 91.672 91.1441 91.593 91.1441V91.1451Z" fill="#595757"/><path d="M81.7009 97.378C82.9719 97.591 84.1059 96.636 85.1859 95.922C86.0029 95.382 86.8909 94.952 87.8189 94.648C88.3879 94.461 88.9839 94.316 89.4789 93.976C90.3869 93.352 90.7829 92.19 90.8799 91.087C90.9129 90.71 90.9129 90.309 90.7279 89.981C90.5249 89.622 90.1299 89.412 89.7299 89.32C88.7929 89.105 87.8159 89.447 86.9649 89.902C86.1139 90.357 85.3179 90.934 84.4069 91.247C83.8449 91.44 83.2519 91.528 82.6939 91.73C81.6479 92.108 80.3839 93.05 80.0249 94.16C79.5979 95.479 80.2729 97.138 81.7019 97.377L81.7009 97.378Z" fill="#F7F6F0"/><path d="M82.067 97.8761C81.921 97.8761 81.774 97.8641 81.624 97.8391C80.901 97.7181 80.283 97.2881 79.883 96.6301C79.414 95.8581 79.3 94.8801 79.58 94.0171C79.997 92.7281 81.403 91.7011 82.534 91.2911C82.84 91.1811 83.155 91.1021 83.472 91.0231C83.735 90.9581 83.998 90.8931 84.254 90.8041C84.833 90.6061 85.366 90.2901 85.931 89.9551C86.2 89.7961 86.469 89.6371 86.744 89.4891C87.92 88.8601 88.932 88.6561 89.834 88.8631C90.425 88.9981 90.887 89.3121 91.134 89.7491C91.39 90.2001 91.381 90.7231 91.346 91.1271C91.217 92.5911 90.649 93.7391 89.744 94.3601C89.281 94.6771 88.768 94.8381 88.273 94.9931L87.965 95.0921C87.074 95.3841 86.226 95.7941 85.444 96.3111L84.997 96.6151C84.132 97.2101 83.163 97.8761 82.067 97.8761V97.8761ZM81.778 96.9171C82.697 97.0701 83.591 96.4461 84.467 95.8451C84.622 95.7391 84.776 95.6331 84.928 95.5331C85.781 94.9711 86.703 94.5231 87.673 94.2051L87.993 94.1031C88.442 93.9611 88.867 93.8291 89.214 93.5901C90.118 92.9701 90.354 91.7311 90.413 91.0461C90.438 90.7601 90.447 90.4361 90.319 90.2111C90.205 90.0091 89.952 89.8511 89.625 89.7761C88.948 89.6191 88.15 89.7971 87.185 90.3141C86.921 90.4551 86.664 90.6081 86.406 90.7601C85.826 91.1041 85.226 91.4581 84.558 91.6891C84.276 91.7861 83.986 91.8581 83.696 91.9301C83.412 92.0001 83.128 92.0701 82.852 92.1691C81.899 92.5141 80.775 93.3581 80.468 94.3041C80.275 94.9031 80.356 95.6081 80.681 96.1441C80.863 96.4431 81.201 96.8201 81.778 96.9161V96.9171Z" fill="#595757"/><path d="M95.935 92.2711C96.276 92.2371 96.623 92.2011 96.94 92.0691C97.257 91.9371 97.544 91.6941 97.645 91.3661C97.748 91.0281 97.638 90.6591 97.469 90.3481C96.838 89.1921 95.495 88.6351 94.221 88.3031C93.658 88.1561 93.065 88.0361 92.5 88.1741C91.935 88.3121 91.412 88.7801 91.391 89.3611C91.378 89.7501 91.582 90.1101 91.78 90.4451C92.137 91.0491 92.597 92.3781 93.311 92.5911C93.928 92.7751 95.276 92.3371 95.935 92.2711V92.2711Z" fill="#F7F6F0"/><path d="M93.6899 93.1041C93.5019 93.1041 93.3299 93.0851 93.1759 93.0401C92.4379 92.8191 91.9929 91.9141 91.6359 91.1861C91.5419 90.9961 91.4559 90.8201 91.3759 90.6841C91.1759 90.3431 90.9029 89.8791 90.9229 89.3451C90.9519 88.5061 91.6819 87.8931 92.3879 87.7211C93.0439 87.5601 93.7119 87.6881 94.3369 87.8511C95.4879 88.1521 97.1079 88.7141 97.8769 90.1251C98.1439 90.6111 98.2169 91.0881 98.0909 91.5031C97.9579 91.9351 97.6039 92.2991 97.1179 92.5011C96.7359 92.6601 96.3349 92.7001 95.9799 92.7351C95.7789 92.7561 95.5099 92.8141 95.2169 92.8761C94.6889 92.9881 94.1479 93.1041 93.6889 93.1041H93.6899ZM93.0349 88.5821C92.8899 88.5821 92.7479 88.5961 92.6099 88.6301C92.2499 88.7181 91.8699 89.0221 91.8569 89.3791C91.8479 89.6411 92.0259 89.9431 92.1819 90.2101C92.2719 90.3621 92.3699 90.5601 92.4749 90.7741C92.7069 91.2481 93.0969 92.0401 93.4439 92.1431C93.7469 92.2341 94.5149 92.0711 95.0249 91.9621C95.3549 91.8921 95.6599 91.8281 95.8869 91.8061C96.2049 91.7741 96.5049 91.7441 96.7589 91.6381C96.9839 91.5441 97.1469 91.3921 97.1969 91.2301C97.2649 91.0061 97.1389 90.7221 97.0569 90.5741C96.6029 89.7421 95.6629 89.1641 94.1009 88.7561C93.7659 88.6691 93.3939 88.5821 93.0349 88.5821V88.5821Z" fill="#595757"/><path d="M46.64 44.862C47.98 44.076 50.957 43.767 52.245 42.899C53.745 41.889 54.687 40.222 55.264 38.507C55.868 36.714 56.117 34.806 56.02 32.917C54 31.64 51.776 31.277 49.696 31.633C48.138 31.9 46.645 32.412 45.095 32.727C41.921 33.371 38.693 32.209 35.545 31.419C34.605 31.183 33.561 31.003 32.627 31.152C32.079 31.24 31.568 31.441 31.139 31.811C30.224 32.6 29.987 33.904 29.814 35.104C29.512 37.202 29.236 39.331 29.484 41.439C29.667 42.992 30.168 44.548 31.053 45.823C31.194 45.792 31.336 45.763 31.477 45.736C33.736 45.301 34.752 43.872 36.648 44.658C39.403 45.799 43.34 46.799 46.639 44.862H46.64Z" fill="#C4BBB0"/><path d="M59.074 52.566C60.501 50.974 61.586 48.583 62.024 46.485C62.638 43.545 61.905 40.316 60.371 37.432C59.213 35.255 57.77 33.718 56.205 32.728C56.302 34.617 56.052 36.525 55.449 38.318C54.872 40.032 53.93 41.699 52.43 42.71C51.142 43.578 45.78 45.225 44.24 45.431C41.299 45.823 38.835 44.037 36.649 44.657C34.417 45.29 34.129 45.072 31.663 45.547C31.522 45.574 31.38 45.603 31.239 45.634C31.555 46.089 31.917 46.511 32.335 46.881C34.712 48.988 38.208 49.114 41.069 50.486C42.854 51.342 44.363 52.671 45.975 53.823C47.587 54.975 49.41 55.986 51.385 56.048C52.83 56.093 54.242 55.622 55.551 55.013C56.856 54.405 58.113 53.639 59.075 52.566H59.074Z" fill="#F7F6F0"/><path d="M51.6131 56.234C51.5431 56.234 51.4721 56.234 51.4021 56.23C49.1231 56.161 47.0761 54.877 45.7351 53.918C45.2921 53.602 44.8571 53.272 44.4211 52.942C43.3071 52.097 42.1551 51.224 40.8991 50.622C39.8391 50.114 38.6531 49.772 37.5051 49.441C35.5871 48.888 33.6031 48.316 32.0571 46.946C30.5301 45.592 29.5281 43.488 29.2381 41.02C28.9891 38.907 29.2411 36.846 29.5691 34.564C29.7601 33.234 30.0321 31.862 31.0511 30.983C31.5161 30.582 32.0951 30.324 32.7711 30.217C33.8711 30.04 35.0701 30.29 35.8761 30.492C36.3951 30.622 36.9161 30.763 37.4381 30.903C40.0121 31.596 42.6731 32.311 45.2191 31.796C45.9041 31.657 46.5771 31.479 47.2501 31.3C48.0871 31.079 48.9521 30.85 49.8331 30.699C54.2361 29.946 58.3391 32.273 60.8151 36.928C62.5061 40.108 63.1091 43.435 62.5121 46.296C62.0281 48.615 60.8561 51.028 59.4511 52.594C58.5741 53.572 57.3731 54.408 55.7771 55.152C54.1981 55.887 52.8671 56.234 51.6101 56.234H51.6131ZM33.5711 31.092C33.3501 31.092 33.1311 31.107 32.9191 31.14C32.4091 31.222 31.9981 31.402 31.6621 31.691C30.8871 32.359 30.6671 33.494 30.4951 34.697C30.1761 36.913 29.9321 38.91 30.1671 40.911C30.4301 43.151 31.3221 45.046 32.6781 46.247C34.0661 47.477 35.8631 47.995 37.7641 48.543C38.9481 48.884 40.1731 49.237 41.3031 49.779C42.6441 50.422 43.8341 51.324 44.9851 52.196C45.4141 52.52 45.8421 52.845 46.2781 53.157C47.5201 54.045 49.4051 55.232 51.4311 55.295C52.5831 55.316 53.8541 55.017 55.3851 54.303C56.8641 53.615 57.9671 52.851 58.7581 51.969C60.0581 50.519 61.1471 48.272 61.5981 46.104C62.1521 43.457 61.5801 40.354 59.9911 37.366C57.7161 33.085 53.9721 30.934 49.9931 31.62C49.1531 31.764 48.3081 31.987 47.4911 32.203C46.8011 32.386 46.1091 32.568 45.4071 32.711C42.6471 33.273 39.8761 32.526 37.1981 31.805C36.6811 31.666 36.1651 31.527 35.6511 31.398C35.0901 31.257 34.3211 31.09 33.5721 31.09L33.5711 31.092Z" fill="#595757"/><path d="M56.074 37.062C54.883 36.459 53.545 36.341 52.37 36.672C51.921 36.798 51.484 36.994 51.165 37.338C50.927 37.594 50.764 37.921 50.627 38.257C50.28 39.104 50.077 40.035 50.032 40.995C49.978 42.128 50.129 43.353 49.67 44.322C49.066 45.597 47.515 46.159 47.199 47.581C46.883 49.001 48.069 50.624 49.433 51.16C50.797 51.696 52.226 51.403 53.495 50.934C54.355 50.616 55.193 50.214 55.877 49.598C56.316 49.203 56.684 48.728 57.05 48.255C57.896 47.161 58.752 46.049 59.253 44.705C60.322 41.837 58.966 38.525 56.076 37.062H56.074Z" fill="#605344"/><path d="M51.011 51.9169C50.444 51.9169 49.852 51.8279 49.261 51.5949C47.735 50.9949 46.359 49.1989 46.742 47.4799C46.95 46.5469 47.575 45.9599 48.18 45.3919C48.61 44.9879 49.017 44.6069 49.246 44.1219C49.544 43.4919 49.546 42.6999 49.548 41.8629C49.548 41.5639 49.549 41.2649 49.564 40.9729C49.612 39.9549 49.824 38.9809 50.193 38.0799C50.324 37.7609 50.513 37.3519 50.822 37.0199C51.159 36.6569 51.624 36.3959 52.243 36.2229C53.553 35.8539 55.025 36.0089 56.284 36.6459C59.386 38.2169 60.849 41.7519 59.688 44.8689C59.158 46.2889 58.273 47.4339 57.417 48.5419C57.043 49.0239 56.656 49.5239 56.187 49.9469C55.556 50.5149 54.751 50.9679 53.655 51.3729C52.952 51.6339 52.021 51.9179 51.01 51.9179L51.011 51.9169ZM53.695 36.9599C53.288 36.9599 52.883 37.0139 52.498 37.1219C52.049 37.2479 51.726 37.4229 51.508 37.6559C51.303 37.8769 51.16 38.1879 51.06 38.4339C50.731 39.2369 50.542 40.1049 50.499 41.0169C50.486 41.2959 50.485 41.5799 50.485 41.8649C50.483 42.7679 50.481 43.7029 50.093 44.5229C49.788 45.1679 49.297 45.6279 48.822 46.0739C48.297 46.5669 47.801 47.0319 47.656 47.6829C47.389 48.8809 48.465 50.2769 49.604 50.7249C50.631 51.1289 51.816 51.0559 53.333 50.4959C54.315 50.1329 55.024 49.7379 55.564 49.2509C55.971 48.8849 56.315 48.4399 56.679 47.9689C57.493 46.9169 58.334 45.8289 58.815 44.5419C59.809 41.8719 58.542 38.8349 55.865 37.4799C55.186 37.1369 54.435 36.9599 53.696 36.9599H53.695Z" fill="#595757"/><path d="M42.5916 42.6963C43.5907 42.134 43.9421 40.8634 43.3765 39.8585C42.8109 38.8536 41.5424 38.4948 40.5433 39.0572C39.5441 39.6195 39.1927 40.8901 39.7583 41.895C40.3239 42.8999 41.5924 43.2587 42.5916 42.6963Z" fill="#999999"/><path d="M41.58 43.4309C41.348 43.4309 41.114 43.3989 40.884 43.3339C40.229 43.1489 39.684 42.7199 39.35 42.1249C38.659 40.8969 39.091 39.3389 40.314 38.6509C40.906 38.3169 41.593 38.2339 42.25 38.4209C42.905 38.6059 43.45 39.0349 43.784 39.6299C44.118 40.2239 44.203 40.9119 44.021 41.5679C43.839 42.2249 43.413 42.7699 42.82 43.1039C42.435 43.3209 42.01 43.4309 41.58 43.4309V43.4309ZM41.555 39.2599C41.283 39.2599 41.015 39.3289 40.772 39.4659C39.999 39.9009 39.727 40.8879 40.165 41.6669C40.377 42.0439 40.724 42.3169 41.139 42.4349C41.554 42.5519 41.988 42.4999 42.363 42.2899C42.737 42.0799 43.006 41.7349 43.121 41.3189C43.236 40.9029 43.183 40.4659 42.97 40.0889C42.758 39.7109 42.411 39.4389 41.996 39.3209C41.85 39.2799 41.703 39.2599 41.556 39.2599H41.555Z" fill="#595757"/><path d="M42.8271 42.501C42.2241 42.501 41.3421 42.355 40.6801 41.692C40.1841 41.197 39.6511 40.083 39.6801 39.333C39.6911 39.075 39.9271 38.883 40.1651 38.884C40.4231 38.894 40.6241 39.112 40.6141 39.369C40.5971 39.79 40.9841 40.676 41.3401 41.031C42.0431 41.734 43.1971 41.54 43.2081 41.537C43.4541 41.48 43.7061 41.624 43.7721 41.865C43.8391 42.106 43.7151 42.353 43.4781 42.431C43.3941 42.459 43.1501 42.501 42.8261 42.501H42.8271Z" fill="#595757"/><path d="M32.9343 32.173C32.6663 32.669 32.1713 33.005 31.6493 33.216C31.2953 33.36 30.9023 33.455 30.5293 33.366C30.4933 33.357 30.4563 33.346 30.4283 33.321C30.3693 33.268 30.3753 33.176 30.3883 33.098C30.5403 32.174 31.5163 30.622 32.8463 30.679C32.8463 30.679 33.3753 31.359 32.9343 32.173Z" fill="#666767"/><path d="M30.8322 33.868C30.6902 33.868 30.5542 33.852 30.4212 33.821C30.3392 33.801 30.2212 33.764 30.1142 33.667C29.9992 33.563 29.8712 33.366 29.9272 33.023C30.1242 31.831 31.2722 30.153 32.8662 30.212C33.0032 30.218 33.1312 30.284 33.2152 30.392C33.2442 30.429 33.9242 31.325 33.3452 32.395C33.0552 32.929 32.5302 33.362 31.8242 33.648C31.4632 33.794 31.1352 33.867 30.8312 33.867L30.8322 33.868ZM32.5802 31.161C31.7552 31.296 31.1192 32.256 30.9092 32.93C31.0742 32.918 31.2602 32.869 31.4742 32.783C31.8242 32.641 32.2902 32.382 32.5232 31.95C32.6972 31.628 32.6482 31.341 32.5802 31.161V31.161Z" fill="#595757"/><path d="M36.649 44.657C35 44.986 33.339 45.255 31.67 45.465C31.599 45.474 31.525 45.482 31.46 45.453C31.396 45.425 31.353 45.365 31.313 45.308C30.689 44.418 30.226 43.415 29.946 42.365C29.778 41.736 29.637 40.22 29.637 40.22C30.705 40.72 32.554 41.868 33.532 42.534L36.649 44.657V44.657Z" fill="#999999"/><path d="M31.5691 45.9408C31.4811 45.9408 31.3761 45.9278 31.2681 45.8798C31.0821 45.7968 30.9771 45.6468 30.9281 45.5748C30.2741 44.6418 29.7911 43.6018 29.4931 42.4858C29.3171 41.8268 29.1771 40.3278 29.1711 40.2648C29.1551 40.0978 29.2311 39.9348 29.3671 39.8388C29.5041 39.7418 29.6821 39.7258 29.8341 39.7978C30.9581 40.3238 32.8261 41.4888 33.7931 42.1488L36.9111 44.2718C37.0661 44.3778 37.1431 44.5668 37.1061 44.7508C37.0691 44.9348 36.9241 45.0788 36.7391 45.1158C35.0861 45.4448 33.4001 45.7188 31.7271 45.9288C31.6871 45.9338 31.6321 45.9408 31.5681 45.9408H31.5691ZM30.1961 41.0338C30.2521 41.4838 30.3241 41.9728 30.3971 42.2448C30.6611 43.2368 31.0871 44.1618 31.6631 44.9948C32.9441 44.8328 34.2081 44.6378 35.4541 44.4098L33.2681 42.9218C32.5451 42.4288 31.2381 41.6048 30.1961 41.0348V41.0338Z" fill="#595757"/><path d="M74.1419 69.5329C74.9679 68.1799 76.1489 67.0909 77.0999 65.8249C77.7789 64.9209 78.3499 63.8579 78.5179 62.7529C78.6449 61.9169 79.8339 61.8609 80.0779 62.6719C80.3789 63.6729 80.3949 65.0099 80.1599 65.8429C79.7739 67.2119 79.4269 68.4459 77.5719 69.4549C76.3569 70.1159 75.3419 70.8499 74.6269 72.0409C73.9119 73.2319 73.5679 74.7179 73.9939 76.0499C74.2799 76.9449 75.2719 78.2899 74.6429 79.1989C73.5339 78.4649 73.0699 76.0689 72.9579 74.8249C72.7919 72.9909 73.1839 71.0999 74.1409 69.5329H74.1419Z" fill="#605344"/><path d="M74.644 79.667C74.555 79.667 74.465 79.642 74.386 79.589C72.902 78.606 72.549 75.483 72.493 74.866C72.313 72.884 72.758 70.903 73.742 69.289C74.26 68.44 74.91 67.693 75.54 66.972C75.941 66.511 76.357 66.034 76.725 65.544C77.47 64.552 77.918 63.59 78.055 62.684C78.144 62.095 78.605 61.672 79.202 61.63C79.817 61.574 80.348 61.951 80.524 62.537C80.839 63.585 80.875 65.028 80.609 65.97C80.221 67.343 79.822 68.763 77.795 69.866C76.779 70.42 75.74 71.095 75.026 72.283C74.301 73.49 74.088 74.811 74.438 75.908C74.507 76.124 74.622 76.367 74.742 76.625C75.144 77.493 75.645 78.572 75.026 79.467C74.936 79.598 74.79 79.668 74.642 79.668L74.644 79.667ZM73.792 76.794C73.938 77.308 74.12 77.782 74.337 78.155C74.255 77.794 74.068 77.392 73.895 77.017C73.86 76.942 73.826 76.867 73.792 76.793V76.794ZM74.541 69.775C73.77 71.038 73.37 72.555 73.39 74.109C73.497 73.334 73.78 72.546 74.227 71.8C75.058 70.416 76.272 69.63 77.349 69.044C79.031 68.129 79.33 67.064 79.71 65.716C79.93 64.938 79.896 63.688 79.631 62.806C79.554 62.552 79.312 62.561 79.27 62.561C79.194 62.567 79.013 62.603 78.98 62.823C78.82 63.884 78.313 64.988 77.474 66.105C77.085 66.622 76.659 67.112 76.246 67.585C75.614 68.31 75.017 68.994 74.541 69.774V69.775Z" fill="#595757"/></g><defs><clipPath id="clip0_523_2723"><rect width="100" height="100" fill="white"/></clipPath></defs></svg>