<svg width="20" height="20" fill="none" xmlns="http://www.w3.org/2000/svg"><path d="M8.84942 19.9999C7.728 19.9686 6.62527 19.72 5.60929 19.2696C2.99606 18.2167 0.664648 15.1471 1.28738 11.8333C1.67943 9.74589 3.72946 7.67959 5.4851 6.88767C8.89732 5.35005 12.942 6.89163 14.8935 10.4757C15.6841 11.9284 15.7139 13.7579 14.9763 15.6283C14.4382 16.9929 13.296 18.7801 11.8463 19.3286C10.9043 19.7383 9.88554 19.9665 8.84942 19.9999ZM8.26389 9.99812C7.88543 9.99994 7.5123 10.0827 7.17238 10.2402C6.33851 10.6162 5.28001 11.7902 5.14979 12.4852C4.85168 14.0731 6.26922 15.5015 7.14634 15.855C8.70525 16.4831 9.13916 16.3546 10.2865 15.9214C10.8748 15.4544 12.0384 13.3379 11.4073 12.1797C10.8655 11.1831 9.67724 9.99812 8.26389 9.99812Z" fill="#F29DA9"/><path d="M5.44695 2.06232C5.16527 1.82028 4.83441 1.63513 4.47458 1.5182C4.11475 1.40126 3.7335 1.35499 3.35414 1.38222C2.86897 1.41923 2.39639 1.54695 1.96371 1.75799C1.53104 1.96903 1.14688 2.25919 0.833468 2.61169C0.468807 3.02832 0.213413 3.52067 0.0881327 4.04854C-0.0371473 4.57642 -0.0287555 5.12485 0.112615 5.64907C0.215679 6.04192 0.413193 6.40694 0.689766 6.71568C0.970041 7.00547 1.30812 7.2399 1.68454 7.40547C2.24155 7.69184 2.85324 7.87037 3.4839 7.93063C3.56762 7.93635 3.65087 7.93943 3.73272 7.93943C4.11979 7.94638 4.50439 7.87983 4.86384 7.74374C5.22329 7.60765 5.5503 7.40477 5.82553 7.14707C6.12849 6.84437 6.35869 6.48322 6.50035 6.08839C6.75698 5.393 6.79402 4.64191 6.60695 3.92691C6.41988 3.21191 6.01679 2.56399 5.44695 2.06232Z" fill="#F29DA9"/><path d="M13.5416 2.66677C13.3951 2.18255 12.7952 0.571861 11.2339 0.142666C10.5553 -0.052042 9.83014 -0.0473485 9.15434 0.156126C8.47854 0.359601 7.88383 0.752291 7.44872 1.28235C7.18055 1.59278 6.98339 1.95253 6.86971 2.33883C6.7843 2.6628 6.75616 2.99792 6.78646 3.33059C6.81174 3.85038 6.94756 4.36 7.18577 4.82895C7.42399 5.2979 7.75971 5.71655 8.17284 6.05983C8.74993 6.5074 9.47307 6.75179 10.2191 6.75139C10.7664 6.75441 11.304 6.61524 11.7734 6.34904C12.5196 5.86347 13.0892 5.17166 13.4044 4.36814C13.5221 4.13646 13.602 3.88918 13.6411 3.63477C13.6791 3.30906 13.6452 2.97944 13.5416 2.66677Z" fill="#F29DA9"/><path d="M18.8679 5.25909C18.4614 4.76069 17.9238 4.37196 17.3089 4.13173C16.694 3.8915 16.0232 3.80817 15.3636 3.89007C14.9246 3.9553 14.5052 4.1081 14.1332 4.33835C13.7613 4.56861 13.4453 4.87105 13.2062 5.22564C12.7867 5.86229 12.596 6.61029 12.6625 7.35796C12.6924 7.89588 12.8785 8.41557 13.2001 8.85993C13.5333 9.27627 13.9629 9.61479 14.4558 9.8495C14.8548 10.0741 15.2888 10.2375 15.7417 10.3337C15.9393 10.3708 16.1403 10.3896 16.3417 10.3896C16.9909 10.3853 17.6243 10.1999 18.1628 9.85667C18.7013 9.51343 19.1209 9.02755 19.3693 8.45979C19.5937 7.93224 19.6656 7.35761 19.5775 6.79505C19.4893 6.23249 19.2444 5.70231 18.8679 5.25909Z" fill="#F29DA9"/></svg>