<svg width="80" height="80" fill="none" xmlns="http://www.w3.org/2000/svg"><g clip-path="url(#clip0_502_1856)"><path d="M39.9999 78.4727C61.2479 78.4727 78.4729 61.2478 78.4729 39.9997C78.4729 18.7517 61.2479 1.52673 39.9999 1.52673C18.7518 1.52673 1.52686 18.7517 1.52686 39.9997C1.52686 61.2478 18.7518 78.4727 39.9999 78.4727Z" fill="#E6EDBB"/><path d="M39.9737 79.9997C19.0097 79.9997 1.35371 63.6107 0.0737087 42.4107C-1.25629 20.3957 15.5727 1.4027 37.5887 0.0737048C59.6017 -1.2563 78.5967 15.5737 79.9267 37.5887C81.2567 59.6047 64.4267 78.5967 42.4117 79.9267C41.5957 79.9757 40.7817 80.0007 39.9747 80.0007L39.9737 79.9997ZM40.0227 3.0517C39.2767 3.0517 38.5267 3.0747 37.7717 3.1197C17.4367 4.3477 1.89171 21.8917 3.11971 42.2267C4.34771 62.5627 21.8907 78.1067 42.2277 76.8797C62.5617 75.6517 78.1067 58.1067 76.8807 37.7717C75.6967 18.1917 59.3867 3.0517 40.0237 3.0517H40.0227Z" fill="#4E4D4D"/><path d="M36.0288 26.8678C35.4888 26.8678 34.9648 26.5798 34.6878 26.0718C34.2778 25.3198 33.3358 24.7008 32.1688 24.4168C30.9208 24.1138 29.5258 24.1748 28.2058 24.2868C25.6588 24.5018 23.1128 24.9208 20.6378 25.5308C20.4858 25.5688 20.3338 25.6068 20.1818 25.6448C19.1398 25.9068 18.0608 26.1788 16.8968 26.2438C13.7918 26.4158 10.9408 25.0668 8.64877 23.9818C7.88677 23.6208 7.56177 22.7118 7.92277 21.9498C8.28377 21.1878 9.19277 20.8628 9.95477 21.2238C12.0378 22.2098 14.3998 23.3268 16.7268 23.1968C17.5998 23.1478 18.4928 22.9228 19.4378 22.6848C19.5948 22.6448 19.7518 22.6058 19.9078 22.5668C22.5378 21.9178 25.2438 21.4728 27.9498 21.2438C29.5268 21.1108 31.2178 21.0428 32.8908 21.4498C34.9088 21.9408 36.5408 23.0928 37.3678 24.6098C37.7708 25.3498 37.4978 26.2768 36.7588 26.6798C36.5268 26.8058 36.2768 26.8658 36.0298 26.8658L36.0288 26.8678Z" fill="#2EA7E0"/><path d="M13.4268 36.3558C12.2788 36.3558 11.1318 36.2638 10.0338 36.1428C9.19582 36.0508 8.59182 35.2968 8.68382 34.4598C8.77582 33.6218 9.53082 33.0188 10.3668 33.1098C13.3368 33.4358 16.3718 33.5348 18.4448 32.0638C19.4388 31.3588 20.1748 30.2988 20.9538 29.1768C21.5448 28.3258 22.1548 27.4458 22.9268 26.6428C25.8038 23.6478 30.4928 22.4208 34.5978 23.5918C35.4078 23.8228 35.8778 24.6668 35.6468 25.4778C35.4158 26.2878 34.5718 26.7588 33.7608 26.5268C30.7598 25.6718 27.2098 26.5888 25.1278 28.7568C24.5238 29.3858 24.0078 30.1298 23.4608 30.9178C22.5668 32.2058 21.6418 33.5388 20.2118 34.5538C18.2408 35.9528 15.8328 36.3578 13.4278 36.3578L13.4268 36.3558Z" fill="#F39800"/><path d="M34.0117 24.7898C36.4487 24.8398 67.2937 51.8758 66.6207 54.7928C64.3157 64.7868 34.9177 72.8308 25.0107 66.7008C21.3917 64.4618 31.5747 24.7398 34.0107 24.7898H34.0117Z" fill="#5DB47E"/><path d="M34.9408 70.3768C30.7128 70.3768 26.9078 69.6688 24.2088 67.9988C23.0688 67.2938 22.6268 65.6978 22.7308 62.6628C22.8038 60.5448 23.1438 57.7208 23.7428 54.2718C24.7938 48.2138 26.6148 40.5008 28.4928 34.1418C29.3648 31.1888 30.1988 28.7108 30.9038 26.9748C31.8898 24.5468 32.6838 23.2418 34.0428 23.2648C34.6118 23.2768 35.3198 23.2908 39.9688 26.9348C42.5628 28.9678 45.9198 31.7778 49.4208 34.8468C55.7368 40.3828 63.5778 47.7018 66.6448 51.6388C67.9048 53.2568 68.3148 54.2368 68.1078 55.1368C66.8548 60.5708 59.6008 64.3288 55.3888 66.0848C49.3158 68.6168 41.6038 70.3778 34.9408 70.3778V70.3768ZM25.9688 65.4958C31.2308 68.5808 43.8248 67.5988 54.2148 63.2668C60.1878 60.7768 64.2078 57.5998 65.0648 54.7148C64.4388 53.4088 60.1388 48.5318 50.2288 39.6398C42.8888 33.0548 36.6218 28.0138 34.3948 26.6298C33.2928 28.7498 30.9478 35.7178 28.6558 45.5388C25.7298 58.0758 25.4428 64.2538 25.9698 65.4948L25.9688 65.4958Z" fill="#4E4D4D"/><path d="M32.2527 57.7248L39.7757 55.6868L45.9957 60.1338L46.0637 53.0358L52.5997 49.1458L45.1197 46.7978L42.9397 39.9468L38.2487 45.5928L30.3647 45.2488L34.9457 51.0868L32.2527 57.7248Z" fill="#F9F285"/><path d="M48.2489 23.8179C48.1329 23.8179 48.0159 23.8009 47.8999 23.7659C47.2669 23.5729 46.9089 22.9039 47.1019 22.2699L49.3838 14.7679C49.5768 14.1339 50.2469 13.7769 50.8799 13.9699C51.5129 14.1629 51.8709 14.8319 51.6779 15.4659L49.3959 22.9679C49.2389 23.4849 48.7629 23.8179 48.2489 23.8179V23.8179Z" fill="#E83828"/><path d="M57.1299 27.4078C57.0129 27.4078 56.8939 27.3908 56.7759 27.3548C56.1429 27.1598 55.7879 26.4888 55.9829 25.8558C56.3419 24.6908 56.8499 23.3638 57.3419 22.0818C57.8189 20.8358 58.3129 19.5478 58.6489 18.4588C58.8439 17.8258 59.5159 17.4708 60.1479 17.6658C60.7809 17.8608 61.1359 18.5318 60.9409 19.1648C60.5819 20.3298 60.0739 21.6568 59.5819 22.9388C59.1049 24.1848 58.6109 25.4728 58.2749 26.5618C58.1159 27.0768 57.6419 27.4078 57.1299 27.4078Z" fill="#E83828"/><path d="M45.8828 26.4938C45.6218 26.4938 45.3628 26.4468 45.1118 26.3508C44.4228 26.0868 43.9458 25.4938 43.8028 24.7258C43.6388 23.8428 43.9518 22.8948 44.5998 22.3108C45.5148 21.4868 46.6958 21.3968 47.7338 21.4188C47.9738 21.4238 48.1958 21.4988 48.3808 21.6248C48.5798 21.6568 48.7738 21.7398 48.9428 21.8748C49.4578 22.2908 49.5388 23.0448 49.1238 23.5608C49.0148 23.6958 48.9128 23.9128 48.8048 24.1428C48.6428 24.4878 48.4598 24.8778 48.1508 25.2518C47.4818 26.0618 46.6738 26.4948 45.8838 26.4948L45.8828 26.4938Z" fill="#E83828"/><path d="M59.7249 19.6158C59.5649 19.6158 59.4019 19.5838 59.2459 19.5158L50.5069 15.6998C49.8999 15.4348 49.6229 14.7278 49.8879 14.1218C50.1529 13.5158 50.8589 13.2378 51.4659 13.5028L60.2049 17.3188C60.8119 17.5838 61.0889 18.2908 60.8239 18.8968C60.6269 19.3478 60.1869 19.6158 59.7249 19.6158V19.6158Z" fill="#E83828"/><path d="M54.9929 30.1239C54.8059 30.1239 54.6179 30.0989 54.4309 30.0489C53.7189 29.8569 53.1839 29.3169 52.9629 28.5669C52.7089 27.7059 52.9229 26.7299 53.5069 26.0829C54.3319 25.1689 55.4989 24.9589 56.5319 24.8729C56.7709 24.8529 56.9999 24.9049 57.1969 25.0109C57.3989 25.0219 57.5999 25.0849 57.7819 25.2019C58.3369 25.5619 58.4959 26.3049 58.1349 26.8599C58.0399 27.0059 57.9619 27.2319 57.8779 27.4709C57.7519 27.8309 57.6099 28.2379 57.3409 28.6419C56.7049 29.5969 55.8559 30.1229 54.9929 30.1229V30.1239Z" fill="#E83828"/><path d="M58.0928 22.5229C57.9608 22.5229 57.8278 22.5009 57.6958 22.4549C54.9668 21.4979 52.2778 20.3429 49.7048 19.0219C49.1158 18.7199 48.8828 17.9969 49.1858 17.4079C49.4888 16.8189 50.2108 16.5869 50.7998 16.8889C53.2768 18.1599 55.8638 19.2719 58.4898 20.1929C59.1148 20.4119 59.4438 21.0959 59.2238 21.7209C59.0508 22.2149 58.5878 22.5239 58.0928 22.5239V22.5229Z" fill="#E83828"/></g><defs><clipPath id="clip0_502_1856"><rect width="80" height="80" fill="white"/></clipPath></defs></svg>