<svg width="80" height="80" fill="none" xmlns="http://www.w3.org/2000/svg"><g clip-path="url(#clip0_502_1852)"><path d="M40.0012 78.4756C61.2498 78.4756 78.4751 61.2502 78.4751 40.0017C78.4751 18.7532 61.2498 1.52783 40.0012 1.52783C18.7527 1.52783 1.52734 18.7532 1.52734 40.0017C1.52734 61.2502 18.7527 78.4756 40.0012 78.4756Z" fill="#FBDED9"/><path d="M39.9755 80.0017C19.01 80.0037 1.35463 63.6124 0.0736032 42.4129C-1.25543 20.3974 15.574 1.40394 37.5905 0.0749144C48.2527 -0.5711 58.5329 2.97798 66.5301 10.0641C74.5263 17.1493 79.2854 26.9255 79.9294 37.5908C81.2595 59.6063 64.4291 78.5987 42.4136 79.9287C41.5975 79.9777 40.7835 80.0027 39.9765 80.0027L39.9755 80.0017ZM40.0515 3.05198C39.2945 3.05198 38.5365 3.07498 37.7745 3.12098C17.438 4.34901 1.89264 21.8924 3.12067 42.2289C4.3037 61.8103 20.6141 76.9497 39.9775 76.9497C40.7235 76.9497 41.4735 76.9277 42.2286 76.8817C62.565 75.6536 78.1104 58.1102 76.8824 37.7738C76.2873 27.9225 71.8922 18.8923 64.5051 12.3472C57.6899 6.30806 49.0797 3.05098 40.0515 3.05098V3.05198Z" fill="#4E4D4D"/><path d="M21.9658 58.7671L18.3677 35.1946C18.3677 33.8906 20.5067 33.6656 21.8088 33.6656L58.0726 33.2475C59.3746 33.2475 62.4467 32.8385 62.4467 34.1426L60.6346 58.1691C60.6046 69.3404 24.1798 71.4214 21.9648 58.7671H21.9658Z" fill="#E79D4D"/><path d="M40.5003 68.9594C31.0811 68.9594 21.6899 66.0443 20.4619 59.0311C20.4599 59.0201 20.4579 59.0091 20.4569 58.9981L16.8588 35.4256C16.8468 35.3496 16.8418 35.2726 16.8418 35.1956C16.8418 34.2766 17.3258 32.1405 21.8079 32.1405L58.0547 31.7225C58.2647 31.7225 58.5327 31.7105 58.8168 31.6985C60.7598 31.6125 62.3258 31.6205 63.2899 32.5425C63.7299 32.9635 63.9729 33.5326 63.9729 34.1436C63.9729 34.1816 63.9719 34.2206 63.9689 34.2586L62.1608 58.2331C62.0878 64.9123 52.5756 68.0963 44.4324 68.7924C43.1364 68.9034 41.8184 68.9604 40.5003 68.9604V68.9594ZM23.4709 58.5201C24.497 64.2783 34.9002 66.5443 44.1724 65.7513C52.8176 65.0123 59.0988 61.8222 59.1088 58.1661C59.1088 58.1291 59.1098 58.0921 59.1128 58.0551L60.8698 34.7456C60.2968 34.6876 59.3968 34.7276 58.9498 34.7476C58.6308 34.7616 58.3297 34.7746 58.0707 34.7746L21.8239 35.1926C20.8249 35.1926 20.2319 35.3286 19.9459 35.4356L23.4699 58.5211L23.4709 58.5201Z" fill="#4E4D4D"/><path d="M40.4062 39.9867C52.5783 39.9867 62.4457 37.3702 62.4457 34.1426C62.4457 30.915 52.5783 28.2985 40.4062 28.2985C28.2341 28.2985 18.3667 30.915 18.3667 34.1426C18.3667 37.3702 28.2341 39.9867 40.4062 39.9867Z" fill="#A46E33"/><path d="M40.4064 41.5129C34.3912 41.5129 28.7181 40.8869 24.431 39.7499C19.3949 38.4148 16.8408 36.5278 16.8408 34.1427C16.8408 31.7577 19.3949 29.8707 24.431 28.5356C28.7181 27.3986 34.3912 26.7726 40.4064 26.7726C46.4215 26.7726 52.0956 27.3986 56.3817 28.5356C61.4178 29.8717 63.9719 31.7577 63.9719 34.1427C63.9719 36.5278 61.4178 38.4148 56.3817 39.7499C52.0946 40.8869 46.4215 41.5129 40.4064 41.5129V41.5129ZM40.4064 29.8247C34.6472 29.8247 29.2521 30.4147 25.213 31.4857C20.8389 32.6457 19.8929 33.8957 19.8929 34.1438C19.8929 34.3918 20.8399 35.6418 25.213 36.8018C29.2521 37.8728 34.6472 38.4629 40.4064 38.4629C46.1655 38.4629 51.5606 37.8728 55.5997 36.8018C59.9738 35.6418 60.9198 34.3918 60.9198 34.1438C60.9198 33.8957 59.9728 32.6457 55.5997 31.4857C51.5606 30.4147 46.1655 29.8247 40.4064 29.8247Z" fill="#4E4D4D"/><path d="M40.0282 19.0494C39.5722 22.6015 34.4931 24.7925 28.6839 23.9425C22.8748 23.0925 18.9897 18.8644 18.9907 15.9713C18.9907 13.6593 24.5258 10.2282 30.335 11.0782C36.1441 11.9283 40.4842 15.4973 40.0282 19.0494Z" fill="#FAEE00"/><path d="M31.1641 25.6515C30.2811 25.6515 29.3761 25.5865 28.4631 25.4525C21.9799 24.5035 17.4638 19.6944 17.4658 15.9703C17.4658 14.8142 18.1308 13.6292 19.3879 12.5432C21.6589 10.5812 25.994 8.90011 30.5571 9.56813C37.2873 10.5532 42.1124 14.8032 41.5424 19.2433C41.3374 20.8424 40.4543 22.2744 38.9893 23.3854C37.0503 24.8565 34.2412 25.6505 31.1651 25.6505L31.1641 25.6515ZM28.4761 12.4702C25.609 12.4702 23.0039 13.5282 21.5179 14.7402C20.7089 15.3993 20.5229 15.8813 20.5179 15.9753C20.5179 18.0563 23.862 21.6964 28.9061 22.4344C32.1582 22.9104 35.3152 22.3444 37.1453 20.9564C37.9543 20.3424 38.4163 19.6364 38.5153 18.8573C38.8153 16.5183 35.4392 13.3692 30.1151 12.5902C29.5631 12.5092 29.0161 12.4722 28.4771 12.4722L28.4761 12.4702Z" fill="#4E4D4D"/><path d="M62.4464 17.2383C62.4354 19.6793 58.0683 23.4824 52.2182 23.8944C46.368 24.3064 41.4609 21.9954 41.2589 18.7313C41.0569 15.4672 45.999 11.6481 51.8492 11.2361C57.6993 10.8241 62.4554 15.2322 62.4464 17.2383V17.2383Z" fill="#22AC38"/><path d="M50.8572 25.4685C47.1421 25.4685 43.8161 24.4545 41.766 22.6584C40.526 21.5724 39.824 20.2474 39.736 18.8253C39.47 14.5182 45.1921 10.1751 51.7422 9.71313C57.0774 9.33712 60.7614 12.3702 61.7635 13.3082C62.5915 14.0832 63.9795 15.6253 63.9725 17.2433C63.9575 20.6434 58.8664 24.9535 52.3253 25.4145C51.8302 25.4495 51.3402 25.4665 50.8572 25.4665V25.4685ZM52.6503 12.7342C52.4223 12.7342 52.1913 12.7422 51.9572 12.7582C46.5381 13.1402 42.656 16.5883 42.782 18.6373C42.819 19.2373 43.154 19.8174 43.7771 20.3634C45.4441 21.8234 48.7162 22.6124 52.1113 22.3724C57.4774 21.9944 60.8994 18.5893 60.9214 17.2403C60.8134 16.2613 57.4564 12.7342 52.6513 12.7342H52.6503Z" fill="#4E4D4D"/><path d="M40.4052 35.6686C40.1122 35.6686 39.8162 35.5846 39.5552 35.4086C38.8562 34.9386 38.6712 33.9896 39.1412 33.2906C39.3792 32.9366 39.6672 32.7026 39.9212 32.4956C40.4442 32.0695 41.0903 31.5435 41.1123 28.9985C40.5832 27.6454 39.3172 24.3654 39.1482 23.5054C38.8472 21.9713 39.1022 20.3503 39.8652 18.9392C40.2662 18.1982 41.1923 17.9222 41.9333 18.3232C42.6743 18.7242 42.9503 19.6503 42.5493 20.3913C42.1223 21.1803 41.9783 22.0773 42.1433 22.9173C42.2423 23.3924 43.2143 26.0044 44.0583 28.1505C44.1263 28.3245 44.1623 28.5085 44.1643 28.6955C44.1983 32.6186 42.9873 33.9356 41.8493 34.8616C41.7803 34.9176 41.6883 34.9926 41.6483 35.0306C41.3513 35.4446 40.8833 35.6686 40.4062 35.6686H40.4052Z" fill="#4E4D4D"/></g><defs><clipPath id="clip0_502_1852"><rect width="80" height="80" fill="white"/></clipPath></defs></svg>