<svg width="80" height="80" fill="none" xmlns="http://www.w3.org/2000/svg"><g clip-path="url(#clip0_502_1855)"><path d="M39.9999 78.4731C61.2479 78.4731 78.4729 61.2482 78.4729 40.0001C78.4729 18.7521 61.2479 1.5271 39.9999 1.5271C18.7518 1.5271 1.52686 18.7521 1.52686 40.0001C1.52686 61.2482 18.7518 78.4731 39.9999 78.4731Z" fill="#FAF3C3"/><path d="M39.974 80.0001C19.009 80.0001 1.35395 63.6111 0.0739529 42.4111C-1.25605 20.3961 15.573 1.40305 37.589 0.0740521C59.6 -1.25695 78.597 15.5741 79.927 37.5891C81.257 59.6041 64.427 78.5971 42.412 79.9271C41.596 79.9761 40.781 80.0011 39.975 80.0011L39.974 80.0001ZM40.024 3.05205C39.278 3.05205 38.528 3.07405 37.773 3.12005C17.437 4.34805 1.89195 21.8921 3.11995 42.2271C4.34795 62.5621 21.887 78.1101 42.228 76.8801C62.562 75.6521 78.107 58.1071 76.881 37.7731C75.697 18.1921 59.387 3.05205 40.024 3.05205V3.05205Z" fill="#4E4D4D"/><path d="M9.95794 34.3821C8.40394 31.2891 7.31594 21.0221 13.6119 16.6341C18.9259 12.9311 25.5069 16.0401 27.5709 18.3371C28.3659 13.4061 33.4409 10.4591 38.1039 10.0281C48.1309 9.10113 50.6099 16.9941 50.3619 24.1881C50.0629 32.8461 44.1119 44.9081 37.3509 49.1271C33.6989 51.4061 17.0119 48.4241 9.95894 34.3811L9.95794 34.3821Z" fill="#EB6452"/><path d="M33.868 51.3481C32.024 51.3481 29.854 51.0261 27.563 50.3831C23.616 49.2751 13.867 45.5631 8.594 35.0671C6.873 31.6411 5.541 20.3991 12.738 15.3831C17.658 11.9541 23.43 13.5441 26.763 15.7111C28.692 11.3141 33.627 8.9111 37.962 8.5101C42.079 8.1291 45.385 9.0871 47.789 11.3561C51.424 14.7871 52.022 20.2571 51.885 24.2411C51.732 28.6611 50.183 34.0471 47.635 39.0181C44.969 44.2211 41.602 48.2711 38.156 50.4221C37.166 51.0401 35.672 51.3481 33.867 51.3481H33.868ZM19.178 16.4301C17.621 16.4301 15.997 16.8311 14.484 17.8861C8.823 21.8321 10.142 31.3501 11.321 33.6971C16.048 43.1081 24.831 46.4471 28.388 47.4451C32.797 48.6831 35.729 48.3401 36.541 47.8331C39.482 45.9981 42.536 42.2771 44.92 37.6271C47.271 33.0401 48.698 28.1231 48.835 24.1361C48.93 21.3891 48.648 16.3631 45.695 13.5751C43.956 11.9341 41.45 11.2511 38.243 11.5481C34.19 11.9231 29.74 14.4591 29.076 18.5801C28.982 19.1601 28.564 19.6351 28 19.8011C27.436 19.9671 26.827 19.7941 26.434 19.3571C25.359 18.1601 22.411 16.4301 19.177 16.4301H19.178Z" fill="#4E4D4D"/><path d="M37.9678 40.8721C26.3668 40.8721 18.1158 55.8461 18.0068 62.5701C17.9028 68.9661 23.3258 74.4241 37.9678 73.9821C48.9168 73.6521 57.9388 73.6481 57.9318 61.3701C57.9308 59.0541 50.3268 40.8721 37.9678 40.8721Z" fill="#F7F6F0"/><path d="M36.3179 75.5331C28.6319 75.5331 23.0489 73.8671 19.7079 70.5711C17.5459 68.4391 16.4299 65.6641 16.4809 62.5451C16.5459 58.5771 18.9519 52.8401 22.4689 48.2691C26.8959 42.5151 32.3999 39.3461 37.9679 39.3461C45.1729 39.3461 50.5689 44.7951 53.8269 49.3671C57.2629 54.1881 59.4569 59.6961 59.4579 61.3701C59.4609 67.4691 57.3229 71.4171 52.9219 73.4421C49.1489 75.1781 44.0729 75.3281 38.6979 75.4871L38.0139 75.5071C37.4379 75.5241 36.8719 75.5331 36.3179 75.5331ZM37.9679 42.3981C31.7619 42.3981 27.1089 47.2421 24.8869 50.1301C21.2709 54.8311 19.5759 59.8861 19.5319 62.5951C19.4949 64.8921 20.2739 66.8451 21.8499 68.3991C24.7739 71.2831 30.3349 72.6871 37.9219 72.4581L38.6079 72.4381C50.3069 72.0921 56.4119 71.4421 56.4069 61.3721C56.3629 60.5771 54.6689 55.7611 51.2499 51.0091C48.4239 47.0811 43.8249 42.3991 37.9689 42.3991L37.9679 42.3981Z" fill="#4E4D4D"/><path d="M28.9851 72.9331C28.9851 67.9621 28.9851 63.2801 29.1581 57.4401C34.4331 57.4771 39.7091 57.5151 44.9841 57.5521C45.2211 57.5541 45.4681 57.5581 45.6801 57.6671C46.1531 57.9111 46.2381 58.5421 46.2641 59.0761C46.4941 63.7581 46.7231 68.4401 46.9531 73.1231" fill="#727171"/><path d="M46.951 74.6471C46.143 74.6471 45.468 74.0121 45.428 73.1961L44.739 59.1491C44.738 59.1231 44.736 59.0981 44.735 59.0751L30.642 58.9751C30.511 64.1161 30.511 68.4101 30.511 72.9321C30.511 73.7751 29.828 74.4581 28.985 74.4581C28.142 74.4581 27.459 73.7751 27.459 72.9321C27.459 67.9561 27.459 63.2561 27.632 57.3941C27.656 56.5691 28.333 55.9131 29.157 55.9131H29.168L44.994 56.0251C45.31 56.0271 45.839 56.0311 46.379 56.3101C47.689 56.9861 47.763 58.5021 47.787 59.0001L48.476 73.0471C48.517 73.8891 47.868 74.6041 47.027 74.6461C47.001 74.6471 46.976 74.6481 46.951 74.6481V74.6471Z" fill="#4E4D4D"/><path d="M48.9081 33.316C50.1521 31.173 54.3091 26.256 62.0941 30.372C64.0141 31.387 64.9031 33.86 64.7371 36.062C67.6971 34.14 71.7591 35.46 74.3081 37.756C79.7891 42.695 76.9211 47.784 73.0571 51.077C68.4061 55.04 59.1691 57.592 53.6051 55.973C50.6001 55.099 43.2881 42.996 48.9081 33.316V33.316Z" fill="#E999A4"/><path d="M57.4859 57.986C55.9229 57.986 54.4579 57.811 53.1779 57.439C51.1599 56.852 48.6169 53.612 46.9939 49.559C45.5789 46.026 43.7759 39.118 47.5879 32.551C48.1219 31.631 49.6609 29.358 52.4179 28.108C54.5439 27.144 58.0719 26.521 62.8069 29.024C64.6799 30.014 65.7259 31.903 66.1099 33.826C69.3869 33.015 72.9939 34.519 75.3289 36.623C77.7159 38.774 78.9079 41.158 78.8729 43.71C78.8219 47.403 76.2199 50.387 74.0459 52.239C69.9399 55.738 63.0839 57.986 57.4859 57.987V57.986ZM56.4389 30.323C52.7799 30.323 50.8509 33.008 50.2269 34.082C47.0639 39.53 48.6179 45.406 49.8269 48.424C51.3749 52.29 53.4609 54.343 54.0299 54.508C58.8759 55.918 67.6419 53.686 72.0659 49.915C73.4519 48.734 75.7839 46.351 75.8209 43.666C75.8439 42.032 74.9909 40.425 73.2859 38.889C71.1829 36.994 67.8569 35.854 65.5679 37.341C65.0809 37.657 64.4579 37.669 63.9589 37.374C63.4599 37.078 63.1719 36.525 63.2149 35.947C63.3319 34.391 62.7399 32.44 61.3799 31.721C59.4679 30.71 57.8279 30.322 56.4379 30.322L56.4389 30.323Z" fill="#4E4D4D"/></g><defs><clipPath id="clip0_502_1855"><rect width="80" height="80" fill="white"/></clipPath></defs></svg>