<svg width="80" height="80" fill="none" xmlns="http://www.w3.org/2000/svg"><g clip-path="url(#clip0_502_1858)"><path d="M39.9999 78.473C61.2479 78.473 78.4729 61.248 78.4729 40C78.4729 18.7519 61.2479 1.52698 39.9999 1.52698C18.7518 1.52698 1.52686 18.7519 1.52686 40C1.52686 61.248 18.7518 78.473 39.9999 78.473Z" fill="#CCE5E1"/><path d="M39.974 79.9999C19.009 79.9999 1.35395 63.611 0.0739529 42.4109C-1.25605 20.396 15.573 1.40295 37.589 0.0739489C59.599 -1.25605 78.597 15.574 79.927 37.589C81.257 59.605 64.427 78.5969 42.412 79.9269C41.596 79.9759 40.782 80.0009 39.975 80.0009L39.974 79.9999ZM40.024 3.05195C39.278 3.05195 38.528 3.07495 37.773 3.11995C17.437 4.34795 1.89195 21.892 3.11995 42.227C4.34795 62.562 21.887 78.1079 42.228 76.8799C62.562 75.6519 78.107 58.1069 76.881 37.7719C75.697 18.1919 59.387 3.05195 40.024 3.05195V3.05195Z" fill="#4E4D4D"/><path d="M56.7039 34.648C56.7039 40.994 52.2149 45.156 48.8869 50.063C47.0689 52.742 48.4389 54.137 46.9099 57.521C45.8129 59.948 42.2549 64.986 41.0519 64.986C39.5949 64.986 34.6619 60.598 33.0919 57.359C31.0249 53.095 32.7789 52.484 30.6039 50.063C26.9659 46.015 23.2969 40.497 23.2969 34.648C23.2969 25.423 30.7759 17.944 40.0009 17.944C49.2259 17.944 56.7049 25.423 56.7049 34.648H56.7039Z" fill="#FFF794"/><path d="M47.453 39.377C47.108 39.377 46.765 39.228 46.528 38.941C46.495 38.908 46.28 38.832 45.919 38.89C45.708 38.924 45.477 38.989 45.232 39.057C44.873 39.157 44.466 39.27 44.021 39.316C42.846 39.436 41.618 39.038 40.738 38.252C40.665 38.187 40.594 38.118 40.523 38.05C40.447 37.976 40.332 37.865 40.285 37.839C40.289 37.844 40.065 37.837 39.54 38.199L39.434 38.272C38.802 38.712 37.936 39.315 36.838 39.195C36.147 39.119 35.628 38.783 35.211 38.512C35.066 38.418 34.93 38.33 34.81 38.268C34.2 37.955 33.314 38.138 32.877 38.667C32.456 39.177 31.7 39.25 31.189 38.828C30.679 38.406 30.607 37.651 31.028 37.14C32.187 35.737 34.283 35.304 35.902 36.134C36.13 36.251 36.334 36.383 36.514 36.5C36.729 36.639 36.973 36.797 37.098 36.811C37.303 36.828 37.741 36.527 38.062 36.304L38.174 36.226C39.339 35.421 40.397 35.236 41.317 35.674C41.705 35.859 41.983 36.128 42.186 36.324C42.235 36.371 42.283 36.418 42.333 36.462C42.72 36.807 43.259 36.983 43.774 36.929C44.017 36.904 44.294 36.827 44.588 36.746C44.87 36.667 45.19 36.578 45.531 36.523C46.696 36.334 47.759 36.666 48.376 37.414C48.797 37.925 48.725 38.68 48.214 39.102C47.99 39.286 47.72 39.376 47.452 39.376L47.453 39.377Z" fill="#F39800"/><path d="M41.95 57.415C41.938 57.415 41.926 57.415 41.914 57.415C41.252 57.395 40.732 56.843 40.751 56.181C40.95 49.503 41.065 48.623 41.175 48.258C41.324 47.761 46.183 38.347 47.098 37.51C47.587 37.063 48.345 37.096 48.792 37.585C49.226 38.059 49.207 38.788 48.758 39.24C48.073 40.085 43.966 47.815 43.475 48.95C43.411 49.361 43.304 50.995 43.148 56.253C43.129 56.903 42.596 57.416 41.95 57.416V57.415ZM48.745 39.251C48.736 39.26 48.726 39.269 48.717 39.278C48.725 39.271 48.735 39.262 48.745 39.251Z" fill="#727171"/><path d="M37.8788 57.415C37.2328 57.415 36.7008 56.902 36.6808 56.252C36.5238 50.992 36.4168 49.359 36.3538 48.949C35.8638 47.814 31.7558 40.084 31.0708 39.239C30.6218 38.788 30.6028 38.059 31.0368 37.585C31.4838 37.096 32.2428 37.063 32.7308 37.51C33.6458 38.348 38.5038 47.761 38.6538 48.258C38.7638 48.622 38.8778 49.502 39.0778 56.181C39.0978 56.843 38.5768 57.395 37.9158 57.415C37.9038 57.415 37.8918 57.415 37.8798 57.415H37.8788ZM31.0838 39.251C31.0938 39.261 31.1038 39.27 31.1118 39.278C31.1018 39.269 31.0928 39.26 31.0838 39.251Z" fill="#727171"/><path d="M41.0509 66.402C39.6399 66.402 37.6059 64.782 36.1469 63.423C35.2199 62.559 32.9409 60.298 31.8159 57.977C30.7089 55.694 30.5809 54.289 30.4869 53.263C30.3999 52.311 30.3639 51.917 29.5489 51.01C24.4599 45.347 21.8789 39.842 21.8789 34.648C21.8789 24.656 30.0079 16.527 39.9999 16.527C49.9919 16.527 58.1209 24.656 58.1209 34.648C58.1209 40.079 55.1679 43.988 52.3129 47.768C51.5539 48.773 50.7679 49.813 50.0589 50.858C49.3139 51.956 49.2649 52.694 49.1899 53.812C49.1169 54.909 49.0259 56.275 48.1999 58.104C47.6069 59.415 46.4109 61.343 45.1509 63.016C42.9089 65.993 41.8559 66.403 41.0509 66.403V66.402ZM39.9989 19.361C31.5699 19.361 24.7119 26.219 24.7119 34.648C24.7119 40.22 28.4879 45.591 31.6559 49.116C33.0989 50.722 33.2049 51.883 33.3079 53.005C33.3899 53.904 33.4829 54.923 34.3649 56.741C35.7169 59.528 39.6639 62.953 40.9379 63.508C41.9749 62.738 44.6009 59.185 45.6169 56.938C46.2319 55.576 46.2949 54.628 46.3619 53.625C46.4439 52.396 46.5369 51.003 47.7129 49.269C48.4629 48.164 49.2699 47.095 50.0509 46.062C52.7429 42.497 55.2869 39.13 55.2869 34.649C55.2869 26.22 48.4289 19.362 39.9999 19.362L39.9989 19.361Z" fill="#4E4D4D"/><path d="M33.0908 65.6049V57.0189C36.5898 58.1549 44.3558 57.9929 46.9088 57.0189V65.6049C46.9088 67.5519 42.7438 67.8109 42.1718 69.4129C41.7678 70.5459 38.7738 70.5459 38.2078 69.4939C37.4308 68.0519 33.0908 67.0669 33.0908 65.6049V65.6049Z" fill="#C9CACA"/><path d="M40.2108 71.6889C39.0108 71.6889 37.5708 71.2999 36.9598 70.1649C36.7638 69.8669 35.6668 69.3059 35.0108 68.9709C33.3698 68.1319 31.6738 67.2639 31.6738 65.6049V57.0189C31.6738 56.5659 31.8908 56.1389 32.2578 55.8729C32.6248 55.6059 33.0978 55.5319 33.5278 55.6709C36.7008 56.7009 44.1328 56.5609 46.4028 55.6949C46.8388 55.5289 47.3278 55.5879 47.7118 55.8519C48.0958 56.1159 48.3248 56.5529 48.3248 57.0189V65.6049C48.3248 67.5839 46.4188 68.4429 45.0268 69.0709C44.5188 69.2999 43.6738 69.6809 43.4958 69.9179C43.1208 70.9249 42.0738 71.5649 40.6168 71.6749C40.4858 71.6849 40.3498 71.6899 40.2108 71.6899V71.6889ZM39.3938 68.7159C39.7118 68.8899 40.5598 68.9059 40.9118 68.7499C41.4328 67.5819 42.7208 67.0019 43.8628 66.4869C44.3718 66.2579 45.3058 65.8369 45.4918 65.5689V58.8249C42.4998 59.3359 37.8218 59.3909 34.5078 58.8099V65.3949C34.8188 65.6899 35.7348 66.1589 36.3018 66.4489C37.5868 67.1069 38.8038 67.7289 39.3938 68.7159V68.7159Z" fill="#4E4D4D"/><path d="M10.991 41.619C10.335 41.619 9.72896 41.193 9.53096 40.532C9.28796 39.725 9.74596 38.874 10.553 38.631C11.256 38.419 12.164 38.223 13.125 38.016C14.322 37.757 15.678 37.464 16.426 37.169C17.21 36.859 18.096 37.245 18.405 38.029C18.714 38.813 18.329 39.699 17.545 40.008C16.566 40.394 15.144 40.702 13.769 40.999C12.869 41.194 12.019 41.377 11.432 41.554C11.286 41.598 11.137 41.619 10.992 41.619H10.991Z" fill="#FAEE00"/><path d="M28.9398 16.756C28.4748 16.756 28.0158 16.545 27.7158 16.144C26.9248 15.085 25.8538 14.232 24.7198 13.328C24.2928 12.988 23.8518 12.636 23.4188 12.267C22.7768 11.721 22.6998 10.758 23.2468 10.116C23.7938 9.47398 24.7558 9.39698 25.3978 9.94398C25.7928 10.28 26.1958 10.602 26.6228 10.942C27.8578 11.927 29.1358 12.944 30.1618 14.318C30.6668 14.993 30.5278 15.949 29.8528 16.454C29.5788 16.659 29.2578 16.758 28.9408 16.758L28.9398 16.756Z" fill="#FAEE00"/><path d="M53.531 18.6169C53.293 18.6169 53.052 18.5609 52.827 18.4439C52.08 18.0539 51.79 17.1329 52.18 16.3849C52.69 15.4069 53.352 14.5149 53.937 13.7269C54.533 12.9239 55.096 12.1649 55.361 11.5089C55.677 10.7279 56.567 10.3509 57.348 10.6669C58.129 10.9829 58.506 11.8729 58.19 12.6539C57.778 13.6709 57.071 14.6239 56.387 15.5459C55.845 16.2769 55.284 17.0319 54.886 17.7959C54.614 18.3179 54.082 18.6159 53.532 18.6159L53.531 18.6169Z" fill="#FAEE00"/><path d="M67.6929 42.555C67.5519 42.555 67.4089 42.535 67.2669 42.494C65.4229 41.958 64.7599 41.778 64.3639 41.67C63.9559 41.5586 62.9969 41.2623 61.4869 40.781L60.9959 40.624C60.1929 40.368 59.7499 39.509 60.0059 38.706C60.2629 37.903 61.1209 37.46 61.9239 37.716L62.4149 37.873C63.8829 38.3417 64.7996 38.6256 65.1649 38.725C65.5699 38.835 66.2479 39.02 68.1169 39.563C68.9259 39.798 69.3919 40.645 69.1559 41.454C68.9619 42.121 68.3529 42.555 67.6909 42.555H67.6929Z" fill="#FAEE00"/></g><defs><clipPath id="clip0_502_1858"><rect width="80" height="80" fill="white"/></clipPath></defs></svg>