<svg width="80" height="80" fill="none" xmlns="http://www.w3.org/2000/svg"><g clip-path="url(#clip0_502_1857)"><path d="M39.9999 78.473C61.2479 78.473 78.4729 61.248 78.4729 40C78.4729 18.7519 61.2479 1.52698 39.9999 1.52698C18.7518 1.52698 1.52686 18.7519 1.52686 40C1.52686 61.248 18.7518 78.473 39.9999 78.473Z" fill="#CDE3CC"/><path d="M39.974 80C19.01 80 1.35395 63.611 0.0739529 42.411C-1.25605 20.396 15.573 1.403 37.589 0.074C38.405 0.025 39.219 0 40.026 0C60.991 0 78.646 16.389 79.926 37.589C81.256 59.605 64.426 78.597 42.411 79.927C41.595 79.976 40.781 80.001 39.974 80.001V80ZM40.023 3.052C39.277 3.052 38.527 3.075 37.772 3.12C17.437 4.348 1.89195 21.892 3.11995 42.227C4.34795 62.563 21.896 78.105 42.228 76.88C62.564 75.652 78.109 58.108 76.881 37.772C75.698 18.192 59.388 3.052 40.024 3.052H40.023Z" fill="#4E4D4D"/><path d="M46.2571 17.077C44.4621 21.811 47.0531 26.632 52.0821 29.379C52.3121 29.505 48.6131 34.412 49.1471 34.456C56.2551 35.03 56.3661 30.865 57.0501 31.037C62.3661 32.375 68.4231 29.901 70.1491 25.732C72.0981 21.026 69.3171 15.516 63.3561 13.048C57.3951 10.58 48.6761 10.697 46.2571 17.078V17.077Z" fill="#D6BE55"/><path d="M50.441 36.036C49.996 36.036 49.524 36.017 49.024 35.977C48.467 35.932 47.971 35.593 47.728 35.092C47.239 34.081 47.784 33.265 49.591 30.561C49.725 30.36 49.876 30.135 50.021 29.915C45.071 26.606 42.99 21.386 44.829 16.537C45.758 14.088 47.575 12.22 50.085 11.136C54.646 9.16496 60.232 10.103 63.939 11.638C67.126 12.958 69.658 15.16 71.068 17.84C72.511 20.583 72.685 23.593 71.558 26.315C69.64 30.947 63.409 33.741 57.614 32.717C56.816 33.957 55.102 36.036 50.44 36.036H50.441ZM55.967 13.077C54.243 13.077 52.628 13.361 51.296 13.936C49.537 14.696 48.322 15.935 47.683 17.618C46.229 21.453 48.242 25.543 52.813 28.039L53.403 28.361L53.573 29.027C53.765 29.807 53.515 30.181 52.13 32.255C52 32.45 51.849 32.676 51.692 32.913C54.108 32.616 54.814 31.457 55.236 30.765C55.49 30.348 56.165 29.239 57.424 29.556C62.003 30.708 67.291 28.648 68.741 25.146C69.515 23.276 69.384 21.185 68.37 19.259C67.291 17.209 65.304 15.503 62.774 14.456C60.565 13.541 58.176 13.076 55.968 13.076L55.967 13.077Z" fill="#4E4D4D"/><path d="M38.6119 24.239C39.7129 29.378 36.3839 34.522 29.0179 36.806C28.6809 36.91 33.4339 42.262 33.4339 42.262C29.0249 44.252 23.4569 38.044 22.5129 38.128C15.1759 38.781 8.87893 35.804 7.81393 30.835C6.61293 25.226 12.5329 19.203 21.0379 17.382C29.5419 15.561 37.4109 18.631 38.6119 24.239V24.239Z" fill="#4C9E91"/><path d="M31.5729 44.181C28.3529 44.181 25.2089 41.829 23.3419 40.433C22.9819 40.164 22.5519 39.842 22.2959 39.677C14.2029 40.282 7.51592 36.729 6.32192 31.155C5.62992 27.924 6.82892 24.538 9.69792 21.619C12.4029 18.867 16.3159 16.833 20.7179 15.89C25.1199 14.947 29.5229 15.2 33.1179 16.603C36.9309 18.091 39.4119 20.689 40.1039 23.92C40.7439 26.908 40.0759 29.953 38.2229 32.493C36.6669 34.626 34.3349 36.357 31.4099 37.566C32.2539 38.592 33.4749 40.011 34.5759 41.249L35.9529 42.8L34.0629 43.653C33.2419 44.024 32.4049 44.18 31.5739 44.18L31.5729 44.181ZM22.5459 36.601C23.3129 36.601 23.9609 37.085 25.1699 37.99C26.4959 38.981 28.4209 40.421 30.2579 40.938C30.1789 40.846 30.0999 40.753 30.0209 40.66C27.5399 37.743 27.2849 37.306 27.5329 36.414C27.6749 35.904 28.0609 35.507 28.5659 35.35C34.7549 33.431 38.1119 29.195 37.1199 24.559C36.6499 22.365 34.8349 20.549 32.0089 19.446C28.9649 18.258 25.1819 18.055 21.3579 18.874C17.5339 19.693 14.1659 21.428 11.8749 23.758C9.74892 25.921 8.83692 28.321 9.30692 30.516C10.1759 34.575 15.7959 37.194 22.3779 36.609C22.4349 36.604 22.4909 36.602 22.5459 36.602V36.601Z" fill="#4E4D4D"/><path d="M65.318 49.9159C66.147 56.9889 59.454 63.6999 49.989 65.7519C49.556 65.8459 51.226 73.9079 51.226 73.9079C45.688 72.2159 44.87 66.3999 43.679 66.3809C34.424 66.2389 26.858 61.3549 26.057 54.5149C25.153 46.7949 33.208 39.5059 44.05 38.2359C54.892 36.9659 64.413 42.1949 65.318 49.9159V49.9159Z" fill="#D77C7D"/><path d="M53.242 76.12L50.78 75.3679C46.504 74.0619 44.689 70.7139 43.604 68.7129C43.461 68.4499 43.283 68.1209 43.145 67.8949C33.192 67.5639 25.406 62.068 24.542 54.693C24.046 50.455 25.851 46.241 29.626 42.826C33.258 39.54 38.317 37.372 43.873 36.722C49.43 36.07 54.853 37.011 59.145 39.368C63.607 41.818 66.337 45.5009 66.833 49.7389C67.286 53.6059 65.784 57.528 62.605 60.784C59.824 63.631 55.923 65.796 51.52 66.954C51.712 68.418 52.225 71.2089 52.72 73.5989L53.242 76.12V76.12ZM47.298 39.5719C46.292 39.5719 45.267 39.6309 44.228 39.7529C34.24 40.9229 26.768 47.466 27.573 54.339C28.271 60.301 35.055 64.725 43.703 64.857C44.996 64.877 45.594 65.981 46.287 67.259C46.934 68.453 47.741 69.94 49.116 71.079C49.058 70.769 49 70.452 48.943 70.135C48.727 68.931 48.573 67.9619 48.485 67.2549C48.428 66.7919 48.397 66.4329 48.392 66.1579C48.365 64.7009 49.273 64.346 49.665 64.261C58.448 62.357 64.526 56.267 63.803 50.094C63.082 43.937 55.957 39.5719 47.299 39.5719H47.298Z" fill="#4E4D4D"/></g><defs><clipPath id="clip0_502_1857"><rect width="80" height="80" fill="white"/></clipPath></defs></svg>