<svg width="80" height="80" fill="none" xmlns="http://www.w3.org/2000/svg"><g clip-path="url(#clip0_502_1853)"><path d="M39.9999 78.474C61.2479 78.474 78.4729 61.249 78.4729 40.001C78.4729 18.7529 61.2479 1.52795 39.9999 1.52795C18.7518 1.52795 1.52686 18.7529 1.52686 40.001C1.52686 61.249 18.7518 78.474 39.9999 78.474Z" fill="#FBDFCB"/><path d="M39.975 80C19.011 80.002 1.35501 63.611 0.0750057 42.412C-0.568994 31.747 2.97801 21.47 10.064 13.474C17.149 5.47696 26.925 0.718959 37.589 0.0749591C48.25 -0.570041 58.53 2.97796 66.527 10.064C74.523 17.149 79.282 26.925 79.926 37.59C81.256 59.605 64.426 78.597 42.411 79.927C41.596 79.976 40.78 80.001 39.974 80.001L39.975 80ZM40.051 3.05196C39.294 3.05196 38.536 3.07496 37.774 3.12096C17.438 4.34896 1.89301 21.892 3.12101 42.228C4.34901 62.564 21.895 78.108 42.228 76.88C62.563 75.652 78.108 58.109 76.88 37.773C76.285 27.922 71.89 18.892 64.503 12.347C57.688 6.30796 49.078 3.05096 40.05 3.05096L40.051 3.05196Z" fill="#4E4D4D"/><path d="M68.1841 43.6869C54.4611 51.5829 23.1301 58.7668 23.1301 58.7668C22.2581 60.7078 20.8831 63.8179 19.9831 66.4459C15.7801 65.2769 9.81512 60.4938 8.84912 54.0578C11.0521 53.3868 14.0181 53.1589 16.2441 52.6339C16.2441 52.6339 30.1911 20.7069 36.6631 13.0219" fill="#E999A4"/><path d="M19.9842 67.9729C19.8492 67.9729 19.7112 67.9549 19.5742 67.9169C15.1602 66.6889 8.44619 61.6479 7.34019 54.2849C7.22819 53.5369 7.68119 52.8189 8.40519 52.5989C9.77819 52.1809 11.3652 51.9309 12.8992 51.6899C13.6962 51.5649 14.4612 51.4439 15.1612 51.3069C17.3222 46.4059 29.4252 19.2489 35.4962 12.0399C36.0392 11.3949 37.0012 11.3129 37.6462 11.8559C38.2912 12.3989 38.3732 13.3609 37.8302 14.0059C31.5732 21.4359 17.7802 52.9289 17.6422 53.2459C17.4502 53.6859 17.0612 54.0099 16.5932 54.1199C15.5952 54.3549 14.4652 54.5329 13.3722 54.7049C12.4522 54.8499 11.5112 54.9979 10.6462 55.1789C11.9192 59.7399 15.9102 63.1079 19.0642 64.4949C19.8882 62.3079 20.9012 60.0029 21.7372 58.1419C21.9332 57.7059 22.3222 57.3869 22.7882 57.2799C23.0992 57.2089 54.0542 50.0559 67.4222 42.3649C68.1532 41.9439 69.0852 42.1959 69.5062 42.9269C69.9272 43.6579 69.6752 44.5899 68.9442 45.0099C56.1972 52.3439 29.1582 58.9169 24.2132 60.0819C23.3232 62.0799 22.1872 64.7189 21.4262 66.9409C21.2102 67.5709 20.6202 67.9729 19.9832 67.9729H19.9842Z" fill="#4E4D4D"/><path d="M68.3581 43.5108C72.8682 38.7692 69.3906 28.1397 60.5904 19.7691C51.7903 11.3985 41.0002 8.45668 36.4901 13.1983C31.9799 17.9399 35.4576 28.5694 44.2577 36.9399C53.0578 45.3105 63.8479 48.2524 68.3581 43.5108Z" fill="#E47893"/><path d="M62.2582 47.3079C56.5152 47.3079 49.2032 43.8839 42.8632 37.7159C36.7732 31.7919 32.9902 24.5309 32.9902 18.7689C32.9902 15.9559 33.8932 13.5909 35.6002 11.9299C40.9612 6.71392 52.5512 9.81692 61.9852 18.9959C68.0752 24.9209 71.8582 32.1809 71.8582 37.9439C71.8582 40.7569 70.9552 43.1219 69.2482 44.7829C67.4902 46.4929 65.0602 47.3099 62.2582 47.3099V47.3079ZM42.5592 12.4469C40.5712 12.4469 38.8942 12.9819 37.7282 14.1169C36.6092 15.2059 36.0412 16.7709 36.0412 18.7689C36.0412 23.7369 39.4702 30.1589 44.9902 35.5289C52.9562 43.2789 63.0892 46.5149 67.1192 42.5949C68.2382 41.5059 68.8052 39.9409 68.8052 37.9429C68.8052 32.9749 65.3762 26.5529 59.8562 21.1829C54.1952 15.6759 47.4392 12.4479 42.5572 12.4479L42.5592 12.4469Z" fill="#4E4D4D"/></g><defs><clipPath id="clip0_502_1853"><rect width="80" height="80" fill="white"/></clipPath></defs></svg>