<svg width="80" height="80" fill="none" xmlns="http://www.w3.org/2000/svg"><g clip-path="url(#clip0_502_1854)"><path d="M39.9999 78.4741C61.2479 78.4741 78.4729 61.2491 78.4729 40.0011C78.4729 18.753 61.2479 1.52808 39.9999 1.52808C18.7518 1.52808 1.52686 18.753 1.52686 40.0011C1.52686 61.2491 18.7518 78.4741 39.9999 78.4741Z" fill="#FCEBC6"/><path d="M39.974 80C19.009 80.002 1.35395 63.611 0.0739529 42.412C-1.25605 20.397 15.573 1.40403 37.589 0.0750347C48.25 -0.570965 58.531 2.97803 66.527 10.064C74.524 17.15 79.282 26.925 79.926 37.59C81.256 59.605 64.426 78.597 42.411 79.927C41.595 79.976 40.78 80.001 39.974 80.001V80ZM40.05 3.05204C39.293 3.05204 38.535 3.07504 37.773 3.12104C17.437 4.34904 1.89195 21.892 3.11995 42.228C4.34795 62.564 21.894 78.108 42.228 76.88C62.564 75.652 78.109 58.109 76.881 37.773C76.286 27.922 71.89 18.892 64.504 12.347C57.689 6.30804 49.079 3.05104 40.051 3.05104L40.05 3.05204Z" fill="#4E4D4D"/><path d="M38.4241 58.4541C42.7001 58.3781 61.2441 61.2952 65.7401 65.9972C66.6081 65.3842 68.5061 56.4351 68.7051 53.8271" fill="#A8AE8A"/><path d="M65.7409 67.5231C65.3359 67.5231 64.935 67.3631 64.637 67.0521C60.79 63.0291 43.594 59.9781 38.643 59.9781C38.577 59.9781 38.513 59.9781 38.451 59.9801C38.442 59.9801 38.432 59.9801 38.423 59.9801C37.593 59.9801 36.913 59.3151 36.898 58.4811C36.883 57.6381 37.554 56.9431 38.396 56.9281C42.242 56.8551 58.461 59.2141 65.142 63.5711C65.915 60.9891 67.022 55.8301 67.183 53.7111C67.247 52.8711 67.982 52.2431 68.82 52.3051C69.66 52.3691 70.29 53.1021 70.226 53.9421C70.121 55.3161 69.601 58.2191 68.96 61.0021C67.698 66.4821 67.075 66.9221 66.619 67.2431C66.353 67.4311 66.046 67.5221 65.74 67.5221L65.7409 67.5231Z" fill="#4E4D4D"/><path d="M11.2619 45.874C11.1959 47.35 11.1259 54.883 11.2599 56.382C19.7999 54.522 30.0749 55.87 38.4239 58.455" fill="#A8AE8A"/><path d="M38.4249 59.98C38.2759 59.98 38.1239 59.958 37.9729 59.911C28.5909 57.006 18.9719 56.263 11.5849 57.872C11.1579 57.965 10.7099 57.87 10.3569 57.611C10.0039 57.352 9.77987 56.953 9.74087 56.517C9.59487 54.879 9.67687 47.192 9.73887 45.805C9.77687 44.963 10.4849 44.312 11.3319 44.349C12.1739 44.387 12.8259 45.1 12.7879 45.942C12.7319 47.187 12.6869 51.873 12.7249 54.549C20.3289 53.298 29.7379 54.166 38.8769 56.996C39.6819 57.245 40.1329 58.1 39.8829 58.905C39.6799 59.56 39.0769 59.98 38.4259 59.98H38.4249Z" fill="#4E4D4D"/><path d="M43.2578 23.4231C52.2468 20.6121 72.0708 22.5951 73.2748 25.9591C74.4778 29.3231 70.7258 62.9811 68.6678 61.7521C66.6098 60.5231 46.2238 53.7601 38.7408 57.6821C30.3218 52.3601 19.2268 51.5071 9.92079 52.1641C7.77979 45.9941 13.5558 16.4501 13.5558 16.4501C18.5168 15.0921 38.4998 19.5131 43.2588 23.4231H43.2578Z" fill="#E6EDBB"/><path d="M68.7759 63.3091C68.4689 63.3091 68.1619 63.2271 67.8839 63.0611C65.8559 61.8501 46.1699 55.5091 39.4479 59.0321C38.9649 59.2851 38.3849 59.2611 37.9239 58.9701C29.3929 53.5771 18.0449 53.1191 10.0269 53.6841C9.33686 53.7321 8.70386 53.3141 8.47786 52.6621C6.26486 46.2871 11.4579 19.2201 12.0569 16.1551C12.1679 15.5861 12.5919 15.1291 13.1519 14.9761C16.2279 14.1341 23.2639 15.1971 28.8229 16.4721C31.3909 17.0611 39.6729 19.1031 43.5569 21.7451C48.6489 20.3691 55.9829 20.3701 61.3219 20.8541C64.6019 21.1511 67.5189 21.6441 69.7549 22.2791C72.6569 23.1021 74.2309 24.1081 74.7089 25.4441C75.6779 28.1511 74.1609 41.8471 73.8479 44.5651C73.3399 48.9631 72.7469 53.0681 72.1769 56.1251C71.1799 61.4751 70.5169 62.3991 69.9239 62.8861C69.5849 63.1651 69.1789 63.3071 68.7739 63.3071L68.7759 63.3091ZM45.2579 54.9381C48.2579 54.9381 51.8639 55.3891 56.0589 56.2931C61.0279 57.3631 65.8239 58.8841 68.1969 59.8551C68.8869 57.7051 69.9449 51.9411 70.8809 43.6721C71.9129 34.5521 72.1839 27.7211 71.8499 26.5101C71.3799 25.9151 67.9659 24.4651 60.5269 23.8481C53.9349 23.3021 47.4929 23.6961 43.7149 24.8781C43.2239 25.0321 42.6889 24.9271 42.2909 24.6011C40.3329 22.9921 34.7799 20.9691 28.1439 19.4471C22.5799 18.1711 17.4009 17.5321 14.8559 17.7711C12.7659 28.6851 10.3179 44.9741 11.1169 50.5591C19.2649 50.1201 30.1849 50.8091 38.8459 55.9541C40.5189 55.2761 42.6619 54.9371 45.2609 54.9371L45.2579 54.9381Z" fill="#4E4D4D"/><path d="M42.0571 39.8761C41.9761 39.9251 41.9011 39.9721 41.8351 40.0141C41.4711 40.2461 39.1041 43.5801 38.4241 45.3661C40.3991 45.8511 44.3031 46.0411 46.3511 45.7021C45.6031 43.4501 44.2831 41.2261 42.0571 39.8761Z" fill="#C9BC9C"/><path d="M43.696 47.0251C41.743 47.0251 39.551 46.8311 38.148 46.4861C37.827 46.4071 37.555 46.1941 37.401 45.9011C37.247 45.6081 37.227 45.2631 37.344 44.9541C38.024 43.1681 40.496 39.4961 41.213 39.0391C41.285 38.9931 41.368 38.9421 41.456 38.8891C41.824 38.6651 42.286 38.6651 42.654 38.8891C44.824 40.2041 46.48 42.4341 47.445 45.3381C47.551 45.6581 47.512 46.0091 47.338 46.2981C47.164 46.5871 46.871 46.7851 46.538 46.8401C45.778 46.9661 44.773 47.0251 43.694 47.0251H43.696ZM40.128 44.4981C41.546 44.6811 43.307 44.7571 44.718 44.6971C44.071 43.2951 43.222 42.1801 42.183 41.3641C41.653 42.0601 40.768 43.3581 40.128 44.4981V44.4981Z" fill="#4E4D4D"/><path d="M57.6081 33.0551C55.5571 32.7181 44.7711 38.2241 42.0571 39.8761C44.2831 41.2251 45.6031 43.4501 46.3511 45.7021C46.3531 45.7021 46.3561 45.7021 46.3591 45.7011C47.6621 45.4841 58.7761 39.4131 60.0571 38.1951C61.2591 37.0511 59.1591 33.3101 57.6081 33.0561V33.0551Z" fill="#E999A4"/><path d="M46.3511 46.8561C45.8621 46.8561 45.4161 46.5441 45.2571 46.0661C44.4561 43.6561 43.1791 41.9051 41.4601 40.8631C41.1151 40.6541 40.9051 40.2801 40.9041 39.8771C40.9041 39.4741 41.1141 39.1001 41.4581 38.8901C42.4701 38.2741 54.9271 31.4481 57.7961 31.9161C59.4911 32.1941 60.8951 34.3991 61.3501 35.8751C61.9061 37.6801 61.2781 38.6261 60.8541 39.0301C59.4321 40.3831 48.0691 46.5861 46.5501 46.8391C46.5441 46.8391 46.5381 46.8411 46.5311 46.8421C46.4711 46.8511 46.4111 46.8561 46.3521 46.8561H46.3511ZM44.1451 40.0071C45.3381 41.0971 46.3141 42.5221 47.0281 44.2211C49.9511 42.8991 58.2061 38.3171 59.2421 37.3771C59.2951 37.2251 59.2691 36.6671 58.8511 35.8411C58.3421 34.8361 57.6671 34.2471 57.4261 34.1951C56.0261 34.0761 48.3111 37.7131 44.1451 40.0081V40.0071Z" fill="#4E4D4D"/><path d="M26.1489 43.4249C28.9394 43.2968 31.0889 40.7389 30.95 37.7117C30.811 34.6845 28.4362 32.3343 25.6457 32.4624C22.8552 32.5905 20.7057 35.1484 20.8446 38.1756C20.9835 41.2028 23.3584 43.553 26.1489 43.4249Z" fill="#4E4D4D"/><path d="M21.1279 33.8056C23.0324 33.7182 24.4994 31.9729 24.4046 29.9073C24.3098 27.8417 22.689 26.2381 20.7846 26.3255C18.8801 26.4129 17.413 28.1582 17.5078 30.2238C17.6027 32.2894 19.2234 33.893 21.1279 33.8056Z" fill="#4E4D4D"/><path d="M29.0051 31.4399C30.9096 31.3525 32.3766 29.6071 32.2818 27.5415C32.187 25.476 30.5662 23.8723 28.6617 23.9598C26.7573 24.0472 25.2902 25.7925 25.385 27.8581C25.4799 29.9237 27.1006 31.5273 29.0051 31.4399Z" fill="#4E4D4D"/><path d="M34.4331 37.7984C36.3375 37.711 37.8046 35.9656 37.7098 33.9001C37.615 31.8345 35.9942 30.2309 34.0897 30.3183C32.1852 30.4057 30.7182 32.151 30.813 34.2166C30.9078 36.2822 32.5286 37.8858 34.4331 37.7984Z" fill="#4E4D4D"/></g><defs><clipPath id="clip0_502_1854"><rect width="80" height="80" fill="white"/></clipPath></defs></svg>