<svg width="80" height="80" fill="none" xmlns="http://www.w3.org/2000/svg"><g clip-path="url(#clip0_810_6297)"><path d="M39.9998 78.4704C61.2462 78.4704 78.4698 61.2445 78.4698 39.9952C78.4698 18.7459 61.2462 1.52002 39.9998 1.52002C18.7534 1.52002 1.52979 18.7459 1.52979 39.9952C1.52979 61.2445 18.7534 78.4704 39.9998 78.4704Z" fill="#F9DAE7"/><path d="M39.9461 79.9862C30.177 79.9862 20.8579 76.4573 13.4785 69.9292C5.47929 62.8413 0.719731 53.0642 0.0697914 42.4074C-1.26009 20.3939 15.5684 1.39958 37.5863 0.0699718C48.2453 -0.569838 58.5244 2.96911 66.5236 10.057C74.5229 17.1449 79.2725 26.912 79.9224 37.5788C81.2523 59.5923 64.4238 78.5766 42.4059 79.9062C41.5859 79.9562 40.756 79.9762 39.9361 79.9762L39.9461 79.9862ZM40.0461 3.04909C39.2862 3.04909 38.5262 3.06908 37.7663 3.11907C17.4382 4.3487 1.88962 21.8835 3.11951 42.2174C3.70945 52.0645 8.10905 61.0918 15.4984 67.6399C22.8877 74.1879 32.3768 77.457 42.2259 76.8671C62.564 75.6375 78.1026 58.1027 76.8727 37.7688C76.2827 27.9217 71.8831 18.8944 64.4938 12.3463C57.6745 6.30812 49.0653 3.04909 40.0461 3.04909V3.04909Z" fill="#4E4D4D"/><path d="M60.2299 16.8181H19.7599C18.1582 16.8181 16.8599 18.1163 16.8599 19.7178V64.2922C16.8599 65.8936 18.1582 67.1918 19.7599 67.1918H60.2299C61.8315 67.1918 63.1299 65.8936 63.1299 64.2922V19.7178C63.1299 18.1163 61.8315 16.8181 60.2299 16.8181Z" fill="#E6F4FD"/><path d="M60.2298 68.7214H19.7698C17.3298 68.7214 15.3398 66.7317 15.3398 64.292V19.7175C15.3398 17.2778 17.3298 15.2881 19.7698 15.2881H60.2298C62.6698 15.2881 64.6598 17.2778 64.6598 19.7175V64.282C64.6598 66.7217 62.6698 68.7114 60.2298 68.7114V68.7214ZM19.7698 18.3477C19.0098 18.3477 18.3898 18.9676 18.3898 19.7275V64.292C18.3898 65.0519 19.0098 65.6718 19.7698 65.6718H60.2298C60.9898 65.6718 61.6098 65.0519 61.6098 64.292V19.7175C61.6098 18.9576 60.9898 18.3377 60.2298 18.3377H19.7698V18.3477Z" fill="#4E4D4D"/><path d="M26.4998 23.907C25.6598 23.907 24.9698 23.2271 24.9698 22.3772C24.9698 21.5273 25.6498 20.8474 26.4998 20.8474C27.8798 20.8474 29.4098 18.8476 29.4098 15.978C29.4098 13.1083 27.8798 11.1086 26.4998 11.1086C25.1198 11.1086 23.5898 13.1083 23.5898 15.978C23.5898 16.8179 22.9098 17.5078 22.0598 17.5078C21.2098 17.5078 20.5298 16.8279 20.5298 15.978C20.5298 11.5385 23.1498 8.05896 26.4898 8.05896C29.8298 8.05896 32.4498 11.5385 32.4498 15.978C32.4498 20.4174 29.8298 23.897 26.4898 23.897L26.4998 23.907Z" fill="#4E4D4D"/><path d="M39.9998 23.907C39.1598 23.907 38.4698 23.2271 38.4698 22.3772C38.4698 21.5273 39.1498 20.8474 39.9998 20.8474C41.3798 20.8474 42.9098 18.8476 42.9098 15.978C42.9098 13.1083 41.3798 11.1086 39.9998 11.1086C38.6198 11.1086 37.0898 13.1083 37.0898 15.978C37.0898 16.8179 36.4098 17.5078 35.5598 17.5078C34.7098 17.5078 34.0298 16.8279 34.0298 15.978C34.0298 11.5385 36.6498 8.05896 39.9898 8.05896C43.3298 8.05896 45.9498 11.5385 45.9498 15.978C45.9498 20.4174 43.3298 23.897 39.9898 23.897L39.9998 23.907Z" fill="#4E4D4D"/><path d="M53.3997 23.907C52.5597 23.907 51.8697 23.2271 51.8697 22.3772C51.8697 21.5273 52.5497 20.8474 53.3997 20.8474C54.7797 20.8474 56.3097 18.8476 56.3097 15.978C56.3097 13.1083 54.7797 11.1086 53.3997 11.1086C52.0197 11.1086 50.4897 13.1083 50.4897 15.978C50.4897 16.8179 49.8097 17.5078 48.9597 17.5078C48.1097 17.5078 47.4297 16.8279 47.4297 15.978C47.4297 11.5385 50.0497 8.05896 53.3897 8.05896C56.7297 8.05896 59.3497 11.5385 59.3497 15.978C59.3497 20.4174 56.7297 23.897 53.3897 23.897L53.3997 23.907Z" fill="#4E4D4D"/><path d="M33.9897 54.7934L36.8497 55.3534L35.8197 52.5234L33.9897 54.7934Z" fill="#FEE3A3"/><path d="M36.85 56.4435C36.78 56.4435 36.71 56.4435 36.64 56.4235L33.78 55.8635C33.4 55.7935 33.1 55.5235 32.96 55.1635C32.83 54.8035 32.9 54.4035 33.14 54.1035L34.97 51.8335C35.22 51.5235 35.61 51.3735 36 51.4435C36.39 51.5035 36.71 51.7735 36.85 52.1435L37.88 54.9735C38.01 55.3435 37.94 55.7535 37.68 56.0535C37.47 56.3035 37.17 56.4335 36.85 56.4335V56.4435Z" fill="#4E4D4D"/><path d="M40.0098 47.3341L35.8198 52.5235L36.8498 55.3531L43.4098 56.6329L40.0098 47.3341Z" fill="#FEE3A3"/><path d="M43.4098 57.7227C43.3398 57.7227 43.2698 57.7227 43.1998 57.7027L36.6498 56.4229C36.2698 56.3529 35.9698 56.0829 35.8298 55.7229L34.7998 52.8933C34.6698 52.5333 34.7398 52.1334 34.9798 51.8334L39.1698 46.6341C39.4198 46.3241 39.8098 46.1741 40.1998 46.2441C40.5898 46.3041 40.9098 46.5741 41.0498 46.944L44.4398 56.2429C44.5698 56.6128 44.4998 57.0228 44.2498 57.3227C44.0398 57.5727 43.7398 57.7027 43.4198 57.7027L43.4098 57.7227ZM37.6698 54.4031L41.7198 55.193L39.6498 49.5137L37.0598 52.7233L37.6698 54.3931V54.4031Z" fill="#4E4D4D"/><path d="M40.1598 47.1542L40.0098 47.3342L43.4098 56.633L43.6298 56.673L74.5398 45.3944L71.0598 35.8756L40.1598 47.1542Z" fill="#FAC87D"/><path d="M43.6297 57.7627C43.5597 57.7627 43.4897 57.7627 43.4197 57.7427L43.1897 57.7027C42.8197 57.6327 42.5097 57.3628 42.3797 57.0028L38.9897 47.704C38.8597 47.344 38.9297 46.9441 39.1697 46.6441L39.3197 46.4641C39.4397 46.3142 39.6097 46.1942 39.7897 46.1242L70.6997 34.8456C70.9697 34.7456 71.2697 34.7556 71.5297 34.8856C71.7897 35.0056 71.9897 35.2255 72.0897 35.4955L75.5697 45.0243C75.7797 45.5942 75.4897 46.2142 74.9197 46.4241L44.0097 57.7027C43.8897 57.7427 43.7597 57.7727 43.6397 57.7727L43.6297 57.7627ZM41.3697 47.864L44.0997 55.343L73.1397 44.7443L70.4097 37.2653L41.3697 47.864V47.864Z" fill="#4E4D4D"/><path d="M42.2397 52.9434C41.7997 52.9434 41.3797 52.6734 41.2197 52.2234C41.0097 51.6535 41.2997 51.0336 41.8697 50.8236L72.4597 39.665C73.0297 39.455 73.6497 39.745 73.8597 40.3149C74.0697 40.8849 73.7797 41.5048 73.2097 41.7148L42.6197 52.8734C42.4997 52.9234 42.3697 52.9434 42.2497 52.9434H42.2397Z" fill="#4E4D4D"/><path d="M53.3999 31.8463H26.5099C25.9099 31.8463 25.4199 31.3563 25.4199 30.7563C25.4199 30.1563 25.9099 29.6663 26.5099 29.6663H53.3999C53.9999 29.6663 54.4899 30.1563 54.4899 30.7563C54.4899 31.3563 53.9999 31.8463 53.3999 31.8463Z" fill="#4E4D4D"/><path d="M35.8202 42.675H26.5002C25.9002 42.675 25.4102 42.185 25.4102 41.585C25.4102 40.985 25.9002 40.495 26.5002 40.495H35.8202C36.4202 40.495 36.9102 40.985 36.9102 41.585C36.9102 42.185 36.4202 42.675 35.8202 42.675Z" fill="#4E4D4D"/></g><defs><clipPath id="clip0_810_6297"><rect width="80" height="80" fill="white"/></clipPath></defs></svg>