<svg width="137" height="104" fill="none" xmlns="http://www.w3.org/2000/svg"><path d="M80.2967 59.4135C81.6439 59.6919 86.0159 58.4172 87.2523 58.539C89.8502 58.7949 92.4338 59.5469 94.6061 60.9947C96.7784 62.4425 96.9249 66.1721 98.8441 67.9421C102.346 71.1716 103.748 85.1658 101.236 90.4287C100.546 91.8731 96.9454 96.1713 95.6146 98.2034C94.5178 99.8777 89.2057 101.993 87.5184 102.44C84.2445 103.308 80.7797 103.447 77.4463 102.846C76.2524 102.63 75.0673 102.32 73.8549 102.287C72.2963 102.246 70.7514 102.791 69.1969 102.669C63.9107 102.255 60.4986 98.9129 58.6553 95.6917C57.6571 93.9469 57.512 91.5659 56.8832 91.2368C54.6829 90.0846 49.6519 70.5408 58.8633 63.5803C59.668 62.972 60.2639 62.1222 61.0726 61.5188C64.051 59.2965 67.9126 58.6567 71.6244 58.4706C74.6958 58.3167 77.3293 58.8004 80.2967 59.4141V59.4135ZM59.9875 69.8764C59.3847 69.8182 58.7368 69.8737 58.2476 70.2295C57.9253 70.4635 57.7009 70.8062 57.5066 71.1538C56.0848 73.6922 55.9349 76.7363 56.0321 79.6449C56.0533 80.2689 56.0841 80.8936 56.158 81.5135C56.2989 82.6951 56.5945 83.8521 56.8901 85.005C57.0529 85.6413 57.2226 86.2927 57.5969 86.8318C58.4077 88.0004 60.0265 88.3734 61.4229 88.1031C62.8194 87.8328 64.0503 87.0412 65.2428 86.2653C65.7013 85.967 66.1802 85.6468 66.4293 85.1596C66.6099 84.8059 66.6496 84.4001 66.6817 84.0047C66.8206 82.2935 66.8706 80.5754 66.8302 78.8594C66.7974 77.4369 67.004 75.3302 66.4067 74.0097C65.4926 71.9886 62.1065 70.0803 59.9882 69.8764H59.9875ZM69.8024 60.5096C66.8186 60.9864 64.0236 62.4315 61.7801 64.4561C64.7434 65.7513 67.5992 67.2908 70.3107 69.054C71.4253 69.7786 72.6644 70.5763 73.9753 70.3588C75.0393 70.1822 75.9123 69.3585 76.979 69.197C77.4463 69.1265 77.9526 69.1812 78.3611 68.9431C78.9871 68.5785 79.0809 67.7287 79.1034 67.0048C79.1677 64.9747 79.5584 62.7394 77.5736 61.6029C75.3348 60.3214 72.2949 60.1107 69.8024 60.5089V60.5096ZM87.4747 61.0966C86.8 61.061 86.1069 61.0747 85.4727 61.3073C84.8384 61.54 84.2651 62.0244 84.0769 62.6737C83.9825 63.0001 83.9886 63.3456 83.9955 63.685C84.014 64.5909 84.0324 65.4961 84.0502 66.402C84.0283 65.3045 93.4416 65.557 94.3523 65.5289C93.4642 62.1715 90.6172 61.2622 87.4747 61.0966ZM90.3798 69.7341C90.8779 69.3509 92.6828 68.5401 92.0116 67.9784C91.4102 67.4762 84.5729 68.6291 84.3171 69.329C84.144 69.8046 83.9811 70.3731 84.2781 70.783C84.4081 70.9622 84.6072 71.0772 84.8001 71.1867C85.5219 71.5958 86.2438 72.005 86.9649 72.4141C87.0504 72.4627 87.1435 72.5133 87.242 72.5024C87.3542 72.4901 87.4418 72.4025 87.5191 72.3197C88.4017 71.3837 89.3596 70.5182 90.3798 69.7341ZM90.3681 72.9574C89.727 73.2372 89.0216 73.5841 88.7897 74.2437C88.5304 74.9806 88.2471 75.8003 88.3409 76.5762C88.7678 80.093 88.3491 82.4091 88.3409 85.4415C88.3395 85.8117 88.3703 86.1941 88.5427 86.5212C88.7952 86.9995 89.3015 87.2779 89.7804 87.529C90.5844 87.9512 91.3883 88.3727 92.1929 88.7948C93.5066 89.4838 94.9653 90.1947 96.4124 89.867C97.5988 89.5981 98.5444 88.6484 99.0801 87.5564C99.6158 86.4644 99.7958 85.2342 99.9114 84.0231C100.04 82.6766 100.097 81.3226 100.082 79.9699C100.059 77.7366 99.7616 74.0733 98.0305 72.3683C96.099 70.4655 92.3954 72.072 90.3675 72.9574H90.3681ZM70.4948 90.2624C70.3477 89.635 70.7596 88.8632 70.3272 88.385C70.1718 88.2132 69.9419 88.1332 69.7312 88.0367C69.1907 87.7883 68.7206 87.3881 68.3902 86.8934C68.4237 86.9433 63.234 90.1523 63.6021 90.9631C63.9032 91.6254 69.5868 90.3678 70.4948 90.2631V90.2624ZM63.9887 93.5973C63.193 93.741 62.3788 93.9072 61.583 93.7615C61.2478 94.5429 62.8823 97.3536 63.5836 97.7922C65.418 98.9389 69.4288 99.5273 71.1003 98.1021C71.2043 98.0132 71.1243 97.8326 71.0941 97.6991C70.8369 96.5599 70.531 93.0349 70.531 93.0349C70.0076 92.8515 65.3222 93.3571 63.9887 93.5973ZM76.8264 90.9083C76.4911 92.196 76.0314 96.1234 76.2209 96.733C76.6485 98.1117 78.1038 98.9061 79.5078 99.242C82.7625 100.02 86.1726 99.0854 89.3022 97.9003C90.7424 97.355 92.3852 96.4621 92.4885 94.926C89.4862 94.1577 87.2235 92.0024 84.7844 90.231C83.5939 89.3668 83.0622 89.206 81.6493 89.6186C81.1923 89.752 76.8709 90.738 76.8264 90.9083Z" fill="#E95271"/><path d="M79.8314 75.7757C78.4623 76.1971 77.0302 76.9258 76.5061 78.2594C76.2119 79.0086 76.2509 79.8419 76.294 80.6459C76.3809 82.2524 76.4678 83.8589 76.5547 85.4648C76.5971 86.2461 76.671 87.1021 77.2205 87.659C77.8301 88.2769 78.8003 88.3063 79.6679 88.296C80.7824 88.283 81.9107 88.268 82.9883 87.9806C83.6725 87.7979 84.3232 87.5092 84.9615 87.2013C85.684 86.8524 86.4264 86.4507 86.867 85.7802C87.3172 85.0953 87.385 84.2366 87.4397 83.419C87.5704 81.4615 88.0801 77.6566 86.4627 76.1253C84.9191 74.6645 81.6103 75.2269 79.8307 75.775L79.8314 75.7757Z" fill="#2E7EBC"/><path d="M68.7446 74.4708C68.5804 74.4647 68.4059 74.4681 68.2663 74.5543C68.0693 74.6768 67.9981 74.9245 67.9475 75.1516C67.6334 76.5686 67.5198 78.0301 67.6108 79.4786C67.7456 81.6243 68.3231 83.7138 68.8978 85.7856C68.9779 86.0751 69.0627 86.372 69.2475 86.6087C69.4267 86.8379 69.686 86.9892 69.946 87.1212C70.8909 87.5995 71.9316 87.8868 72.988 87.9594C73.1351 87.9696 73.2877 87.9744 73.4238 87.9183C73.7016 87.8034 73.82 87.4797 73.8994 87.1896C75.1213 82.7347 75.2459 74.7254 68.7446 74.4708Z" fill="#E4C566"/><path d="M78.8927 69.7902C77.8192 69.875 76.8079 70.3088 75.8199 70.7371C75.3376 70.9458 74.8559 71.1545 74.3735 71.3639C73.9685 71.539 73.4998 71.8045 73.4895 72.2458C73.4827 72.5345 73.6845 72.7809 73.8754 72.9971C74.5815 73.7997 75.3718 74.6508 76.4255 74.8301C77.0091 74.9293 77.605 74.8061 78.1846 74.6837C79.0111 74.5085 79.8383 74.3333 80.6648 74.1582C81.8396 73.9091 85.1627 73.5232 84.1104 71.8517C83.2401 70.4696 80.3938 69.6718 78.8927 69.7909V69.7902Z" fill="#9ECF8F"/><path d="M69.929 77.9371C69.8189 82.9729 70.0296 88.0155 70.5585 93.0246C70.7733 95.0574 71.1175 97.2476 72.5755 98.6803C72.8088 98.9095 73.1051 99.1257 73.4301 99.0888C74.1423 99.0081 74.1663 97.9858 73.9973 97.2893C71.9235 88.7223 72.1321 79.6141 74.5966 71.1511C73.0538 70.6715 70.9252 69.9531 70.3491 71.8935C69.8189 73.6786 69.9687 76.0952 69.9283 77.9364L69.929 77.9371Z" fill="#E95271"/><path d="M40.3529 36.9439C35.6134 36.6689 35.0763 38.4204 35.0763 38.4204C34.4858 41.5781 34.2867 43.9482 34.4236 46.3799C34.4475 46.8054 34.5275 47.2481 34.7882 47.5861C35.2371 48.1691 37.5483 49.1037 39.0255 49.1078C40.7627 49.1133 42.8215 48.7445 43.3456 48.2033C43.7287 47.8071 43.817 47.2201 43.8861 46.6734C44.2035 44.174 44.1447 41.4583 44.4622 38.9589C44.4622 38.9589 44.4622 37.182 40.3535 36.9439H40.3529Z" fill="#B9CCE9"/><path d="M39.0556 49.6004H39.0234C37.5052 49.5963 34.9976 48.6672 34.3975 47.8865C34.0274 47.4055 33.9548 46.8123 33.9316 46.4072C33.7941 43.9564 33.9911 41.5404 34.5918 38.3294C34.6719 38.0585 35.4013 36.1612 40.3802 36.452C44.8248 36.7092 44.9534 38.7297 44.9534 38.9589C44.7933 40.2514 44.7283 41.5671 44.6654 42.8384C44.6011 44.1302 44.5354 45.4658 44.3739 46.735C44.3055 47.2748 44.2117 48.0151 43.6986 48.5454C42.9528 49.3158 40.4698 49.6004 39.0556 49.6004ZM35.5504 38.5641C34.9729 41.6663 34.7827 43.9981 34.9148 46.3525C34.9394 46.7883 35.0229 47.0846 35.1782 47.2864C35.4977 47.7018 37.616 48.6118 39.0262 48.6159C40.8626 48.6248 42.6483 48.2149 42.9904 47.8612C43.2539 47.5889 43.3305 47.1345 43.3962 46.6118C43.5528 45.3802 43.6178 44.0631 43.6815 42.7905C43.7444 41.5192 43.8101 40.2055 43.9654 38.9548C43.9298 38.7783 43.5706 37.6247 40.3241 37.4365C36.4241 37.2087 35.6407 38.3965 35.5504 38.5648V38.5641Z" fill="#595757"/><path d="M41.254 38.4628C42.0887 38.5942 42.9522 38.7372 43.6555 39.2045C43.726 39.2517 43.8026 39.3167 43.7972 39.4009C43.7903 39.5124 43.6548 39.5603 43.5447 39.5795C42.1865 39.8217 40.7997 39.9072 39.4224 39.8367C38.5828 39.7936 37.274 39.6342 36.5159 39.2032C35.4704 38.6086 36.5029 38.5805 37.2685 38.4581C38.6896 38.2309 39.8486 38.2405 41.254 38.4622V38.4628Z" fill="#7F4F21"/><path d="M38.9756 46.7582C39.9188 46.7582 40.6834 45.9936 40.6834 45.0504C40.6834 44.1073 39.9188 43.3427 38.9756 43.3427C38.0324 43.3427 37.2678 44.1073 37.2678 45.0504C37.2678 45.9936 38.0324 46.7582 38.9756 46.7582Z" fill="#EB6888"/><path d="M37.2678 43.3427C37.7148 43.3427 38.0772 42.9803 38.0772 42.5332C38.0772 42.0862 37.7148 41.7238 37.2678 41.7238C36.8208 41.7238 36.4584 42.0862 36.4584 42.5332C36.4584 42.9803 36.8208 43.3427 37.2678 43.3427Z" fill="#EB6888"/><path d="M39.3805 42.8685C39.8986 42.8685 40.3186 42.4485 40.3186 41.9304C40.3186 41.4124 39.8986 40.9924 39.3805 40.9924C38.8625 40.9924 38.4425 41.4124 38.4425 41.9304C38.4425 42.4485 38.8625 42.8685 39.3805 42.8685Z" fill="#EB6888"/><path d="M41.2697 43.7641C41.7761 43.7641 42.1866 43.3536 42.1866 42.8473C42.1866 42.3409 41.7761 41.9304 41.2697 41.9304C40.7634 41.9304 40.3529 42.3409 40.3529 42.8473C40.3529 43.3536 40.7634 43.7641 41.2697 43.7641Z" fill="#EB6888"/><path d="M43.8901 47.6676C45.1272 47.6676 46.6714 46.6091 47.0464 45.4302C47.4213 44.2513 47.2763 42.9773 47.1011 41.7526C47.0477 41.3797 46.9868 40.9931 46.7788 40.679C46.3321 40.0058 45.4029 39.9004 44.5962 39.8607L44.497 40.7926C44.497 40.7926 45.5794 40.716 45.966 41.0772C46.3526 41.4385 46.538 41.9804 46.5442 42.51C46.5496 42.952 46.4374 44.7781 46.3362 45.2393C46.1049 46.2923 44.9479 47.0463 43.8915 46.8335V47.6682L43.8901 47.6676Z" fill="#B9CCE9"/><path d="M43.8909 47.9871C43.806 47.9871 43.7253 47.9536 43.6651 47.894C43.6055 47.8345 43.572 47.7524 43.572 47.6683V46.8335C43.572 46.7377 43.6144 46.6474 43.689 46.5865C43.7622 46.5256 43.8587 46.501 43.9545 46.5202C44.8453 46.7008 45.8299 46.0563 46.0242 45.1709C46.1166 44.7494 46.2295 42.9458 46.2247 42.5141C46.2185 42.0276 46.0447 41.589 45.7471 41.3113C45.5528 41.1293 44.8987 41.0848 44.5196 41.1115C44.4239 41.119 44.3329 41.0827 44.2672 41.015C44.2015 40.9466 44.1693 40.8535 44.1796 40.7591L44.2788 39.8272C44.2966 39.6589 44.4485 39.5323 44.6113 39.5419C45.5754 39.5884 46.5374 39.7369 47.045 40.5018C47.3009 40.887 47.3652 41.3421 47.4172 41.7067C47.6047 43.0184 47.7416 44.2972 47.3509 45.526C46.9417 46.813 45.2921 47.9857 43.8902 47.9864L43.8909 47.9871ZM44.2097 47.1886V47.3234C44.493 47.2796 44.7865 47.1818 45.0691 47.0443C44.7947 47.1442 44.5012 47.1968 44.2097 47.1879V47.1886ZM46.848 42.2562C46.8569 42.3383 46.8617 42.4224 46.8624 42.5066C46.8671 42.928 46.757 44.8062 46.6468 45.3077C46.5846 45.5917 46.4662 45.8551 46.3061 46.0905C46.5066 45.8496 46.6598 45.5924 46.7419 45.333C47.0485 44.3697 46.9862 43.329 46.8473 42.2555L46.848 42.2562ZM44.8522 40.4663C45.2572 40.4745 45.86 40.5422 46.1829 40.8446C46.523 41.1628 46.7495 41.6157 46.8302 42.1234C46.8158 42.0153 46.8008 41.9072 46.785 41.7977C46.7303 41.4139 46.6756 41.1005 46.5127 40.8556C46.2062 40.3937 45.5685 40.2528 44.8809 40.1987L44.8522 40.4669V40.4663Z" fill="#595757"/><path d="M40.5458 40.4416C38.9769 40.4416 37.4081 40.1283 35.9603 39.5132C35.5587 39.3421 35.1509 39.1293 34.8847 38.7338C34.7328 38.5081 34.7924 38.2022 35.0181 38.0503C35.2426 37.8977 35.5491 37.9579 35.7017 38.1837C35.8248 38.3671 36.0841 38.4951 36.3462 38.6066C38.444 39.4988 40.8209 39.6979 43.0377 39.1628C43.4229 39.0698 43.7164 38.8953 43.7192 38.7571C43.7246 38.4855 43.96 38.259 44.2214 38.2741C44.493 38.2795 44.7092 38.5039 44.7044 38.7763C44.6921 39.4133 44.1687 39.9032 43.269 40.1201C42.3768 40.3349 41.4613 40.4416 40.5465 40.4416H40.5458Z" fill="#595757"/><path d="M44.4429 25.2049C45.487 25.2501 46.5188 24.5454 46.8568 23.5567C47.1948 22.568 46.8096 21.3788 45.9564 20.7754C44.809 19.9646 42.4929 19.9687 42.0188 21.7517C41.5159 23.6415 42.651 25.1276 44.4429 25.2049Z" fill="#C4BBB0"/><path d="M44.5401 25.7003C44.5004 25.7003 44.4614 25.6996 44.4218 25.6976C43.4016 25.6538 42.5375 25.2166 41.9867 24.468C41.4181 23.6949 41.2607 22.6857 41.5426 21.6251C41.7547 20.8294 42.3035 20.2341 43.0882 19.9502C44.0831 19.5896 45.379 19.7648 46.241 20.3737C47.2797 21.1079 47.7347 22.5133 47.3235 23.7168C46.9253 24.882 45.7676 25.7003 44.5408 25.7003H44.5401ZM44.4642 24.7137C45.2866 24.7506 46.122 24.1841 46.3902 23.3979C46.6584 22.6118 46.3498 21.658 45.6718 21.1784C45.0765 20.7569 44.1098 20.6283 43.4235 20.8766C42.937 21.0531 42.6243 21.3898 42.4944 21.879C42.2905 22.6446 42.3924 23.3576 42.7797 23.8851C43.1498 24.3887 43.7478 24.6829 44.4635 24.7137H44.4642Z" fill="#595757"/><path d="M39.0556 19.1873C39.0255 18.5708 39.4436 17.7033 39.954 17.3564C40.3741 17.071 41.0241 16.9116 41.516 17.0375C42.9515 17.4056 44.0332 18.4511 44.4458 19.8743C44.8754 21.3569 44.181 24.2457 42.0141 23.9084C39.8199 23.5669 39.1452 21.0005 39.0563 19.1873H39.0556Z" fill="#F7F6F0"/><path d="M42.3582 24.4291C42.2214 24.4291 42.0811 24.4174 41.9381 24.3955C39.0207 23.9412 38.6177 20.3128 38.5636 19.2113C38.5246 18.421 39.0344 17.3851 39.6768 16.9486C40.151 16.627 40.9426 16.3814 41.6377 16.5606C43.234 16.9698 44.4601 18.1569 44.9178 19.7374C45.236 20.8363 45.0259 22.5858 44.1241 23.6101C43.6493 24.1499 43.0445 24.4284 42.3575 24.4284L42.3582 24.4291ZM41.1492 17.4871C40.8482 17.4871 40.4842 17.5917 40.2303 17.7642C39.8705 18.0084 39.5256 18.7152 39.5475 19.1627C39.592 20.0761 39.9074 23.0818 42.0893 23.4219C42.6134 23.5026 43.039 23.3528 43.3852 22.9594C44.0338 22.2225 44.2124 20.8404 43.9722 20.0111C43.6069 18.7508 42.6675 17.8408 41.3935 17.5144C41.3203 17.496 41.2368 17.4864 41.1492 17.4864V17.4871Z" fill="#595757"/><path d="M41.9231 23.9022C41.8232 23.8899 41.7233 23.8694 41.6357 23.8194C41.4879 23.736 41.3969 23.582 41.3148 23.4335C40.9754 22.8198 40.6717 22.1452 40.7264 21.4466C40.7811 20.748 41.3175 20.0419 42.0182 20.031C42.6271 20.0214 43.145 20.5325 43.3455 21.1079C43.7437 22.254 43.559 24.1041 41.9231 23.9022Z" fill="#595757"/><path d="M41.0938 20.4517C40.8879 20.5667 40.6197 20.5605 40.4185 20.436C40.1524 20.2711 40.0374 19.9447 39.9786 19.6368C39.906 19.2557 39.9245 18.7898 40.2468 18.5736C40.5109 18.3957 40.8906 18.4757 41.1226 18.694C41.3545 18.9123 41.4599 19.2352 41.4961 19.5513C41.5105 19.6765 41.2991 20.3361 41.0931 20.4517H41.0938Z" fill="#595757"/><path d="M40.4048 21.0176C40.0866 21.2058 39.6658 21.255 39.3497 21.0628C39.0336 20.8705 38.89 20.4045 39.1089 20.1062C39.2964 19.8503 39.6898 19.799 39.9676 19.953C40.2454 20.1069 40.4068 20.4251 40.4301 20.7419C40.4301 20.7419 40.4623 20.9841 40.4055 21.0176H40.4048Z" fill="#595757"/><path d="M42.038 19.9126C41.674 19.8483 41.3224 19.6122 41.2074 19.2612C41.0925 18.9102 41.2861 18.4621 41.646 18.3779C41.9552 18.3054 42.2871 18.5216 42.3979 18.8199C42.5088 19.1182 42.4246 19.4638 42.2365 19.7197C42.2365 19.7197 42.103 19.9242 42.0387 19.9133L42.038 19.9126Z" fill="#595757"/><path d="M51.831 34.071C52.8751 34.1161 53.9069 33.4114 54.2449 32.4227C54.5829 31.434 54.1976 30.2449 53.3444 29.6414C52.197 28.8306 49.881 28.8347 49.4068 30.6178C48.904 32.5075 50.0391 33.9937 51.831 34.071Z" fill="#C4BBB0"/><path d="M51.9289 34.5657C51.8892 34.5657 51.8495 34.565 51.8098 34.5629C50.7897 34.5191 49.9248 34.0819 49.3747 33.3334C48.8062 32.5602 48.6488 31.551 48.9307 30.4905C49.1428 29.6948 49.6908 29.1002 50.4756 28.8156C51.4691 28.455 52.7663 28.6301 53.6284 29.2391C54.6664 29.9732 55.1214 31.3786 54.7108 32.5815C54.3126 33.7467 53.155 34.565 51.9282 34.565L51.9289 34.5657ZM51.8529 33.579C52.6678 33.6112 53.5107 33.0495 53.7796 32.2633C54.0485 31.4778 53.7393 30.5233 53.0612 30.0437C52.466 29.6229 51.5006 29.4929 50.8122 29.742C50.3258 29.9185 50.0138 30.2551 49.8838 30.7443C49.6799 31.51 49.7812 32.2229 50.1691 32.7505C50.5392 33.254 51.1372 33.5482 51.8529 33.579Z" fill="#595757"/><path d="M42.8762 23.8181C42.7304 24.3484 42.7133 24.9115 42.8036 25.4541C43.1054 27.2693 44.5196 28.6651 45.8586 29.9267C46.5312 30.5603 47.2037 31.1939 47.8763 31.8275C48.3005 32.2277 48.8349 32.6177 49.2345 33.0426C49.5923 33.4231 50.6473 33.174 50.9299 32.9352C52.0746 31.9691 52.3011 30.6157 52.3941 29.1207C52.4181 28.7355 52.5761 28.7321 52.3722 28.4044C52.1977 28.1238 51.2029 27.1803 50.9299 26.9942C49.762 26.1971 49.1311 24.7336 48.1438 23.7223C47.5547 23.1188 46.9465 22.4476 46.1227 22.2677C45.2072 22.0679 44.2897 22.5311 43.4769 22.9971L42.8755 23.8181H42.8762Z" fill="#F7F6F0"/><path d="M49.8502 33.7323C49.4787 33.7323 49.1174 33.6379 48.8759 33.3806C48.659 33.15 48.3833 32.9167 48.1164 32.6923C47.9166 32.5233 47.7182 32.3557 47.539 32.1867L45.5212 30.2859C44.3136 29.1488 42.6606 27.5915 42.3185 25.5354C42.2138 24.9067 42.2425 24.2676 42.402 23.6881C42.4177 23.6306 42.4444 23.5759 42.4793 23.5273L43.0807 22.7069C43.1217 22.6515 43.1731 22.6057 43.2326 22.5708C44.1111 22.0672 45.1401 21.5486 46.2287 21.7873C47.1455 21.9871 47.8051 22.6666 48.3874 23.2666L48.4968 23.3795C48.9204 23.8133 49.2768 24.3169 49.621 24.804C50.1157 25.5026 50.5823 26.1622 51.2076 26.5891C51.5012 26.7889 52.5617 27.7783 52.7909 28.1464C52.9975 28.4796 52.9955 28.6979 52.9216 28.962C52.9045 29.0229 52.8915 29.0708 52.886 29.1529C52.7984 30.5706 52.5918 32.1784 51.248 33.3129C51.012 33.5127 50.4181 33.733 49.8509 33.733L49.8502 33.7323ZM43.3291 24.0336C43.2271 24.4544 43.2127 24.9156 43.2894 25.3733C43.5555 26.9716 44.7631 28.2196 46.1965 29.5689L48.2143 31.4696C48.3812 31.6263 48.5659 31.7823 48.752 31.939C49.0401 32.1819 49.3377 32.4337 49.5936 32.706C49.7421 32.8189 50.4277 32.7039 50.6131 32.5589C51.5573 31.7618 51.8063 30.641 51.9028 29.0913C51.9144 28.9059 51.9493 28.7793 51.9726 28.6965C51.9671 28.6862 51.961 28.6767 51.9541 28.665C51.8248 28.4584 50.8868 27.5621 50.6528 27.402C49.8803 26.8751 49.3398 26.1109 48.817 25.3719C48.4797 24.8957 48.1616 24.4455 47.7914 24.0671L47.6799 23.9529C47.1709 23.4288 46.6454 22.8869 46.018 22.75C45.3023 22.5947 44.51 22.9786 43.8128 23.374L43.3291 24.0336Z" fill="#595757"/><path d="M55.6256 30.5199C54.5296 30.5698 54.4454 30.1976 54.0342 31.187C53.8262 31.6878 51.2994 33.4853 51.3932 34.0176C51.5129 34.6943 52.3004 35.2512 52.713 35.8081C53.2734 36.5656 54.2046 36.9522 55.0318 37.4256C56.3755 38.1947 57.5175 39.2545 58.8127 40.0982C61.3798 41.771 64.4484 42.5367 67.4795 43.121C68.4223 43.303 69.3815 43.4706 70.3401 43.4008C73.2856 43.1867 75.7084 40.5963 76.1292 37.7527C76.1955 37.3031 76.2188 36.8338 76.0635 36.4062C75.913 35.9902 75.6078 35.646 75.291 35.3313C73.5538 33.605 71.6572 32.5493 69.1879 32.6252C66.0981 32.7203 63.1122 31.943 60.0983 31.4018C58.3686 31.0912 57.3895 30.4398 55.6263 30.5199H55.6256Z" fill="#F7F6F0"/><path d="M69.8824 43.9106C69.0463 43.9106 68.2225 43.7669 67.385 43.6054C64.3649 43.0231 61.2032 42.2452 58.5424 40.5114C57.9731 40.1406 57.4312 39.7273 56.9071 39.3284C56.1969 38.7879 55.5264 38.2775 54.7861 37.8533C54.6253 37.7609 54.4604 37.6726 54.2948 37.5837C53.5751 37.1964 52.8307 36.7962 52.3161 36.101C52.2012 35.9457 52.0418 35.7794 51.8728 35.6029C51.4705 35.1835 51.0148 34.7073 50.9074 34.1031C50.8136 33.5742 51.322 33.0624 52.5932 31.9362C52.9757 31.5975 53.4991 31.1336 53.5853 30.9817C53.9541 30.0929 54.2586 29.9575 54.9811 30.0115C55.1385 30.0232 55.3403 30.0382 55.603 30.0266C56.8004 29.9705 57.6502 30.2284 58.552 30.4994C59.0542 30.6506 59.5735 30.8059 60.1845 30.916C60.8304 31.0317 61.4742 31.1583 62.1187 31.2855C64.4183 31.7378 66.7945 32.2106 69.1728 32.1319C71.5498 32.0566 73.6078 32.9639 75.6386 34.9809C75.9909 35.3313 76.3412 35.726 76.5267 36.2378C76.7312 36.8023 76.6827 37.3818 76.6163 37.8245C76.1456 41.0068 73.4046 43.6718 70.3757 43.8914C70.2115 43.9037 70.0479 43.9092 69.8837 43.9092L69.8824 43.9106ZM51.896 34.008C51.9857 34.2981 52.2894 34.6149 52.5837 34.9214C52.7663 35.1123 52.9552 35.3094 53.1078 35.5153C53.4909 36.0326 54.1081 36.3644 54.7608 36.7161C54.9339 36.8091 55.1063 36.9015 55.2746 36.998C56.0717 37.4544 56.7997 38.0086 57.5031 38.5443C58.0135 38.9323 58.541 39.3346 59.0795 39.6856C61.598 41.3263 64.6489 42.0742 67.5704 42.6373C68.5044 42.8179 69.413 42.9746 70.3025 42.9103C72.8887 42.7221 75.2335 40.4252 75.6399 37.6808C75.7118 37.1944 75.6995 36.8529 75.5982 36.5738C75.4785 36.244 75.2123 35.9491 74.9414 35.6802C73.0913 33.8417 71.3192 33.0433 69.2009 33.1172C66.7159 33.1931 64.2808 32.7155 61.9271 32.2523C61.2881 32.1264 60.6497 32.0012 60.0093 31.8863C59.3422 31.7665 58.7955 31.6023 58.2673 31.4436C57.4121 31.187 56.6725 30.9619 55.6468 31.0118C55.3335 31.0248 55.0954 31.0091 54.9072 30.9947C54.8142 30.9879 54.6958 30.979 54.6595 30.9852C54.678 30.9852 54.6171 31.0638 54.4878 31.3751C54.3633 31.6748 53.976 32.0265 53.246 32.6731C52.8238 33.0474 52.0589 33.7254 51.8953 34.0066L51.896 34.008Z" fill="#595757"/><path d="M49.71 67.3325C49.8441 68.0871 50.3716 68.7844 51.0982 69.0272C51.3069 69.097 51.5259 69.1299 51.7448 69.1579C52.1362 69.2086 52.5426 69.2455 52.9175 69.1237C53.1522 69.0471 53.365 68.9109 53.5484 68.746C54.8176 67.6061 54.3092 65.4694 52.8929 64.6914C51.2686 63.7992 49.4199 65.6979 49.71 67.3325Z" fill="#C4BBB0"/><path d="M52.3394 69.6985C52.1102 69.6985 51.8871 69.6738 51.6805 69.6471C51.4424 69.6157 51.1899 69.578 50.9409 69.4946C50.0706 69.2031 49.3966 68.3882 49.2242 67.4187C49.0388 66.3705 49.5738 65.1608 50.5262 64.4779C51.3534 63.8854 52.3024 63.806 53.1296 64.2604C54.0068 64.742 54.6267 65.6835 54.7457 66.7174C54.8531 67.6479 54.5364 68.5209 53.8768 69.1128C53.625 69.3386 53.3534 69.5 53.0687 69.5924C52.8259 69.6718 52.5789 69.6985 52.3394 69.6985ZM50.1944 67.2462C50.3025 67.8566 50.7281 68.3848 51.2542 68.5606C51.4205 68.616 51.6107 68.6441 51.8084 68.6701C52.1382 68.7125 52.4838 68.7474 52.7643 68.6557C52.9182 68.6065 53.0708 68.5134 53.2193 68.3807C53.7919 67.8655 53.8084 67.1888 53.7673 66.8303C53.6838 66.1084 53.2583 65.4543 52.6555 65.1238C51.9959 64.7612 51.3979 65.065 51.1003 65.2798C50.4551 65.7424 50.074 66.5696 50.1944 67.2469V67.2462Z" fill="#595757"/><path d="M54.561 62.5923C53.8049 62.907 53.0092 63.1821 52.3914 63.7199C52.0629 64.0066 51.7858 64.3836 51.7373 64.8167C51.6818 65.3113 51.9309 65.7889 52.2272 66.1892C52.6219 66.7222 53.0762 67.2531 53.6756 67.5364C58.6498 69.886 64.7522 68.6996 66.8759 68.3013C68.2142 68.0502 71.7228 67.3667 72.9086 65.4981C73.9527 63.8526 73.746 61.4503 72.8477 59.9533C71.3855 57.5161 69.01 56.6698 66.945 57.2164C64.7399 57.8001 56.6964 61.7028 54.561 62.5916V62.5923Z" fill="#F7F6F0"/><path d="M60.8112 69.4522C58.4733 69.4522 55.8562 69.1114 53.4656 67.9825C52.7575 67.6486 52.2423 67.0369 51.8317 66.4834C51.3774 65.871 51.1872 65.3086 51.2481 64.7626C51.3042 64.2569 51.5875 63.7677 52.0678 63.3497C52.6589 62.8338 53.365 62.5471 54.0486 62.27L54.3715 62.138C55.042 61.8588 56.3249 61.2683 57.8096 60.5855C61.1355 59.0549 65.2743 57.1501 66.8192 56.7416C69.2707 56.0929 71.8023 57.2541 73.2699 59.7015C74.1888 61.2334 74.5199 63.8786 73.3239 65.7636C72.1416 67.6274 69.1298 68.3814 66.9663 68.7864L66.8917 68.8008C65.6848 69.0273 63.4221 69.4528 60.8112 69.4528V69.4522ZM54.7499 63.0473L54.4187 63.1821C53.7824 63.4407 53.1817 63.6836 52.715 64.0914C52.4284 64.3411 52.2553 64.6189 52.2272 64.8714C52.1957 65.1546 52.3285 65.4995 52.6234 65.8963C52.9614 66.352 53.376 66.8508 53.8871 67.0909C58.6594 69.3454 64.508 68.2459 66.7111 67.8319L66.7864 67.8176C67.9283 67.6034 71.4041 66.9527 72.494 65.2354C73.4779 63.6836 73.1932 61.4866 72.4263 60.2071C71.1892 58.1463 69.088 57.1569 67.0724 57.6933C65.6095 58.0799 61.3401 60.0449 58.2222 61.4791C56.7286 62.1667 55.4389 62.7599 54.7506 63.0466L54.7499 63.0473Z" fill="#595757"/><path d="M42.7592 75.3979C42.2501 75.8666 41.8424 76.4365 41.3326 76.9045C40.8386 77.3582 40.1989 77.8166 40.1996 78.4871C40.2003 79.0673 40.7175 79.5299 41.2642 79.7221C42.3562 80.1066 43.5535 79.7208 44.6455 79.3369C45.1135 79.1727 45.5815 79.0078 46.0495 78.8436C46.3896 78.7239 46.7515 78.5884 46.9609 78.2949C47.1224 78.0684 47.1675 77.7817 47.2017 77.5053C47.2393 77.2001 47.2688 76.8888 47.212 76.5864C47.1032 76.0069 46.6858 75.5231 46.1918 75.2015C45.0061 74.4298 43.8286 74.4126 42.7592 75.3972V75.3979Z" fill="#F7F6F0"/><path d="M42.2426 80.3756C41.8588 80.3756 41.479 80.3201 41.1014 80.1874C40.4076 79.9431 39.7083 79.3226 39.7076 78.4885C39.7063 77.6873 40.3118 77.1529 40.7983 76.7232L41.0001 76.5426C41.2368 76.3257 41.4517 76.0814 41.6795 75.8235C41.9128 75.5594 42.1537 75.2864 42.426 75.036C43.622 73.9344 45.0177 73.8509 46.4607 74.7897C47.1333 75.2289 47.5726 75.8345 47.6964 76.4968C47.7676 76.8731 47.7306 77.2467 47.6909 77.5662C47.6512 77.8898 47.5903 78.262 47.3625 78.5809C47.0546 79.0126 46.549 79.1905 46.2137 79.3075L44.8104 79.8015C43.9408 80.1073 43.0849 80.3756 42.2433 80.3756H42.2426ZM43.0931 75.7599C42.8577 75.9761 42.6442 76.219 42.4178 76.4749C42.1831 76.741 41.9409 77.0154 41.6658 77.2679L41.4503 77.4608C41.0603 77.805 40.6922 78.1307 40.6929 78.4864C40.6929 78.8224 41.0637 79.1289 41.4291 79.2582C42.3329 79.575 43.3893 79.2582 44.4834 78.873L45.8874 78.379C46.187 78.2737 46.4436 78.1731 46.5613 78.0089C46.655 77.8782 46.6886 77.6586 46.7146 77.4465C46.746 77.1871 46.7741 76.9155 46.7289 76.6781C46.6557 76.2881 46.3622 75.9001 45.9236 75.6148C44.8706 74.9279 43.9449 74.9771 43.0938 75.7599H43.0931Z" fill="#595757"/><path d="M45.2401 77.1235C46.3469 77.1235 47.2441 76.2263 47.2441 75.1195C47.2441 74.0127 46.3469 73.1154 45.2401 73.1154C44.1333 73.1154 43.2361 74.0127 43.2361 75.1195C43.2361 76.2263 44.1333 77.1235 45.2401 77.1235Z" fill="#C4BBB0"/><path d="M45.2401 77.6155C43.8635 77.6155 42.7441 76.4954 42.7441 75.1195C42.7441 73.7435 43.8642 72.6235 45.2401 72.6235C46.616 72.6235 47.7368 73.7435 47.7368 75.1195C47.7368 76.4954 46.6167 77.6155 45.2401 77.6155ZM45.2401 73.6081C44.4068 73.6081 43.7287 74.2861 43.7287 75.1195C43.7287 75.9528 44.4068 76.6309 45.2401 76.6309C46.0735 76.6309 46.7515 75.9528 46.7515 75.1195C46.7515 74.2861 46.0735 73.6081 45.2401 73.6081Z" fill="#595757"/><path d="M49.4932 66.9267C48.9314 67.2524 48.5845 67.8395 48.2157 68.3739C47.5801 69.2955 46.8118 70.1261 45.9415 70.8315C45.4741 71.2106 44.9692 71.5616 44.6175 72.0501C44.2658 72.5386 44.0927 73.2119 44.3678 73.747C44.545 74.0918 44.8762 74.3265 45.2032 74.5352C45.8648 74.9566 46.5785 75.3316 47.3557 75.4431C48.133 75.5546 48.9868 75.3644 49.526 74.7938C50.1671 74.1151 50.2471 73.0627 50.828 72.3313C51.2536 71.7949 51.8981 71.4925 52.4824 71.136C53.0667 70.7795 53.6476 70.2965 53.7858 69.626C53.9288 68.9329 53.5573 68.2384 53.1194 67.6828C52.2902 66.6298 50.709 66.222 49.4932 66.9274V66.9267Z" fill="#F7F6F0"/><path d="M47.7888 75.9659C47.6232 75.9659 47.4556 75.9536 47.2866 75.9296C46.3608 75.7969 45.546 75.3357 44.9391 74.9491C44.5751 74.7165 44.1673 74.4305 43.9306 73.9714C43.5296 73.1914 43.8163 72.3183 44.2179 71.7607C44.547 71.305 44.9705 70.9711 45.3804 70.6475L45.6315 70.4477C46.4662 69.7717 47.1997 68.9794 47.81 68.094L47.9482 67.8908C48.2807 67.3982 48.6584 66.8412 49.2454 66.4998C50.6193 65.7027 52.4913 66.0886 53.506 67.377C54.1614 68.209 54.418 68.9986 54.2682 69.7245C54.1252 70.4162 53.625 71.0156 52.7383 71.5554C52.6206 71.6273 52.5002 71.6971 52.3798 71.7676C51.9255 72.0303 51.4972 72.2787 51.2132 72.6372C50.9861 72.9225 50.8424 73.2913 50.6891 73.6813C50.4921 74.1828 50.2895 74.7021 49.8831 75.1318C49.3741 75.6689 48.6153 75.9666 47.7881 75.9666L47.7888 75.9659ZM49.7408 67.3523C49.3481 67.5802 49.0648 67.9989 48.7644 68.443L48.6214 68.6537C47.9578 69.6164 47.1607 70.4778 46.2521 71.214L45.9907 71.422C45.6178 71.7162 45.2654 71.994 45.0171 72.3375C44.779 72.668 44.6216 73.162 44.8063 73.5212C44.9309 73.762 45.2134 73.9563 45.4686 74.1192C45.9921 74.4517 46.6872 74.8486 47.4261 74.9546C48.1165 75.0545 48.7829 74.8616 49.1681 74.4544C49.4425 74.1643 49.6026 73.7552 49.7723 73.3221C49.9447 72.8814 50.1233 72.4258 50.4421 72.0248C50.8417 71.5206 51.3726 71.212 51.8865 70.915C52.0007 70.8487 52.1143 70.783 52.2265 70.7146C52.8669 70.3246 53.2193 69.9352 53.3041 69.5261C53.3924 69.0984 53.2001 68.5805 52.7335 67.9873C52.0151 67.0759 50.7007 66.7961 49.7408 67.353V67.3523Z" fill="#595757"/><path d="M72.6349 23.7271C69.7592 25.1133 66.9779 26.8423 64.926 29.2883C62.8741 31.7344 61.6206 34.9878 62.118 38.142C62.3883 39.8546 63.1464 41.4474 63.6212 43.1149C65.0765 48.2293 63.8012 53.662 63.5063 58.9708C63.3886 61.0829 63.4392 63.2573 64.2042 65.2299C65.3447 68.1693 68.0056 70.3512 70.9689 71.4282C73.9322 72.5051 77.1767 72.5811 80.3096 72.2246C82.9377 71.9256 85.5787 71.3119 87.855 69.9646C90.1314 68.6174 92.0177 66.4574 92.5972 63.8765C93.8261 58.4035 89.1331 53.339 88.6357 47.7524C88.2505 43.4241 91.1932 39.6397 90.6076 35.3333C90.3147 33.1842 89.6155 31.4114 88.414 29.6058C87.0456 27.5484 85.7141 25.0941 83.4734 23.8646C80.7482 22.3689 75.1644 22.5092 72.6363 23.7277L72.6349 23.7271Z" fill="#F7F6F0"/><path d="M77.1041 72.9095C74.7532 72.9095 72.6725 72.5715 70.7999 71.8914C67.4904 70.6879 64.8528 68.2644 63.7444 65.4078C62.9035 63.243 62.9035 60.9249 63.0136 58.9434C63.0923 57.5305 63.2415 56.0902 63.3858 54.6979C63.7827 50.8752 64.1918 46.9225 63.1471 43.2503C62.976 42.6503 62.7619 42.0427 62.5539 41.4557C62.1871 40.4177 61.8088 39.3455 61.6309 38.22C61.1444 35.1335 62.2076 31.7631 64.5483 28.9729C66.3683 26.8033 68.8704 24.9956 72.4207 23.2844C75.0611 22.0124 80.7879 21.8304 83.7087 23.4329C85.7285 24.5413 86.9963 26.5084 88.2217 28.4098C88.4236 28.7225 88.6227 29.0324 88.8231 29.3328C90.0958 31.2472 90.7964 33.0775 91.094 35.267C91.4094 37.5851 90.7526 39.7485 90.117 41.8415C89.5149 43.8244 88.9456 45.6978 89.1249 47.7086C89.3274 49.9795 90.273 52.2251 91.1871 54.3961C92.4836 57.4744 93.824 60.6573 93.0768 63.9846C92.5069 66.521 90.6951 68.8549 88.1054 70.3882C86.072 71.5917 83.5404 72.3525 80.3643 72.7138C79.2224 72.8438 78.1373 72.9095 77.1041 72.9095ZM77.9881 23.2789C75.9998 23.2789 74.0341 23.5998 72.8484 24.1711C69.428 25.8201 67.0306 27.5463 65.303 29.6051C63.1778 32.1394 62.168 35.3019 62.6038 38.0654C62.7673 39.102 63.1149 40.0859 63.483 41.1272C63.6958 41.7287 63.9147 42.3506 64.0947 42.9801C65.1921 46.8356 64.772 50.8841 64.3656 54.7991C64.2226 56.1805 64.0742 57.6078 63.9968 58.9981C63.8922 60.8749 63.8901 63.061 64.6626 65.0513C65.6697 67.6472 68.0897 69.8579 71.1365 70.9656C73.6858 71.8921 76.6649 72.1439 80.2528 71.7361C83.2879 71.3899 85.6922 70.6721 87.6025 69.5411C89.9596 68.1453 91.6044 66.0414 92.1155 63.7684C92.7929 60.749 91.5716 57.8493 90.2784 54.7779C89.3349 52.5371 88.3593 50.2197 88.1437 47.7955C87.9474 45.5944 88.5714 43.5404 89.1741 41.5549C89.807 39.4721 90.4043 37.5043 90.1183 35.3997C89.8412 33.3649 89.1885 31.6625 88.0021 29.8781C87.7996 29.5737 87.5971 29.2603 87.3932 28.9428C86.2341 27.144 85.0354 25.2837 83.2339 24.2957C81.9572 23.595 79.9607 23.2789 77.9874 23.2789H77.9881Z" fill="#595757"/><path d="M67.4021 65.4502C65.5979 65.4502 64.1405 64.5101 63.3701 62.8317C63.2565 62.5847 63.3653 62.2919 63.6123 62.1783C63.8586 62.0647 64.1521 62.1735 64.2657 62.4205C64.9164 63.8375 66.1322 64.56 67.6956 64.456C70.5193 64.2658 71.6572 63.4263 74.2777 57.8814C75.3738 55.5606 78.7051 53.5914 82.0263 53.302C84.9827 53.0413 87.4732 54.1251 89.0441 56.3454C89.3712 56.8072 89.8727 57.6023 90.4043 58.4432C91.0413 59.451 91.8336 60.7052 92.069 60.9508C92.1545 61.0404 92.2243 61.1191 92.2832 61.1869C92.3071 61.2149 92.3283 61.2409 92.3482 61.2628C92.3858 61.2484 92.4392 61.2245 92.5144 61.1889C92.7594 61.0712 93.0536 61.1752 93.1712 61.4209C93.2889 61.6665 93.1849 61.96 92.9393 62.0777C92.2195 62.4225 91.9383 62.2878 91.5422 61.8362C91.4908 61.7773 91.4306 61.7089 91.3567 61.6309C91.0742 61.3353 90.494 60.4281 89.5723 58.9693C89.0708 58.1756 88.5522 57.3546 88.2402 56.914C86.88 54.9906 84.7063 54.056 82.1125 54.2818C79.1622 54.5398 76.1113 56.305 75.1692 58.3015C72.5343 63.8758 71.1502 65.2107 67.7627 65.4379C67.6416 65.4468 67.5212 65.4509 67.4035 65.4509L67.4021 65.4502Z" fill="#595757"/><path d="M68.8616 61.7828C68.1247 61.7828 67.0053 61.4045 66.1521 60.5554C65.3906 59.798 64.9883 58.8188 64.9883 57.7255C64.9883 57.4018 65.0389 56.6485 65.1087 55.6058C65.3133 52.5645 65.6944 46.9033 65.2832 44.3129C65.2154 43.8853 65.459 42.6188 65.6725 42.2911C66.33 41.2805 67.8305 40.1775 69.4253 40.0236C70.4475 39.9278 71.3493 40.2377 72.0212 40.9315C74.0389 43.015 72.3442 57.8562 71.9542 58.9844C71.4533 60.4329 70.7329 61.7746 68.8705 61.7835H68.8609L68.8616 61.7828ZM66.5052 42.8186C66.408 43.0218 66.2267 43.9386 66.2561 44.159C66.6844 46.8582 66.3136 52.3756 66.0919 55.6722C66.0255 56.6567 65.9735 57.4354 65.9735 57.7255C65.9735 58.563 66.2677 59.28 66.8473 59.8568C67.4973 60.5041 68.3443 60.7976 68.8602 60.7976H68.8663C69.9289 60.7921 70.4735 60.2536 71.0236 58.6615C71.597 57.0023 72.6979 43.0451 71.3144 41.6164C70.8512 41.1395 70.2505 40.9322 69.5211 41.0034C68.2547 41.1259 67.0252 42.0276 66.5052 42.8179V42.8186Z" fill="#595757"/><path d="M81.1779 44.5571C78.3186 44.5571 75.4593 43.0799 73.8938 40.6893C72.0677 37.8998 72.0917 34.0271 73.9527 31.2732C74.3399 30.6991 74.8298 30.2305 75.3033 29.7768L75.5462 29.5435C77.7083 27.445 80.9582 26.7923 84.2369 27.7995C85.0258 28.0417 85.8017 28.4734 86.542 29.083C89.1297 31.2137 90.3065 34.8174 89.4697 38.0517C88.6405 41.2572 85.7901 43.8852 82.5367 44.4422C82.0879 44.5195 81.6329 44.5565 81.1779 44.5565V44.5571ZM81.1991 28.3318C79.6603 28.3318 77.7945 28.7334 76.2311 30.2503L75.9841 30.4884C75.5277 30.9249 75.0974 31.3375 74.7689 31.824C73.1241 34.2591 73.1022 37.6822 74.7183 40.1495C76.3241 42.6023 79.4708 43.9667 82.3711 43.4713C85.255 42.9773 87.7818 40.6476 88.516 37.8047C89.2474 34.9789 88.1786 31.7049 85.916 29.8425C85.2749 29.315 84.6133 28.9441 83.9482 28.7402C83.459 28.5904 82.4348 28.3311 81.1991 28.3311V28.3318Z" fill="#595757"/><path d="M66.7281 30.8168C67.0777 31.3327 67.7749 31.5229 68.3907 31.4271C69.0065 31.3314 69.558 31.0002 70.0745 30.6519C73.189 28.5514 75.6919 25.5552 77.2033 22.1157C77.6925 22.2272 78.181 22.3388 78.6702 22.4503C78.222 24.78 72.5698 32.8955 70.2401 33.6317C66.5906 34.7852 64.0392 33.8588 64.7993 30.3851C64.9109 29.874 65.4363 28.7717 66.1356 28.9982C66.8082 29.2158 66.3723 30.2914 66.7281 30.8175V30.8168Z" fill="#F7F6F0"/><path d="M67.58 34.593C66.514 34.593 65.6533 34.32 65.0587 33.7774C64.486 33.254 63.8928 32.2229 64.3177 30.2797C64.4217 29.8028 64.7905 28.9701 65.3789 28.6328C65.6676 28.4666 65.9817 28.4317 66.2868 28.5295C67.008 28.7628 67.0333 29.4833 67.0504 29.9602C67.0579 30.1737 67.0675 30.4398 67.1359 30.5411C67.3829 30.9064 67.9084 31.0063 68.3148 30.9407C68.8547 30.8572 69.3637 30.537 69.7995 30.2434C72.8182 28.2072 75.2875 25.2508 76.7524 21.918C76.8482 21.7024 77.0815 21.5841 77.3128 21.6361L78.7797 21.9713C79.0383 22.0302 79.2039 22.284 79.154 22.544C78.6826 24.999 72.9578 33.2902 70.3886 34.1017C69.3493 34.4301 68.4038 34.5937 67.58 34.5937V34.593ZM65.9488 29.4607C65.9283 29.4607 65.9044 29.4669 65.8702 29.4867C65.6081 29.6372 65.3502 30.1723 65.2811 30.4898C65.0204 31.6817 65.1695 32.5424 65.7237 33.0494C66.4955 33.7541 68.0883 33.7945 70.0924 33.1616C71.9917 32.5616 77.0979 25.5614 78.0579 22.8157L77.4866 22.6857C75.9314 26.0349 73.4094 28.9975 70.3503 31.0604C69.7886 31.4394 69.1708 31.8048 68.4667 31.9143C67.5923 32.0498 66.75 31.7275 66.3204 31.0932C66.0932 30.7573 66.0788 30.3522 66.0658 29.9944C66.0604 29.8329 66.0501 29.5326 65.9967 29.471C65.981 29.4655 65.9659 29.4607 65.9482 29.4607H65.9488Z" fill="#595757"/><path d="M62.1699 44.6324C62.0837 45.5082 62.4142 46.4203 63.1285 46.9683C63.801 47.4842 64.7206 47.7524 65.5841 47.6149C66.841 47.4144 68.7034 45.6704 67.1187 43.4823C66.2614 42.2986 62.421 42.081 62.1699 44.6324Z" fill="#C4BBB0"/><path d="M65.1264 48.1424C64.317 48.1424 63.4884 47.8646 62.8288 47.3583C62.0139 46.7323 61.574 45.669 61.68 44.5832C61.7922 43.4439 62.5401 42.6058 63.7326 42.2828C65.1483 41.899 66.8834 42.3157 67.5183 43.1922C68.4331 44.4559 68.2922 45.5239 68.0123 46.1986C67.5464 47.3227 66.4674 47.9721 65.6621 48.1007C65.4863 48.1287 65.3063 48.1424 65.1264 48.1424ZM62.6605 44.6796C62.5873 45.4295 62.8815 46.1568 63.4289 46.5763C64.0159 47.0272 64.813 47.2365 65.5075 47.127C66.0541 47.0402 66.7992 46.5523 67.103 45.8202C67.3699 45.1777 67.2412 44.4874 66.7212 43.7696C66.3716 43.2866 65.0751 42.939 63.9906 43.2332C63.4343 43.3844 62.7515 43.7573 62.6612 44.6789L62.6605 44.6796Z" fill="#595757"/><path d="M71.8453 34.933C70.1642 36.3924 68.4824 37.8512 66.8013 39.3106C65.6122 40.3424 64.3074 41.6814 64.6023 43.2092C64.8123 44.2985 66.5468 45.7326 67.6374 46.0042C68.728 46.2759 69.6278 45.7093 70.7362 45.5068C75.0802 44.7145 78.8385 43.0115 82.722 40.926C83.4316 40.5449 84.1383 40.1378 84.7151 39.5802C86.351 37.9996 86.635 35.3127 85.5533 33.3347C84.501 31.41 81.5302 29.5921 79.2531 29.6427C76.5601 29.7029 73.7097 33.3142 71.8453 34.9323V34.933Z" fill="#F7F6F0"/><path d="M68.2334 46.5694C68.0035 46.5694 67.7661 46.5434 67.5184 46.4818C66.228 46.1602 64.3683 44.5989 64.1186 43.3023C63.7813 41.5541 65.1223 40.1152 66.4784 38.9384L71.523 34.5608C71.939 34.1989 72.42 33.722 72.9291 33.217C74.7306 31.4278 76.9727 29.2014 79.2429 29.1501C81.6267 29.0947 84.8068 30.94 85.9864 33.098C87.1974 35.3135 86.7979 38.2521 85.0579 39.9339C84.4196 40.5504 83.6382 40.9931 82.9561 41.3598C79.4133 43.2619 75.4928 45.1401 70.8258 45.9912C70.4967 46.0515 70.1724 46.1513 69.8591 46.2478C69.3425 46.4066 68.8129 46.5694 68.2341 46.5694H68.2334ZM79.3462 30.134C79.3188 30.134 79.2922 30.134 79.2655 30.1347C77.388 30.1771 75.3005 32.2496 73.6229 33.9156C73.1022 34.4329 72.6109 34.9207 72.1689 35.3039L67.1243 39.6814C65.981 40.6742 64.8438 41.8586 65.086 43.1155C65.253 43.9831 66.8205 45.2927 67.7565 45.5253C68.362 45.6779 68.9203 45.5048 69.5683 45.3057C69.9083 45.201 70.2607 45.0922 70.6479 45.0217C75.1808 44.1952 79.0171 42.356 82.4888 40.4916C83.1422 40.1406 83.8257 39.754 84.3731 39.2251C85.8051 37.8409 86.1267 35.4092 85.1216 33.5694C84.1445 31.7822 81.3605 30.1333 79.3462 30.1333V30.134Z" fill="#595757"/><path d="M44.9732 43.0074C44.5422 43.6136 44.8562 44.3553 45.2216 44.9519C45.7224 45.7682 46.421 46.6132 47.5157 46.7781C49.671 47.1017 51.9494 44.8445 50.5153 43.2893C49.5519 42.2452 45.9817 41.5876 44.9725 43.0074H44.9732Z" fill="#F7F6F0"/><path d="M47.9399 47.3022C47.7737 47.3022 47.6074 47.2899 47.4432 47.2652C46.0803 47.0606 45.2832 45.9946 44.8022 45.2099C44.5736 44.8363 43.8771 43.6991 44.5723 42.7221C44.9965 42.1254 45.7655 41.7765 46.7973 41.7101C48.3285 41.6143 50.1567 42.1713 50.8786 42.9547C51.5306 43.6615 51.6394 44.5667 51.1776 45.4377C50.5844 46.5564 49.2536 47.3015 47.9406 47.3015L47.9399 47.3022ZM47.1538 42.6851C47.0546 42.6851 46.9567 42.6879 46.8589 42.694C46.1439 42.7392 45.617 42.952 45.3748 43.2927C45.2387 43.485 45.1183 43.8387 45.6424 44.6946C46.2513 45.6874 46.852 46.1801 47.5903 46.2909C48.7473 46.464 49.9002 45.7442 50.3073 44.9772C50.5727 44.4764 50.5214 44.0214 50.1547 43.6232C49.7209 43.1531 48.3949 42.6851 47.1544 42.6851H47.1538Z" fill="#595757"/><path d="M51.1288 47.3749C52.3302 47.1821 53.1635 46.1496 52.9901 45.0687C52.8167 43.9878 51.7021 43.2679 50.5007 43.4606C49.2994 43.6534 48.466 44.6859 48.6395 45.7668C48.8129 46.8477 49.9274 47.5677 51.1288 47.3749Z" fill="#C4BBB0"/><path d="M50.737 47.8988C50.1978 47.8988 49.6758 47.749 49.231 47.4623C48.6426 47.0819 48.2595 46.5072 48.1527 45.8448C47.9365 44.4976 48.9546 43.2093 50.4222 42.9739C51.8905 42.7399 53.2596 43.6437 53.4758 44.9903C53.692 46.3375 52.6739 47.6258 51.2063 47.8612C51.0496 47.8865 50.8923 47.8988 50.7363 47.8988H50.737ZM50.8889 43.9222C50.7869 43.9222 50.6829 43.9304 50.5782 43.9475C49.647 44.0967 48.9957 44.8781 49.1257 45.6888C49.1872 46.072 49.4144 46.4079 49.7661 46.6351C50.1342 46.8725 50.5905 46.9628 51.0503 46.8889C51.9815 46.7398 52.6336 45.9584 52.5036 45.1476C52.3886 44.4278 51.6948 43.9222 50.8889 43.9222Z" fill="#595757"/><path d="M52.895 43.0916C52.6466 43.1443 52.3934 43.2079 52.1855 43.342C51.8748 43.5425 51.7134 43.8688 51.597 44.1856C51.2659 45.084 51.1817 46.0405 51.3528 46.9519C51.3877 47.1366 51.4349 47.3248 51.5567 47.476C51.8858 47.8858 53.6832 48.4223 54.273 48.3757C56.8722 48.1698 61.9696 49.1605 63.8169 47.6505C64.3013 47.2543 64.4457 45.0512 62.8139 44.0659C61.7499 43.4234 62.4122 42.8685 57.8602 43.0115C55.9458 43.0717 54.7957 42.6886 52.8936 43.0916H52.895Z" fill="#F7F6F0"/><path d="M59.804 48.9984C58.9625 48.9984 58.0935 48.9546 57.2608 48.9128C56.1483 48.8567 55.0974 48.804 54.3126 48.8663C53.6756 48.9067 51.6524 48.3805 51.1735 47.7839C50.9846 47.5485 50.9135 47.2769 50.8697 47.0422C50.6822 46.0446 50.7739 44.9978 51.1352 44.0153C51.2658 43.6595 51.4738 43.2154 51.9193 42.928C52.2025 42.7454 52.5186 42.668 52.793 42.6099C54.0553 42.3417 55.0002 42.4033 56.0005 42.4662C56.5705 42.5031 57.1609 42.5421 57.8465 42.5189C61.4543 42.4046 61.9682 42.7105 62.6311 43.305C62.7605 43.4214 62.8823 43.5308 63.0704 43.6444C63.9804 44.1931 64.5483 45.1558 64.6283 46.2848C64.6721 46.8972 64.564 47.6771 64.1302 48.0316C63.1765 48.8109 61.5487 48.9984 59.8047 48.9984H59.804ZM55.1419 47.853C55.8021 47.853 56.5417 47.8906 57.3101 47.9289C59.5721 48.0425 62.3862 48.1835 63.5062 47.2687C63.5719 47.1948 63.7122 46.7576 63.6232 46.1555C63.5617 45.7347 63.3414 44.9588 62.56 44.4874C62.2925 44.3259 62.1153 44.1665 61.9723 44.0385C61.5734 43.6807 61.2593 43.3954 57.8773 43.5041C57.1445 43.5274 56.5301 43.4884 55.9376 43.4501C54.966 43.3878 54.1279 43.3345 52.9976 43.5739C52.8094 43.6143 52.5966 43.6643 52.4536 43.7566C52.2949 43.8586 52.1772 44.0385 52.0595 44.356C51.7598 45.1709 51.6825 46.0378 51.8378 46.8602C51.8604 46.9806 51.8885 47.1017 51.9412 47.1674C52.1854 47.4315 53.757 47.9337 54.2353 47.8845C54.5144 47.8626 54.8189 47.8537 55.1419 47.8537V47.853Z" fill="#595757"/><path d="M68.0788 75.2111C69.2729 75.2111 70.2409 74.2431 70.2409 73.049C70.2409 71.8549 69.2729 70.8869 68.0788 70.8869C66.8847 70.8869 65.9167 71.8549 65.9167 73.049C65.9167 74.2431 66.8847 75.2111 68.0788 75.2111Z" fill="#C4BBB0"/><path d="M68.0788 75.7037C66.6153 75.7037 65.4248 74.5132 65.4248 73.0497C65.4248 71.5862 66.6153 70.395 68.0788 70.395C69.5423 70.395 70.7335 71.5855 70.7335 73.0497C70.7335 74.5139 69.543 75.7037 68.0788 75.7037ZM68.0788 71.3802C67.1586 71.3802 66.4094 72.1294 66.4094 73.0497C66.4094 73.97 67.1586 74.7185 68.0788 74.7185C68.9991 74.7185 69.7483 73.9693 69.7483 73.0497C69.7483 72.1301 68.9991 71.3802 68.0788 71.3802Z" fill="#595757"/><path d="M77.8999 56.7203C75.9506 57.8623 74.1532 60.1585 72.9969 62.2043C72.453 63.167 68.9827 66.5134 68.174 67.6465C67.7073 68.3006 67.212 69.0026 67.162 69.8264C67.0792 71.1969 68.2718 72.2895 69.4815 72.7103C71.8502 73.5348 74.4166 72.7103 76.76 71.8051C79.7322 70.6563 82.6839 69.3563 85.3044 67.4542C86.5968 66.5162 87.8558 65.3558 88.3819 63.7718C88.9525 62.0544 88.5393 60.0689 87.5581 58.5834C85.0061 54.719 81.6391 54.5295 77.8992 56.7203H77.8999Z" fill="#F7F6F0"/><path d="M71.5827 73.5423C70.8232 73.5423 70.0644 73.4349 69.3193 73.1756C67.9735 72.7069 66.5702 71.4507 66.6701 69.797C66.7289 68.8233 67.2831 68.0461 67.7723 67.3598C68.163 66.8124 69.0887 65.8326 70.0685 64.7947C71.1153 63.6863 72.3024 62.4294 72.5672 61.9607C73.989 59.4442 75.8883 57.3265 77.6495 56.2941C81.8888 53.8111 85.4576 54.509 87.9686 58.3111C89.0955 60.0175 89.4328 62.1694 88.8492 63.9258C88.2423 65.7505 86.7897 66.9828 85.5924 67.8518C82.8227 69.862 79.6631 71.2105 76.9372 72.2642C75.2746 72.906 73.4259 73.541 71.582 73.541L71.5827 73.5423ZM78.1489 57.1445C76.5315 58.0929 74.7662 60.0743 73.4266 62.4465C73.1016 63.0199 71.9768 64.2104 70.7862 65.4714C69.8721 66.4395 68.9266 67.4399 68.5756 67.9325C68.1439 68.5387 67.6964 69.1661 67.6546 69.8565C67.5883 70.9478 68.6057 71.8845 69.6436 72.2458C71.883 73.0251 74.3995 72.1903 76.5835 71.3467C79.2505 70.3163 82.3376 69.0005 85.0156 67.056C86.0939 66.2733 87.3973 65.1751 87.9153 63.6172C88.4065 62.14 88.1123 60.3152 87.1483 58.8551C84.9109 55.4682 81.9668 54.9079 78.1496 57.1452L78.1489 57.1445Z" fill="#595757"/><path d="M69.5054 86.5663C69.2919 86.8578 69.0764 87.1554 68.9567 87.4961C68.8369 87.8369 68.826 88.2344 69.0128 88.5437C69.2057 88.8625 69.5724 89.0356 69.9351 89.1211C71.2857 89.4393 72.6671 88.7776 73.8241 88.012C74.3352 87.674 74.847 87.2929 75.1357 86.7524C75.4244 86.2119 75.4265 85.4722 74.9845 85.048C74.6889 84.7634 74.2627 84.671 73.8603 84.591C73.1351 84.4459 71.7694 83.8719 71.0996 84.2824C70.5207 84.6368 69.9166 86.0025 69.5047 86.5663H69.5054Z" fill="#F7F6F0"/><path d="M70.6562 89.6973C70.3818 89.6973 70.102 89.6671 69.8215 89.6015C69.2515 89.4674 68.826 89.1889 68.5906 88.7982C68.3443 88.3904 68.308 87.856 68.4914 87.3326C68.6357 86.9194 68.8862 86.5773 69.1065 86.2748C69.2248 86.1134 69.3747 85.8527 69.5334 85.5763C69.9323 84.8831 70.3449 84.1661 70.8416 83.8616C71.5354 83.436 72.559 83.7261 73.3807 83.9574C73.5955 84.0183 73.7933 84.0744 73.9568 84.1073C74.3625 84.1887 74.9167 84.3002 75.3252 84.6929C75.9622 85.3046 75.93 86.3084 75.5688 86.9844C75.2328 87.6138 74.6622 88.0476 74.095 88.4233C73.2274 88.9966 71.9924 89.6966 70.6555 89.6966L70.6562 89.6973ZM69.9022 86.8571C69.7134 87.1164 69.5177 87.3846 69.4212 87.6597C69.3364 87.9012 69.3412 88.1366 69.4342 88.2898C69.5622 88.5013 69.8735 88.6018 70.0473 88.6436C71.0202 88.8714 72.1334 88.5409 73.5517 87.6029C73.9794 87.3203 74.4563 86.9803 74.7012 86.5225C74.8853 86.177 74.914 85.6652 74.643 85.4052C74.4569 85.2253 74.1477 85.152 73.7639 85.0754C73.5798 85.0385 73.3567 84.9762 73.1145 84.9078C72.5788 84.7566 71.6839 84.5061 71.3575 84.7039C71.0742 84.8777 70.661 85.5954 70.3887 86.0696C70.2156 86.3693 70.0534 86.6532 69.9029 86.8578L69.9022 86.8571Z" fill="#595757"/><path d="M72.8013 86.6703C73.862 86.6703 74.7219 85.8104 74.7219 84.7497C74.7219 83.689 73.862 82.8291 72.8013 82.8291C71.7406 82.8291 70.8807 83.689 70.8807 84.7497C70.8807 85.8104 71.7406 86.6703 72.8013 86.6703Z" fill="#C4BBB0"/><path d="M72.8012 87.1629C71.4705 87.1629 70.3881 86.0805 70.3881 84.7497C70.3881 83.4189 71.4705 82.3372 72.8012 82.3372C74.132 82.3372 75.2144 83.4196 75.2144 84.7497C75.2144 86.0798 74.132 87.1629 72.8012 87.1629ZM72.8012 83.3217C72.0137 83.3217 71.3726 83.9628 71.3726 84.7497C71.3726 85.5365 72.0137 86.1783 72.8012 86.1783C73.5888 86.1783 74.2299 85.5372 74.2299 84.7497C74.2299 83.9622 73.5888 83.3217 72.8012 83.3217Z" fill="#595757"/><path d="M65.9167 75.3863C65.9304 76.7444 67.1291 77.7441 68.0692 78.7334C68.7801 79.4813 69.3898 80.3235 69.8769 81.2301C70.1759 81.7864 70.4366 82.3775 70.8806 82.8284C71.6948 83.6556 72.9736 83.852 74.1361 83.7494C74.5336 83.7145 74.9489 83.6406 75.2554 83.3874C75.5907 83.1103 75.7357 82.6615 75.7569 82.2304C75.8069 81.2192 75.2725 80.2681 74.6431 79.469C74.0136 78.6698 73.2692 77.9507 72.7759 77.0633C72.4721 76.5159 72.2709 75.9172 71.9583 75.3746C71.3726 74.3593 70.1622 73.2214 68.945 73.0538C67.4979 72.854 65.901 73.8598 65.9167 75.3863Z" fill="#F7F6F0"/><path d="M73.5744 84.2673C72.299 84.2673 71.2316 83.8876 70.5296 83.1739C70.115 82.7525 69.8537 82.2496 69.6012 81.7638L69.4438 81.4634C68.9765 80.5938 68.3943 79.7898 67.7135 79.0735C67.5848 78.938 67.4514 78.8025 67.3159 78.665C66.4361 77.7714 65.4385 76.7595 65.4248 75.391C65.4173 74.6193 65.7484 73.8988 66.3581 73.3617C67.0737 72.7322 68.0672 72.4325 69.0135 72.5659C70.4284 72.7609 71.753 74.0308 72.3859 75.1283C72.561 75.4328 72.7013 75.7475 72.8361 76.052C72.9524 76.3127 73.068 76.574 73.2063 76.8238C73.5189 77.3855 73.9445 77.8802 74.3947 78.4036C74.6102 78.6547 74.8264 78.9052 75.0303 79.1645C75.8986 80.2667 76.2975 81.2773 76.2489 82.2544C76.2174 82.8941 75.9759 83.4312 75.5695 83.7672C75.1528 84.112 74.6335 84.2003 74.1806 84.2399C73.9739 84.2584 73.7714 84.2673 73.5744 84.2673ZM66.4094 75.3822C66.4196 76.3517 67.2318 77.1768 68.0173 77.9739C68.1561 78.1156 68.2937 78.2552 68.4271 78.3947C69.1681 79.1754 69.8023 80.0505 70.3107 80.9975L70.4756 81.3102C70.7041 81.7515 70.9203 82.1675 71.2316 82.4836C72.0424 83.3067 73.3732 83.3204 74.093 83.2595C74.3947 83.2321 74.7327 83.1815 74.9414 83.0084C75.1295 82.8524 75.2472 82.5609 75.2657 82.2065C75.3013 81.4778 74.9708 80.6814 74.2565 79.7741C74.0615 79.5264 73.8542 79.2863 73.6476 79.0468C73.185 78.509 72.7061 77.9527 72.3455 77.3027C72.1923 77.0277 72.0643 76.7403 71.9357 76.4529C71.805 76.1587 71.6818 75.8809 71.5313 75.6209C71.0113 74.7192 69.905 73.6839 68.878 73.5423C68.2184 73.452 67.5034 73.6662 67.0087 74.102C66.7316 74.3456 66.4032 74.7657 66.4094 75.3822Z" fill="#595757"/><path d="M68.7958 18.0851C68.7663 16.4485 70.0212 13.5549 69.8905 11.9231C69.7379 10.023 68.6938 8.29745 67.4178 6.88114C66.0829 5.39982 64.4607 4.18535 62.6756 3.29724C60.4594 4.49256 58.9761 6.34677 58.2282 8.44045C57.6679 10.0093 57.3668 11.6453 56.8551 13.2306C55.8062 16.4786 53.07 18.8411 50.7184 21.3241C50.0164 22.0651 49.311 22.9307 48.9648 23.8653C48.7616 24.414 48.6829 24.9867 48.8006 25.5724C49.0517 26.8204 50.1273 27.7126 51.1399 28.4912C52.9106 29.8528 54.7231 31.2069 56.7866 32.0683C58.3076 32.7032 59.9942 33.0474 61.6233 32.8934C61.6671 32.7477 61.7143 32.6027 61.7622 32.459C62.5298 30.16 61.743 28.4885 63.4446 27.1536C65.9166 25.2132 68.869 22.1151 68.7958 18.0851Z" fill="#C4BBB0"/><path d="M82.2972 10.649C81.5733 8.51566 79.938 6.28377 78.2378 4.79698C75.8554 2.71356 72.511 1.71735 69.0702 1.63524C66.4729 1.57298 64.3149 2.10392 62.5976 3.02966C64.3827 3.91777 66.0056 5.13224 67.3398 6.61356C68.6158 8.02919 69.6599 9.75545 69.8125 11.6555C69.9432 13.2873 68.6849 19.0621 68.0781 20.5824C66.9183 23.4862 64.0043 24.8259 63.444 27.1536C62.872 29.5305 62.523 29.6817 61.6842 32.1921C61.6363 32.3358 61.5891 32.4808 61.5453 32.6266C62.1269 32.5718 62.7009 32.4569 63.2572 32.2646C66.4202 31.1706 68.3428 28.0259 71.081 26.1081C72.7895 24.9114 74.7901 24.2128 76.6805 23.3281C78.5717 22.4435 80.4423 21.2919 81.5192 19.5102C82.3074 18.2068 82.6051 16.6667 82.7221 15.1498C82.8391 13.637 82.785 12.0866 82.2965 10.649H82.2972Z" fill="#F7F6F0"/><path d="M60.5211 32.981C59.1568 32.981 57.7104 32.6786 56.2756 32.0792C54.2073 31.2157 52.4441 29.9192 50.518 28.4378C49.3953 27.5744 48.2766 26.6151 47.9968 25.2262C47.8688 24.5926 47.9311 23.9282 48.1815 23.2508C48.5893 22.1493 49.437 21.177 50.0398 20.5414C50.427 20.1322 50.8253 19.7265 51.2248 19.3187C53.1912 17.3133 55.224 15.2401 56.0656 12.6346C56.2907 11.9381 56.4788 11.2128 56.6615 10.5108C56.8907 9.6289 57.1274 8.71616 57.4442 7.83011C59.0261 3.39916 63.2866 0.825844 68.8396 0.965423C72.6349 1.05574 76.0012 2.22232 78.3193 4.24895C80.1995 5.89242 81.8094 8.216 82.521 10.3131C82.9664 11.6254 83.1142 13.1622 82.9712 15.0102C82.822 16.9431 82.4176 18.3977 81.6992 19.5869C80.4574 21.6423 78.2214 22.8595 76.6471 23.5957C76.1284 23.8386 75.6023 24.0671 75.0748 24.2963C73.7221 24.8834 72.3243 25.4909 71.1221 26.3339C70.1075 27.0448 69.1797 27.9575 68.2827 28.8402C66.7836 30.3153 65.2332 31.8411 63.1765 32.5527C62.3506 32.838 61.4557 32.9803 60.5231 32.9803L60.5211 32.981ZM58.3713 8.16263C58.0696 9.00763 57.8383 9.89847 57.6146 10.7599C57.4292 11.4749 57.2369 12.2145 57.0029 12.9384C56.0902 15.7642 53.9746 17.9222 51.9282 20.0091C51.5327 20.4121 51.1386 20.8144 50.7548 21.2194C50.2122 21.7921 49.4507 22.6617 49.1058 23.5929C48.917 24.1027 48.8705 24.5734 48.9629 25.0318C49.1756 26.0883 50.1041 26.8765 51.1195 27.6572C52.9901 29.0954 54.6972 30.3523 56.656 31.1706C58.8496 32.0854 61.05 32.2468 62.8535 31.6228C64.7002 30.9838 66.1042 29.6024 67.591 28.1395C68.5167 27.2282 69.4739 26.2867 70.5563 25.5286C71.8405 24.6295 73.2849 24.0021 74.6814 23.3952C75.2007 23.1701 75.7193 22.945 76.2297 22.7062C77.6871 22.0241 79.752 20.9061 80.8556 19.0799C81.4919 18.0269 81.8518 16.7105 81.9886 14.9363C82.1207 13.2237 81.99 11.8149 81.5877 10.6313C80.9288 8.68879 79.4277 6.52737 77.6706 4.992C75.5257 3.11658 72.3811 2.0369 68.8157 1.95205C63.6944 1.8289 59.8034 4.15247 58.372 8.16332L58.3713 8.16263Z" fill="#595757"/><path d="M66.5106 5.39094C65.3406 6.17299 64.5414 7.34026 64.2376 8.59099C64.1213 9.06857 64.0755 9.57078 64.226 10.0415C64.3382 10.3918 64.5537 10.7107 64.7912 11.011C65.3898 11.7678 66.1397 12.4342 66.9984 12.9734C68.011 13.609 69.2145 14.1023 69.8666 15.0253C70.7253 16.2398 70.4399 17.953 71.5819 18.9787C72.7224 20.0029 74.8264 19.7525 76.023 18.7775C77.2197 17.8025 77.6897 16.3383 77.9149 14.9309C78.0674 13.9764 78.1311 12.9994 77.9196 12.0538C77.7842 11.4469 77.5379 10.8633 77.2922 10.2824C76.725 8.94063 76.1462 7.57905 75.1712 6.42478C73.0905 3.96163 69.3486 3.49431 66.5112 5.39163L66.5106 5.39094Z" fill="#605344"/><path d="M73.5024 20.1363C72.6759 20.1363 71.8665 19.8969 71.2527 19.3447C70.5022 18.6714 70.2873 17.7929 70.0786 16.9445C69.9302 16.3403 69.7899 15.7704 69.4642 15.3092C69.04 14.7092 68.3134 14.2987 67.545 13.8642C67.2714 13.7089 66.9977 13.5542 66.7363 13.3907C65.8256 12.8194 65.0409 12.1215 64.4052 11.3169C64.1794 11.0322 63.9023 10.647 63.7566 10.1927C63.5979 9.69529 63.5986 9.13355 63.7587 8.47534C64.0967 7.08298 64.9998 5.80966 66.2361 4.98313C69.2822 2.94624 73.2848 3.42929 75.5461 6.10798C76.5765 7.32792 77.1704 8.73261 77.7451 10.0914C77.9956 10.6847 78.2542 11.297 78.3992 11.947C78.5942 12.8201 78.5942 13.793 78.4006 15.0096C78.2056 16.2274 77.7793 17.9824 76.3336 19.16C75.5899 19.7648 74.5321 20.1377 73.5017 20.1377L73.5024 20.1363ZM66.7842 5.80008C65.7504 6.49182 64.9971 7.55098 64.7165 8.70729C64.6002 9.18487 64.5934 9.57213 64.6953 9.89166C64.7925 10.1948 65.0046 10.4856 65.1784 10.7052C65.7449 11.4216 66.4455 12.0442 67.2604 12.556C67.5088 12.712 67.7694 12.8591 68.0301 13.0069C68.8594 13.4756 69.7167 13.9607 70.2688 14.7413C70.7026 15.3544 70.8716 16.0441 71.0352 16.7098C71.2165 17.4467 71.3875 18.1419 71.9109 18.6126C72.8716 19.4768 74.7114 19.2106 75.7124 18.3957C76.6135 17.6609 77.1588 16.5353 77.4283 14.8536C77.6021 13.7643 77.6056 12.909 77.4393 12.1612C77.3127 11.5981 77.0828 11.0528 76.8392 10.4753C76.2926 9.1835 75.7288 7.84861 74.7948 6.74292C72.8565 4.44808 69.4129 4.0444 66.7849 5.80213L66.7842 5.80008Z" fill="#595757"/><path d="M62.5155 22.8725C63.7304 22.8725 64.7152 21.8928 64.7152 20.6844C64.7152 19.4759 63.7304 18.4963 62.5155 18.4963C61.3006 18.4963 60.3158 19.4759 60.3158 20.6844C60.3158 21.8928 61.3006 22.8725 62.5155 22.8725Z" fill="#999999"/><path d="M62.5155 23.3644C61.0314 23.3644 59.8231 22.1623 59.8231 20.6844C59.8231 19.2065 61.0307 18.0043 62.5155 18.0043C64.0002 18.0043 65.2078 19.2065 65.2078 20.6844C65.2078 22.1623 64.0002 23.3644 62.5155 23.3644ZM62.5155 18.9882C61.5747 18.9882 60.8084 19.7491 60.8084 20.6837C60.8084 21.6183 61.5747 22.3792 62.5155 22.3792C63.4562 22.3792 64.2232 21.6183 64.2232 20.6837C64.2232 19.7491 63.4569 18.9882 62.5155 18.9882Z" fill="#595757"/><path d="M61.923 22.0234C61.2826 22.0234 60.5662 21.8927 60.1215 21.6197C59.8895 21.4774 59.817 21.1743 59.9593 20.9423C60.101 20.7097 60.4047 20.6372 60.6367 20.7802C61.0164 21.0128 62.0304 21.1147 62.5388 20.9717C63.5459 20.6892 63.9653 19.5287 63.9688 19.5171C64.0433 19.2646 64.3033 19.1045 64.562 19.1688C64.8179 19.2318 64.9807 19.474 64.9294 19.7326C64.8774 19.9947 64.2637 21.5116 62.8049 21.9207C62.5627 21.9885 62.2535 22.0234 61.923 22.0234Z" fill="#595757"/><path d="M50.0603 24.1129C50.377 24.6152 50.4297 25.2439 50.3538 25.8324C50.3025 26.2319 50.1868 26.6418 49.9125 26.938C49.8858 26.9668 49.8564 26.9948 49.8194 27.0072C49.7407 27.0338 49.6586 26.9812 49.5936 26.9292C48.8239 26.312 47.903 24.6131 48.6426 23.4219C48.6426 23.4219 49.5403 23.2878 50.0596 24.1129H50.0603Z" fill="#666767"/><path d="M49.777 27.5066C49.6381 27.5066 49.4698 27.4608 49.2857 27.3123C48.2937 26.5159 47.344 24.5796 48.2252 23.1619C48.3012 23.0394 48.4278 22.9559 48.5708 22.9347C48.62 22.9258 49.7941 22.765 50.4776 23.8502C50.819 24.3921 50.9449 25.0989 50.843 25.8946C50.7664 26.4919 50.5803 26.9421 50.2744 27.2719C50.2169 27.3342 50.1218 27.4252 49.9761 27.4738C49.9207 27.4922 49.8536 27.5059 49.777 27.5059V27.5066ZM48.9477 23.9159C48.6453 24.7424 49.1989 25.8221 49.7086 26.3633C49.7832 26.2059 49.8345 26.0096 49.8653 25.7687C49.9159 25.3739 49.9186 24.8122 49.6436 24.375C49.4383 24.0486 49.1503 23.9453 48.9471 23.9159H48.9477Z" fill="#595757"/><path d="M63.4447 27.1543C62.8946 28.8381 62.2836 30.5028 61.6131 32.1436C61.585 32.2127 61.5535 32.2859 61.4933 32.3303C61.4345 32.3741 61.3572 32.3837 61.284 32.3912C60.1434 32.5041 58.9844 32.4111 57.8753 32.1251C57.2116 31.954 55.7467 31.2999 55.7467 31.2999C56.7586 30.5774 58.7675 29.4731 59.8848 28.9196L63.4454 27.1543H63.4447Z" fill="#999999"/><path d="M60.3295 32.9304C59.4661 32.9304 58.6033 32.8209 57.7528 32.602C57.0563 32.4227 55.6072 31.7768 55.5456 31.7494C55.3841 31.6776 55.274 31.5243 55.2562 31.3492C55.2384 31.174 55.3164 31.0016 55.4601 30.899C56.5233 30.1395 58.5595 29.0263 59.6652 28.4782L63.2258 26.7123C63.403 26.624 63.6164 26.6514 63.767 26.7814C63.9168 26.9114 63.9743 27.1187 63.9127 27.3069C63.3592 28.9996 62.7393 30.6889 62.0695 32.3297C62.0305 32.4241 61.9586 32.5986 61.7862 32.7265C61.6165 32.8531 61.4325 32.8709 61.3333 32.8811C60.9994 32.914 60.6641 32.9304 60.3295 32.9304ZM56.7819 31.2055C57.2239 31.3868 57.7104 31.5736 57.9978 31.6475C59.0467 31.9178 60.1167 32.0047 61.1766 31.9061C61.6897 30.6479 62.1632 29.3862 62.5997 28.1224L60.1031 29.3609C59.2765 29.7707 57.8438 30.5439 56.7819 31.2062V31.2055Z" fill="#595757"/><path d="M94.9003 49.6189C96.1647 48.5283 97.7014 47.8153 99.0629 46.8519C100.036 46.1636 100.951 45.2817 101.475 44.2266C101.871 43.4288 103.083 43.7559 103.066 44.6481C103.046 45.749 102.631 47.0955 102.127 47.8557C101.298 49.1044 100.552 50.2313 98.3664 50.6459C96.9344 50.9175 95.6802 51.3267 94.5787 52.2914C93.4771 53.2562 92.6533 54.6355 92.652 56.1093C92.6513 57.0994 93.213 58.7682 92.2887 59.4777C91.4122 58.3836 91.7194 55.8308 92.0074 54.5466C92.4323 52.6534 93.434 50.8826 94.8996 49.6182L94.9003 49.6189Z" fill="#605344"/><path d="M92.2893 59.9703C92.1449 59.9703 92.0019 59.9067 91.9048 59.7856C90.7307 58.3207 91.3841 55.0741 91.5271 54.4385C91.9855 52.3913 93.0693 50.5467 94.5773 49.246C95.371 48.5611 96.2659 48.0206 97.1307 47.4985C97.6815 47.166 98.2508 46.8226 98.7762 46.4503C99.8436 45.6957 100.602 44.8739 101.032 44.0084C101.31 43.448 101.911 43.1709 102.522 43.3214C103.154 43.4761 103.569 44.0132 103.557 44.6591C103.537 45.8092 103.107 47.2687 102.536 48.1294C101.705 49.3829 100.847 50.6781 98.4567 51.131C97.26 51.3582 96.0004 51.701 94.903 52.663C93.7857 53.6414 93.1452 54.8983 93.1439 56.1114C93.1439 56.3372 93.1795 56.6246 93.2171 56.929C93.3416 57.9287 93.4956 59.1719 92.5883 59.8691C92.4987 59.9375 92.3933 59.9703 92.2886 59.9703H92.2893ZM92.2086 56.7915C92.1894 57.3532 92.2202 57.8883 92.3174 58.3317C92.3516 57.9437 92.2941 57.4812 92.2407 57.0508C92.2291 56.9626 92.2188 56.8763 92.2086 56.7915ZM95.2218 49.9918C94.0409 51.0099 93.1514 52.4043 92.6704 53.9712C93.0276 53.2268 93.5654 52.5261 94.2543 51.922C95.5331 50.8012 97.0048 50.4044 98.2747 50.1636C100.256 49.7872 100.9 48.8157 101.716 47.5854C102.187 46.8739 102.556 45.6081 102.574 44.6399C102.579 44.3628 102.338 44.2896 102.29 44.278C102.21 44.2581 102.019 44.2383 101.915 44.4463C101.412 45.4596 100.548 46.4045 99.3469 47.2543C98.7913 47.647 98.207 48.0001 97.6411 48.3415C96.7722 48.8656 95.9525 49.361 95.2218 49.9918Z" fill="#595757"/></svg>