<svg width="161" height="150" viewBox="0 0 161 150" fill="none" xmlns="http://www.w3.org/2000/svg">
<g clip-path="url(#clip0_14_3)">
<path d="M81.8407 103.085C109.228 103.085 131.43 80.8831 131.43 53.4955C131.43 26.1079 109.228 3.90591 81.8407 3.90591C54.4532 3.90591 32.2511 26.1079 32.2511 53.4955C32.2511 80.8831 54.4532 103.085 81.8407 103.085Z" fill="#F29DA9"/>
<path d="M77.7742 62.7406C74.7493 61.7828 71.6537 60.4272 68.528 60.9705C66.0275 61.4055 63.9096 62.9996 61.8973 64.5455L52.5849 71.6999C48.9886 74.4634 45.0551 77.8622 44.9807 82.3975C44.9174 86.3014 47.8142 89.6066 50.8674 92.0403C66.7928 104.734 90.6233 103.977 108.439 94.1119C114.011 91.0263 119.743 85.8836 118.985 79.5581C118.252 73.4331 108.775 64.5991 102.923 63.2174C99.4784 62.404 95.3991 64.178 91.9385 64.4151C87.1537 64.757 82.3474 64.1888 77.7742 62.7406Z" fill="#F7F6F1"/>
<path d="M82.215 80.1744C81.0943 80.1727 79.9744 80.1125 78.86 79.9941C75.3781 79.6305 72.2538 77.6169 69.8246 74.1709C66.8068 69.8859 65.4582 64.2139 66.0929 61.6043C66.1445 61.3885 66.2383 61.185 66.3689 61.0055C66.4994 60.8261 66.6641 60.6741 66.8534 60.5584C67.0428 60.4427 67.2532 60.3656 67.4725 60.3314C67.6917 60.2972 67.9156 60.3066 68.1312 60.3591C68.3468 60.4117 68.55 60.5062 68.7289 60.6375C68.9079 60.7687 69.0592 60.9339 69.1742 61.1237C69.2892 61.3136 69.3655 61.5242 69.3989 61.7436C69.4322 61.963 69.4219 62.1869 69.3686 62.4023C69.0449 63.7312 69.8855 68.4036 72.5811 72.228C73.8735 74.0599 76.0706 76.3126 79.2118 76.6391C85.0167 77.2449 89.6489 76.1289 92.9789 73.3238C93.937 72.5129 94.7824 71.5774 95.4923 70.5423C95.4398 70.5704 95.3873 70.5985 95.3342 70.628C90.3361 73.3139 83.166 73.9714 77.8972 72.2278C73.6844 70.8331 71.6831 67.7394 71.9492 63.033C71.9745 62.5866 72.176 62.1686 72.5095 61.8708C72.843 61.573 73.2812 61.4199 73.7276 61.4452C74.1739 61.4704 74.592 61.672 74.8898 62.0055C75.1876 62.339 75.3407 62.7771 75.3154 63.2235C75.1342 66.4293 76.1892 68.1122 78.9569 69.0268C83.3436 70.4788 89.5599 69.9034 93.7383 67.6582C95.4752 66.7249 97.6968 65.0557 98.4157 62.4059C98.5284 61.9893 98.7967 61.6318 99.1651 61.407C99.5336 61.1822 99.9742 61.1073 100.396 61.1978C101.99 61.54 101.745 63.0915 101.597 64.0184C101.313 65.8016 100.291 70.3588 96.9359 74.1571C93.4006 78.1574 88.459 80.1744 82.215 80.1744Z" fill="#4D4D4D"/>
<path d="M44.6008 86.4222C44.185 86.4217 43.7841 86.2676 43.4751 85.9895C43.166 85.7113 42.9707 85.3288 42.9265 84.9154C42.4697 80.6408 46.8642 70.6445 55.1233 67.7883C56.0424 67.4705 58.1335 65.6061 59.814 64.1077C62.0617 62.1047 64.1821 60.2133 65.8293 59.6005C66.0375 59.5202 66.2595 59.4819 66.4826 59.488C66.7056 59.4941 66.9252 59.5444 67.1286 59.636C67.3321 59.7277 67.5153 59.8587 67.6677 60.0217C67.8201 60.1846 67.9387 60.3762 68.0164 60.5853C68.0942 60.7945 68.1298 61.0169 68.1209 61.2399C68.1121 61.4628 68.0591 61.6818 67.965 61.8841C67.8709 62.0864 67.7376 62.268 67.5728 62.4184C67.408 62.5688 67.2149 62.685 67.0049 62.7602C65.9521 63.1522 63.7927 65.0773 62.0574 66.6243C59.7634 68.6697 57.7821 70.4361 56.2253 70.9747C49.6142 73.2606 45.9775 81.7355 46.2792 84.5569C46.3265 85.0013 46.1953 85.4462 45.9146 85.7939C45.6339 86.1416 45.2266 86.3637 44.7823 86.4112C44.722 86.4181 44.6614 86.4217 44.6008 86.4222Z" fill="#4D4D4D"/>
<path d="M120.836 85.4953C120.537 85.4955 120.244 85.4165 119.986 85.2665C119.729 85.1164 119.515 84.9007 119.368 84.6412C118.744 83.5418 118.766 82.3109 118.789 81.0081C118.842 78.0198 118.908 74.3007 111.157 69.9483C110.164 69.3909 103.98 64.2982 101.989 62.4529C101.823 62.3032 101.689 62.1222 101.594 61.9203C101.499 61.7184 101.445 61.4996 101.435 61.2766C101.425 61.0537 101.46 60.831 101.537 60.6214C101.613 60.4119 101.731 60.2197 101.883 60.056C102.035 59.8924 102.217 59.7604 102.42 59.6679C102.624 59.5754 102.843 59.5241 103.066 59.5171C103.289 59.5101 103.511 59.5474 103.72 59.6269C103.928 59.7065 104.119 59.8266 104.281 59.9804C106.4 61.9449 112.09 66.5689 112.822 67.0179C122.314 72.3472 122.217 77.8068 122.159 81.0682C122.145 81.8605 122.131 82.6798 122.3 82.9787C122.445 83.2351 122.521 83.5251 122.52 83.8198C122.518 84.1146 122.439 84.4038 122.291 84.6586C122.143 84.9133 121.931 85.1248 121.675 85.2719C121.42 85.419 121.13 85.4965 120.835 85.4967L120.836 85.4953Z" fill="#4D4D4D"/>
<path d="M59.2961 92.0088C59.0349 92.0086 58.7773 91.9476 58.5436 91.8309C58.3099 91.7142 58.1066 91.5448 57.9495 91.3361C57.7924 91.1274 57.6859 90.885 57.6383 90.6282C57.5908 90.3713 57.6035 90.1069 57.6756 89.8558C59.5993 83.1706 57.099 76.6821 54.1354 70.0705C54.0428 69.8682 53.9912 69.6496 53.9835 69.4272C53.9758 69.2048 54.0122 68.9832 54.0906 68.7749C54.169 68.5667 54.2878 68.376 54.4403 68.214C54.5927 68.0519 54.7757 67.9216 54.9787 67.8306C55.1818 67.7396 55.4008 67.6896 55.6233 67.6837C55.8457 67.6778 56.0671 67.7159 56.2747 67.796C56.4823 67.876 56.672 67.9964 56.8329 68.1501C56.9937 68.3038 57.1226 68.4878 57.212 68.6916C60.4413 75.8971 63.1543 83.0088 60.9153 90.7886C60.8143 91.1401 60.6017 91.4492 60.3097 91.6693C60.0176 91.8894 59.6619 92.0086 59.2961 92.0088Z" fill="#4D4D4D"/>
<path d="M107.817 96.5657C107.794 96.5657 107.77 96.5657 107.747 96.5657C107.3 96.5475 106.879 96.3526 106.576 96.0239C106.273 95.6952 106.113 95.2595 106.131 94.8128C106.206 92.9689 105.893 91.1569 105.562 89.2391C104.609 83.7179 103.528 77.4607 110.609 67.5028C110.869 67.1385 111.262 66.892 111.703 66.8177C112.144 66.7433 112.596 66.8471 112.96 67.1063C113.325 67.3654 113.571 67.7587 113.646 68.1996C113.72 68.6405 113.616 69.0929 113.357 69.4572C107.089 78.2704 108.002 83.5547 108.884 88.6654C109.231 90.6723 109.59 92.748 109.5 94.9499C109.482 95.3843 109.297 95.795 108.983 96.0961C108.669 96.3972 108.252 96.5654 107.817 96.5657Z" fill="#4D4D4D"/>
<path d="M93.9418 101.806C93.5125 101.805 93.0995 101.641 92.7871 101.347C92.4747 101.052 92.2863 100.65 92.2605 100.221C92.1908 99.071 91.3791 88.975 84.0888 89.2554C81.101 89.3661 78.8205 90.2668 77.3103 91.931C75.0907 94.3776 74.953 97.9435 75.0682 99.8524C75.0829 100.074 75.0536 100.297 74.982 100.507C74.9104 100.717 74.7979 100.911 74.651 101.078C74.5041 101.245 74.3258 101.381 74.1261 101.478C73.9265 101.576 73.7095 101.633 73.4877 101.646C73.2659 101.66 73.0437 101.629 72.8337 101.556C72.6238 101.484 72.4304 101.37 72.2645 101.222C72.0986 101.074 71.9636 100.895 71.8672 100.695C71.7708 100.495 71.715 100.277 71.7029 100.056C71.5557 97.6182 71.7638 93.027 74.8131 89.6659C76.956 87.3033 80.0348 86.0319 83.964 85.8861C92.4797 85.5835 95.2999 94.6212 95.6259 100.018C95.6528 100.465 95.5013 100.903 95.2048 101.238C94.9083 101.572 94.4911 101.776 94.0449 101.803C94.0103 101.805 93.9758 101.806 93.9418 101.806Z" fill="#4D4D4D"/>
<path d="M120.198 64.641C122.288 63.23 124.345 61.1051 124.096 58.5961C123.959 57.2194 123.14 56.02 122.348 54.8874L118.583 49.5059C120.165 49.2894 121.775 49.4499 123.283 49.9742C124.791 50.4985 126.154 51.3718 127.261 52.5228C128.347 53.692 129.156 55.0917 129.626 56.6173C130.096 58.1428 130.215 59.7549 129.974 61.3329C129.865 62.223 129.555 63.0766 129.069 63.8298C127.117 66.633 121.736 67.3222 119.118 69.5407C116.654 71.6293 118.984 72.5601 116.73 69.7828C115.109 67.7793 118.492 65.7926 120.198 64.641Z" fill="#605344"/>
<path d="M117.856 73.3353C117.477 73.3379 117.106 73.2228 116.795 73.0058C116.485 72.7889 116.249 72.4808 116.121 72.1241C115.908 71.691 115.637 71.2894 115.314 70.9308C114.991 70.5523 114.752 70.1089 114.615 69.6304C114.477 69.1519 114.444 68.6494 114.517 68.1569C114.848 65.9963 117.114 64.494 118.769 63.3972C118.912 63.3022 119.049 63.212 119.176 63.1263C120.172 62.454 122.468 60.6839 122.278 58.7762C122.185 57.8395 121.476 56.8263 120.851 55.9326L115.398 48.1342L118.314 47.6979C120.186 47.4379 122.093 47.6255 123.878 48.2452C125.664 48.8648 127.277 49.899 128.585 51.2627C129.86 52.6378 130.809 54.2822 131.363 56.0741C131.916 57.866 132.059 59.7593 131.78 61.6139C131.632 62.7789 131.218 63.8941 130.569 64.873C129.15 66.9108 126.652 67.9355 124.237 68.9239C122.748 69.5342 121.207 70.1649 120.3 70.9334C120.043 71.1272 119.827 71.371 119.665 71.6501C119.634 72.0603 119.465 72.448 119.186 72.7503C118.907 73.0527 118.534 73.252 118.128 73.3159C118.038 73.3294 117.947 73.3359 117.856 73.3353ZM121.22 66.1534C121.11 66.2273 120.995 66.3051 120.872 66.3857C121.522 66.0876 122.192 65.8134 122.852 65.5428C124.777 64.7542 126.768 63.9386 127.572 62.7844C127.9 62.2579 128.105 61.6648 128.172 61.0486C128.369 59.7471 128.271 58.418 127.884 57.1597C127.498 55.9014 126.833 54.7463 125.939 53.7799C124.926 52.7331 123.656 51.9701 122.256 51.5667L123.845 53.8391C124.639 54.9739 125.725 56.5279 125.913 58.4143C126.188 61.177 124.521 63.9256 121.22 66.1545V66.1534Z" fill="#4D4D4D"/>
<path d="M81.7711 105.054C71.8447 105.04 62.1334 102.161 53.8033 96.7631C45.4732 91.3648 38.8785 83.6765 34.8113 74.6217C30.744 65.5669 29.3771 55.5304 30.8746 45.7177C32.3722 35.905 36.6706 26.7331 43.2536 19.3037C47.7317 14.222 53.1732 10.079 59.2632 7.11441C65.3532 4.14984 71.9708 2.42262 78.7328 2.03272C107.107 0.317176 131.59 22.011 133.303 50.3875C134.128 64.036 129.496 77.453 120.428 87.6869C111.36 97.9208 98.5984 104.133 84.9499 104.958C83.8869 105.022 82.8273 105.054 81.7711 105.054ZM81.8714 5.87149C80.9096 5.87149 79.9424 5.90071 78.9699 5.95915C69.5682 6.52711 60.5461 9.87021 53.0444 15.5657C45.5426 21.2612 39.8983 29.0533 36.825 37.9567C33.7518 46.86 33.3877 56.4747 35.7788 65.585C38.1699 74.6953 43.2088 82.892 50.2582 89.1385C57.3078 95.3848 66.0513 99.4003 75.383 100.677C84.7147 101.955 94.2156 100.436 102.684 96.3136C111.153 92.1911 118.209 85.6501 122.96 77.5176C127.711 69.385 129.944 60.0262 129.377 50.6246C127.853 25.3859 106.83 5.87149 81.8714 5.87149Z" fill="#4D4D4D"/>
<path d="M55.5813 84.6513C51.5635 83.4712 48.4409 83.8365 46.7142 86.5534C46.1328 87.4679 45.9395 88.5682 45.7589 89.6364C45.4035 91.7309 45.109 94.0978 46.3933 95.7894C47.3452 97.0439 49.0082 97.6157 50.5813 97.5482C52.1544 97.4808 53.6531 96.8531 55.0255 96.0813C56.0346 95.5631 56.933 94.8531 57.6705 93.9913C58.3073 93.1602 58.6986 92.1674 58.7999 91.1254C58.9012 90.0833 58.7085 89.0337 58.2437 88.0956C57.2884 86.2412 58.5488 87.2707 55.5745 84.6355" fill="#F7F6F1"/>
<path d="M50.32 99.2399C48.1673 99.2399 46.2155 98.3453 45.0495 96.8088C43.3763 94.6038 43.6801 91.8043 44.0962 89.3537C44.2844 88.2445 44.5176 86.8636 45.2917 85.6484C47.3146 82.4646 50.8628 81.5641 55.8384 82.9706C56.1559 83.0206 56.4523 83.161 56.6922 83.3749C58.7587 85.2059 59.1312 85.5358 59.4257 86.5545C59.5017 86.8227 59.608 87.0815 59.7423 87.3258C60.3572 88.5511 60.6131 89.9253 60.4803 91.2898C60.3476 92.6543 59.8317 93.9535 58.9922 95.0373C58.1191 96.0721 57.0521 96.9262 55.8513 97.5516C53.9343 98.6294 52.2831 99.1641 50.6535 99.2334C50.5414 99.2382 50.4302 99.2399 50.32 99.2399ZM51.7116 85.6959C49.5763 85.6959 48.6609 86.6326 48.1369 87.4572C47.729 88.0987 47.5719 89.0236 47.4202 89.9179C47.1086 91.7529 46.8763 93.639 47.7352 94.7707C48.2766 95.4835 49.3628 95.9128 50.5088 95.8647C51.5888 95.8184 52.7613 95.4205 54.1984 94.6125C55.0127 94.1968 55.7415 93.6317 56.3469 92.9467C56.7855 92.3705 57.0549 91.6836 57.125 90.963C57.195 90.2423 57.063 89.5164 56.7436 88.8665C56.5092 88.4289 56.3225 87.9674 56.1868 87.4898V87.4853C55.9791 87.2541 55.3253 86.6672 54.7665 86.171C53.7737 85.8786 52.7464 85.7194 51.7116 85.6976V85.6959Z" fill="#4D4D4D"/>
<path d="M114.16 94.6091C115.894 95.3486 118.569 95.9133 120.069 95.1991C121.843 94.3531 122.224 92.0161 122.176 90.0516C122.126 87.9135 121.823 85.7209 120.773 83.8578C119.723 81.9948 117.801 80.5144 115.663 80.4717C114.78 80.4675 113.909 80.6628 113.113 81.0429C111.721 81.7191 110.576 82.8129 109.836 84.1717C109.097 85.5304 108.8 87.0862 108.987 88.6218C109.424 91.6736 111.567 93.6403 114.159 94.6099" fill="#F7F6F1"/>
<path d="M118.288 97.2133C116.652 97.1723 115.038 96.8194 113.533 96.1738C110.061 94.8628 107.797 92.1987 107.32 88.859C107.075 86.9634 107.436 85.0391 108.35 83.3604C109.263 81.6817 110.684 80.3344 112.408 79.5105C113.436 79.0222 114.56 78.774 115.697 78.7848C118.288 78.8365 120.796 80.4627 122.244 83.0273C123.279 84.864 123.794 87.0824 123.864 90.0087C123.966 94.2961 122.252 96.024 120.796 96.7183C120.007 97.0664 119.151 97.2354 118.288 97.2133ZM115.567 82.1558C114.962 82.1684 114.366 82.3107 113.819 82.573C112.755 83.094 111.879 83.933 111.313 84.9737C110.746 86.0144 110.517 87.2055 110.657 88.3822C111.067 91.248 113.398 92.5241 114.751 93.0301C114.774 93.0391 114.798 93.0484 114.822 93.0582C116.486 93.7685 118.557 94.0517 119.343 93.6763C120.445 93.1509 120.514 90.9937 120.492 90.0907C120.436 87.7385 120.059 86.0207 119.306 84.685C118.455 83.1762 117.012 82.1845 115.63 82.1564C115.61 82.1558 115.588 82.1558 115.567 82.1558Z" fill="#4D4D4D"/>
<path d="M113.717 21.3117C111.482 16.2685 107.665 11.9639 103.043 8.81459C102.361 8.34988 101.662 7.91112 100.946 7.49829C101.03 14.1141 100.018 20.7793 97.2992 26.7933C94.2114 33.6243 88.7706 39.5554 81.8062 42.3288C76.5943 44.4045 70.8672 44.6442 65.2756 45.0985C56.7921 45.7885 48.3625 47.029 40.0399 48.8119C46.8431 54.5854 56.2795 57.8746 64.7181 60.6123C81.2777 65.9871 93.9215 67.0112 104.277 60.4884C116.518 52.7805 117.637 30.1556 113.717 21.3117Z" fill="#F7F6F1"/>
<path d="M81.8062 42.3288C88.7706 39.5554 94.2114 33.6243 97.2992 26.7933C100.018 20.7807 101.028 14.1141 100.946 7.49829C98.0467 5.81617 94.9068 4.58906 91.6356 3.85984C83.1413 1.99145 78.3683 2.70959 74.8021 4.40322C68.7704 7.26902 66.1915 12.9231 54.9014 13.5718C46.4425 14.0579 37.5099 12.2021 31.5408 17.7101C23.9347 24.7305 32.5756 41.6969 38.53 47.4493C39.017 47.919 39.5203 48.3732 40.0399 48.8119C48.3625 47.029 56.7921 45.7887 65.2756 45.0987C70.8672 44.6441 76.5943 44.4045 81.8062 42.3288Z" fill="#C6BCB0"/>
<path d="M87.6541 66.8541C81.0515 66.8541 73.3813 65.3504 64.1405 62.3469C54.3675 59.1707 44.2409 55.5041 37.2525 48.7484C32.7771 44.4216 26.6322 33.8474 26.7331 25.2469C26.7775 21.4901 27.9797 18.4971 30.3066 16.3511C35.3673 11.6846 42.1767 11.7487 48.7598 11.815C50.7566 11.8343 52.8214 11.8543 54.8047 11.7413C61.9513 11.3337 65.1874 8.87555 68.6134 6.27357C70.2503 5.03031 71.9425 3.74492 74.0303 2.75453C78.6482 0.563034 84.2028 0.35709 92.0399 2.08444C96.3483 3.05289 100.434 4.82899 104.081 7.31874C109.176 10.7934 113.086 15.3809 115.391 20.5899C119.656 30.2246 118.34 53.8046 105.239 62.048C100.145 65.2532 94.468 66.8541 87.6541 66.8541ZM46.431 15.4526C41.154 15.4526 36.2787 15.8133 32.7847 19.0357C31.2256 20.4733 30.419 22.5775 30.3872 25.2896C30.299 32.7631 35.8941 42.3515 39.793 46.1225C46.2208 52.3368 55.9038 55.8292 65.2705 58.8731C82.9059 64.6047 94.2769 64.63 103.294 58.9574C110.013 54.7298 112.418 45.9149 113.253 41.0366C114.454 34.0272 113.971 26.405 112.051 22.0695C110.021 17.4836 106.554 13.4268 102.023 10.3374C98.7616 8.10936 95.1074 6.51946 91.2538 5.6518C82.2911 3.67664 78.1784 4.82971 75.5958 6.05498C73.8502 6.88325 72.3797 8.00007 70.8229 9.18264C67.2828 11.8706 63.2715 14.9171 55.0126 15.3885C52.9074 15.5082 50.7808 15.4877 48.7245 15.468C47.9543 15.4599 47.1879 15.4526 46.431 15.4526Z" fill="#4D4D4D"/>
<path d="M80.8607 14.0725C74.9962 17.4322 76.7643 27.6609 78.2663 32.5791C79.7684 37.4973 78.8246 41.846 75.6565 45.8967C74.5916 47.2585 73.0773 48.2646 72.2352 49.7739C70.6835 52.5554 72.0352 56.2973 74.5883 58.2028C77.1414 60.1082 80.5362 60.4976 83.7108 60.2361C92.0464 59.5497 98.6765 58.3115 103.844 51.7356C110.07 43.8139 109.984 33.0862 108.984 27.0917C106.874 14.442 89.7492 8.98091 80.8607 14.0725Z" fill="#605344"/>
<path d="M81.9568 62.1368C78.537 62.1368 75.6973 61.3085 73.4962 59.666C70.4177 57.3691 68.5078 52.708 70.6403 48.8847C71.2696 47.7566 72.1544 46.8932 72.9352 46.1313C73.3919 45.7064 73.8204 45.2521 74.218 44.7714C77.0942 41.0934 77.8259 37.3889 76.5199 33.1115C75.7099 30.4598 72.0698 17.0029 79.953 12.4867C85.1283 9.52148 92.7693 9.64257 99.4191 12.7944C105.651 15.7498 109.794 20.8518 110.785 26.791C111.401 30.4812 112.823 43.2669 105.281 52.8642C99.516 60.1993 91.859 61.3978 83.8606 62.0564C83.2077 62.11 82.5731 62.1368 81.9568 62.1368ZM88.7614 14.0081C86.1389 14.0081 83.6946 14.5552 81.7686 15.6585C77.2268 18.2602 78.528 27.1841 80.0131 32.047C81.652 37.4133 80.67 42.4518 77.0951 47.0222C76.5985 47.6329 76.0608 48.2089 75.4857 48.7462C74.8249 49.391 74.2006 50.0001 73.8303 50.664C72.7244 52.6467 73.8941 55.4061 75.6807 56.7389C78.0006 58.4702 81.2465 58.6068 83.5611 58.416C92.5746 57.674 97.9643 56.2627 102.409 50.6073C109.027 42.1863 107.736 30.709 107.182 27.3923C106.391 22.6483 102.991 18.5311 97.8544 16.0977C95.0124 14.7452 91.9087 14.0316 88.7614 14.007V14.0081Z" fill="#4D4D4D"/>
<path d="M64.0952 27.7884C62.0687 27.7841 60.091 27.1657 58.4229 26.0147C58.5923 26.8954 59.0251 27.7038 59.6638 28.3332C60.3026 28.9626 61.1174 29.3833 62.0004 29.5396C62.8835 29.696 63.7931 29.5806 64.6092 29.2089C65.4253 28.8371 66.1093 28.2264 66.5708 27.4575C65.7641 27.6781 64.9315 27.7894 64.0952 27.7884Z" fill="#999999"/>
<path d="M62.7658 20.7349C62.0612 20.7366 61.3673 20.9062 60.7415 21.2297C60.1156 21.5533 59.5759 22.0214 59.1672 22.5952C60.8889 24.4495 63.8031 25.2014 66.1859 24.3411C66.4877 24.2324 66.8158 24.2207 67.1246 24.3076C66.9546 23.4541 66.5374 22.6693 65.925 22.0509C65.3126 21.4326 64.5319 21.0078 63.68 20.8296C63.3793 20.7667 63.0729 20.735 62.7658 20.7349Z" fill="#999999"/>
<path d="M69.0694 21.0485C68.3915 20.0133 67.4688 19.1613 66.383 18.5679C65.2972 17.9745 64.0818 17.6581 62.8445 17.6466C61.6072 17.6352 60.3862 17.929 59.2896 18.5022C58.1929 19.0753 57.2546 19.9101 56.5577 20.9325C55.8607 21.9549 55.4267 23.1334 55.294 24.3637C55.1613 25.5939 55.3341 26.8378 55.797 27.9853C56.26 29.1328 56.9987 30.1485 57.9479 30.9423C58.8971 31.7361 60.0274 32.2835 61.2387 32.5361C61.7489 32.643 62.2688 32.6971 62.7902 32.6974C64.1456 32.6942 65.475 32.325 66.6381 31.6289C67.8011 30.9327 68.7545 29.9354 69.3976 28.7422C70.0408 27.5491 70.3498 26.2044 70.292 24.8502C70.2342 23.496 69.8118 22.1825 69.0694 21.0485ZM65.2053 28.8788C64.5968 29.2777 63.8995 29.5207 63.1749 29.5863C62.4503 29.652 61.7207 29.5383 61.0504 29.2552C60.3802 28.9722 59.7899 28.5285 59.3316 27.9634C58.8734 27.3982 58.5613 26.729 58.4229 26.0147C60.091 27.1657 62.0687 27.7841 64.0952 27.7884C64.931 27.7892 65.7632 27.6779 66.5694 27.4575C66.2277 28.028 65.7613 28.5139 65.2053 28.8788ZM66.4851 22.741C66.7976 23.217 67.0152 23.749 67.126 24.3076C66.8172 24.2206 66.489 24.2323 66.1873 24.341C63.8053 25.2013 60.8903 24.4484 59.1686 22.5951C59.5773 22.0213 60.117 21.5532 60.7428 21.2297C61.3687 20.9062 62.0626 20.7366 62.7671 20.7349C63.0743 20.735 63.3807 20.7667 63.6814 20.8296C64.2516 20.9472 64.7929 21.1767 65.2739 21.5047C65.7549 21.8328 66.1661 22.253 66.4837 22.741H66.4851Z" fill="#4D4D4D"/>
<path d="M32.4172 17.1617C33.1409 17.8231 33.6422 18.6925 33.852 19.6503C34.0619 20.6081 33.9701 21.6073 33.5893 22.5109C33.2084 23.4144 32.5572 24.1779 31.725 24.6964C30.8929 25.215 29.9206 25.4632 28.9417 25.407" fill="#666666"/>
<path d="M29.1951 26.9596C29.0813 26.9596 28.9674 26.9563 28.8535 26.9498C28.6504 26.9388 28.4515 26.8879 28.2682 26.7999C28.0848 26.712 27.9207 26.5887 27.7851 26.4371C27.6495 26.2856 27.5451 26.1088 27.478 25.9168C27.4109 25.7248 27.3823 25.5215 27.3939 25.3185C27.4055 25.1155 27.4571 24.9167 27.5457 24.7337C27.6342 24.5506 27.7581 24.3869 27.91 24.2518C28.062 24.1167 28.2392 24.0129 28.4314 23.9464C28.6235 23.8799 28.827 23.852 29.0299 23.8643C29.6904 23.9023 30.3465 23.7349 30.908 23.385C31.4695 23.0351 31.9089 22.5199 32.1658 21.9102C32.4227 21.3005 32.4844 20.6262 32.3426 19.98C32.2008 19.3338 31.8623 18.7473 31.3737 18.3012C31.0711 18.0247 30.8908 17.6394 30.8724 17.2299C30.8539 16.8205 30.9989 16.4205 31.2754 16.1179C31.5519 15.8153 31.9372 15.635 32.3467 15.6165C32.7561 15.5981 33.1562 15.7431 33.4587 16.0195C34.3963 16.8766 35.0525 17.9973 35.3412 19.2343C35.6299 20.4713 35.5376 21.7667 35.0763 22.9503C34.615 24.1338 33.8063 25.15 32.7566 25.8654C31.707 26.5807 30.4654 26.9617 29.1951 26.9582V26.9596Z" fill="#4D4D4D"/>
<path d="M34.1339 41.6069L54.3394 45.8969C52.2333 48.8426 49.2008 50.9976 45.7263 52.0177" fill="#999999"/>
<path d="M45.7257 53.5632C45.3535 53.5633 44.9937 53.429 44.7125 53.185C44.4314 52.941 44.2477 52.6038 44.1954 52.2352C44.1431 51.8666 44.2256 51.4915 44.4277 51.1789C44.6298 50.8663 44.938 50.6372 45.2956 50.5336C47.6356 49.8512 49.767 48.5924 51.4944 46.8727L33.813 43.1185C33.6133 43.0776 33.4237 42.9975 33.2551 42.883C33.0865 42.7685 32.9422 42.6217 32.8306 42.4512C32.7189 42.2806 32.6421 42.0897 32.6046 41.8894C32.567 41.689 32.5695 41.4833 32.6118 41.2839C32.6541 41.0845 32.7355 40.8954 32.8512 40.7276C32.9669 40.5598 33.1146 40.4166 33.2859 40.3061C33.4572 40.1956 33.6486 40.1201 33.8492 40.084C34.0498 40.0478 34.2556 40.0517 34.4547 40.0954L54.6603 44.3854C54.9109 44.4386 55.1443 44.5532 55.3396 44.719C55.5349 44.8848 55.6859 45.0966 55.779 45.3353C55.8721 45.5739 55.9044 45.832 55.8731 46.0862C55.8417 46.3405 55.7476 46.5829 55.5993 46.7918C53.2951 50.0261 49.9685 52.3899 46.1561 53.5017C46.0163 53.5424 45.8714 53.5631 45.7257 53.5632Z" fill="#4D4D4D"/>
<path d="M144.577 142.017C144.47 142.017 144.363 142.015 144.256 142.012C143.996 142.006 143.74 141.949 143.503 141.844C143.265 141.739 143.051 141.588 142.872 141.4C142.693 141.212 142.553 140.99 142.46 140.747C142.368 140.504 142.324 140.246 142.332 139.986C142.34 139.726 142.399 139.471 142.506 139.234C142.613 138.997 142.766 138.784 142.956 138.607C143.146 138.43 143.369 138.292 143.613 138.202C143.856 138.111 144.115 138.07 144.375 138.08C144.881 138.094 145.388 138.052 145.885 137.954C145.072 137.094 144.492 136.042 144.197 134.897C143.917 133.77 143.966 132.588 144.338 131.488C144.71 130.389 145.389 129.419 146.295 128.694C148.313 127.137 151.295 127.108 153.229 128.625C153.767 129.036 154.201 129.567 154.498 130.176C154.813 130.887 154.955 131.663 154.911 132.439C154.869 133.883 154.497 135.299 153.824 136.577C153.882 136.561 153.94 136.545 153.998 136.527C154.297 136.434 155.041 135.971 156.66 133.907C157.061 133.396 157.615 132.694 158.679 132.776C159.06 132.805 159.423 132.943 159.726 133.175C160.03 133.406 160.259 133.721 160.386 134.08C160.514 134.44 160.534 134.829 160.445 135.199C160.356 135.57 160.161 135.907 159.884 136.169C159.848 136.215 159.805 136.271 159.755 136.334C158.459 137.987 156.9 139.748 155.156 140.286C153.55 140.776 151.841 140.826 150.209 140.431C148.513 141.467 146.564 142.015 144.577 142.017ZM149.865 131.442C149.447 131.436 149.038 131.565 148.698 131.809C148.394 132.065 148.169 132.402 148.048 132.781C147.928 133.159 147.916 133.564 148.015 133.949C148.261 134.77 148.802 135.472 149.532 135.92C150.412 134.927 150.923 133.661 150.979 132.335C150.995 132.177 150.983 132.017 150.944 131.863C150.904 131.808 150.856 131.76 150.801 131.72C150.527 131.527 150.198 131.43 149.864 131.442H149.865Z" fill="#4D4D4D"/>
<path d="M144.378 129.528C144.202 129.037 143.838 128.636 143.366 128.413C142.894 128.19 142.353 128.164 141.862 128.34C140.237 128.926 138.556 129.344 136.846 129.585C136.233 126.35 136.118 123.689 136.542 122.143C136.922 120.759 137.638 120.735 137.874 120.728C138.636 120.7 139.393 121.236 139.564 121.728C139.646 121.975 139.776 122.203 139.947 122.399C140.118 122.595 140.326 122.756 140.56 122.871C140.793 122.986 141.047 123.054 141.307 123.07C141.566 123.086 141.827 123.051 142.073 122.966C142.319 122.881 142.545 122.748 142.739 122.574C142.934 122.401 143.091 122.191 143.204 121.956C143.316 121.722 143.381 121.467 143.394 121.207C143.407 120.947 143.369 120.687 143.281 120.442C142.535 118.285 140.147 116.717 137.746 116.797C135.335 116.875 133.467 118.484 132.748 121.102C132.074 123.554 132.369 126.895 132.887 129.806C131.989 129.782 131.094 129.708 130.206 129.583C129.689 129.511 129.165 129.646 128.748 129.96C128.332 130.274 128.057 130.74 127.984 131.257C127.912 131.774 128.047 132.298 128.361 132.714C128.675 133.131 129.142 133.406 129.658 133.478C130.945 133.66 132.244 133.751 133.543 133.751C133.595 133.751 133.646 133.748 133.698 133.748C134.236 136.488 134.831 140.381 134.555 142.305C134.353 143.71 133.876 144.214 133.676 144.238C133.472 144.261 133.054 144.001 132.839 143.464C132.646 142.98 132.267 142.592 131.788 142.387C131.308 142.181 130.767 142.175 130.283 142.369C129.798 142.562 129.411 142.941 129.205 143.42C129 143.899 128.993 144.441 129.187 144.925C129.975 146.895 131.763 148.173 133.649 148.173C133.814 148.173 133.979 148.163 134.142 148.144C134.989 148.043 137.802 147.363 138.448 142.865C138.813 140.328 138.157 136.113 137.645 133.44C139.534 133.157 141.391 132.689 143.189 132.043C143.432 131.956 143.656 131.822 143.847 131.648C144.039 131.475 144.194 131.265 144.305 131.031C144.415 130.798 144.478 130.545 144.491 130.287C144.503 130.029 144.465 129.771 144.378 129.528Z" fill="#4D4D4D"/>
<path d="M122.698 143.204C121.325 143.227 119.982 142.807 118.867 142.006C117.134 142.979 115.489 143.234 113.975 142.763C111.631 142.032 110.322 139.754 109.542 138.103C109.432 137.869 109.368 137.616 109.356 137.358C109.343 137.101 109.382 136.843 109.469 136.599C109.556 136.356 109.69 136.133 109.863 135.941C110.037 135.75 110.247 135.595 110.48 135.484C110.714 135.374 110.967 135.311 111.225 135.298C111.483 135.286 111.741 135.324 111.984 135.411C112.475 135.587 112.876 135.951 113.099 136.422C113.815 137.938 114.504 138.808 115.143 139.007C115.593 139.148 116.206 138.996 116.972 138.559C117.033 138.484 117.083 138.4 117.12 138.31C117.061 137.958 117.007 137.57 116.964 137.141C116.721 134.837 116.892 133.215 117.469 132.317C117.648 132.04 117.892 131.813 118.181 131.655C118.47 131.498 118.794 131.415 119.123 131.415H119.126C119.456 131.415 119.78 131.499 120.069 131.657C120.358 131.816 120.603 132.044 120.78 132.322C121.511 133.464 121.572 136.468 121.154 138.449C121.191 138.604 121.238 138.758 121.294 138.907C121.972 139.361 123.109 139.398 124.153 138.983C124.961 138.662 125.854 137.993 125.939 137.081C125.992 136.565 126.246 136.09 126.647 135.761C127.047 135.431 127.562 135.274 128.078 135.322C128.595 135.37 129.071 135.62 129.404 136.018C129.737 136.416 129.899 136.929 129.855 137.446C129.647 139.69 128.019 141.679 125.607 142.639C124.682 143.009 123.695 143.201 122.698 143.204Z" fill="#4D4D4D"/>
<path d="M122.35 127.072C122.27 126.553 122.076 126.058 121.782 125.623C121.488 125.188 121.102 124.823 120.65 124.555C120.247 124.288 119.789 124.116 119.309 124.05C118.83 123.984 118.343 124.027 117.882 124.175C117.363 124.364 116.898 124.676 116.527 125.085C116.156 125.495 115.89 125.988 115.753 126.523C115.62 127.001 115.609 127.506 115.722 127.989C115.834 128.473 116.067 128.921 116.397 129.292C117.03 129.97 117.888 130.394 118.811 130.487C118.973 130.506 119.135 130.516 119.298 130.517C119.696 130.52 120.092 130.45 120.465 130.311C121.091 130.053 121.615 129.596 121.956 129.011C122.296 128.425 122.435 127.744 122.35 127.072Z" fill="#4D4D4D"/>
<path d="M89.7894 142.81C89.3049 142.81 88.8375 142.631 88.4767 142.308C88.1159 141.985 87.8871 141.539 87.8341 141.058C87.7812 140.576 87.9078 140.092 88.1898 139.698C88.4717 139.304 88.8892 139.028 89.362 138.923C91.4622 138.454 93.2011 137.43 94.8613 135.659C93.5944 131.546 92.8474 126.062 93.3688 122.627C93.8029 119.769 95.1277 111.074 99.9616 111.807C101.223 111.998 103.455 112.887 104.232 116.689C104.729 119.118 104.485 121.92 104.194 123.843C103.571 127.94 100.941 133.992 99.2834 136.462C99.4557 136.953 99.7119 137.41 100.041 137.814C101.148 138.881 105.374 138.866 106.915 137.484C107.107 137.309 107.331 137.174 107.576 137.086C107.82 136.998 108.08 136.96 108.339 136.972C108.598 136.985 108.853 137.05 109.087 137.161C109.322 137.273 109.532 137.43 109.705 137.624C109.878 137.817 110.012 138.043 110.098 138.288C110.183 138.533 110.219 138.793 110.204 139.052C110.189 139.312 110.123 139.565 110.009 139.799C109.895 140.032 109.736 140.241 109.541 140.413C106.522 143.12 100.007 143.244 97.3102 140.645C96.9891 140.32 96.7112 139.954 96.4833 139.558C94.7052 141.147 92.5471 142.25 90.2179 142.761C90.0772 142.793 89.9336 142.809 89.7894 142.81ZM99.5334 115.749C99.0698 116.223 98.0238 118.171 97.2576 123.218C96.934 125.348 97.2239 128.299 97.7516 131C98.8414 128.594 99.9596 125.531 100.305 123.252C100.651 120.981 100.677 118.93 100.379 117.477C100.287 117.02 100.028 116.004 99.5343 115.749H99.5334Z" fill="#4D4D4D"/>
<path d="M64.6516 143.295C63.5272 143.261 62.4216 142.998 61.4028 142.521C58.7823 141.405 56.445 138.154 57.0693 134.644C57.4626 132.432 59.5181 130.243 61.2781 129.404C64.6996 127.775 68.7556 129.409 70.7119 133.205C71.5053 134.744 71.5346 136.682 70.7948 138.664C70.2553 140.109 69.109 142.002 67.6565 142.583C66.6509 142.986 65.7392 143.295 64.6516 143.295ZM64.0646 132.699C63.6847 132.701 63.3102 132.789 62.9689 132.956C62.1328 133.354 61.0716 134.598 60.9409 135.332C60.642 137.014 62.0631 138.527 62.9428 138.9C64.5058 139.566 64.941 139.429 66.0912 138.971C66.6812 138.476 67.8481 136.234 67.2151 135.006C66.6731 133.954 65.4818 132.698 64.0646 132.698V132.699Z" fill="#4D4D4D"/>
<path d="M61.2401 124.292C60.9577 124.035 60.6259 123.839 60.2652 123.715C59.9044 123.591 59.5222 123.542 59.1419 123.571C58.6552 123.61 58.181 123.745 57.747 123.969C57.3129 124.193 56.9276 124.5 56.6132 124.874C56.2473 125.315 55.991 125.837 55.8653 126.396C55.7396 126.956 55.7481 127.537 55.89 128.092C55.9933 128.509 56.1915 128.895 56.4691 129.222C56.75 129.529 57.089 129.778 57.4665 129.953C58.025 130.256 58.6384 130.446 59.2708 130.509C59.3551 130.515 59.4377 130.518 59.52 130.518C59.9079 130.525 60.2933 130.455 60.6534 130.31C61.0134 130.166 61.341 129.951 61.6166 129.678C61.9204 129.358 62.1512 128.975 62.2931 128.557C62.5507 127.821 62.5883 127.025 62.4013 126.268C62.2143 125.51 61.8108 124.823 61.2401 124.292Z" fill="#4D4D4D"/>
<path d="M69.3562 124.932C69.2093 124.419 68.6077 122.712 67.0425 122.258C66.3619 122.052 65.6348 122.057 64.9571 122.273C64.2795 122.489 63.6832 122.905 63.247 123.466C62.9781 123.795 62.7804 124.175 62.6665 124.584C62.5804 124.928 62.5519 125.283 62.5823 125.635C62.6072 126.186 62.7432 126.727 62.9821 127.224C63.221 127.721 63.5578 128.165 63.9724 128.529C64.5509 129.003 65.2757 129.262 66.0235 129.262C66.5722 129.265 67.1113 129.117 67.582 128.835C68.4248 128.323 68.882 127.487 69.2174 126.736C69.3353 126.491 69.4154 126.229 69.4548 125.96C69.4934 125.614 69.4598 125.264 69.3562 124.932Z" fill="#4D4D4D"/>
<path d="M74.6968 127.68C74.2894 127.152 73.7506 126.74 73.1344 126.486C72.5181 126.231 71.8459 126.143 71.1848 126.23C70.7444 126.299 70.3238 126.46 69.9509 126.704C69.5779 126.948 69.261 127.269 69.0214 127.644C68.6006 128.319 68.4093 129.111 68.476 129.903C68.5067 130.472 68.6935 131.022 69.016 131.492C69.3505 131.933 69.7813 132.292 70.2756 132.541C70.6757 132.778 71.1108 132.951 71.5649 133.053C71.763 133.093 71.9645 133.113 72.1664 133.113C72.8173 133.108 73.4523 132.911 73.9922 132.548C74.5321 132.184 74.953 131.67 75.2022 131.069C75.4265 130.51 75.4979 129.901 75.409 129.306C75.3202 128.71 75.0744 128.149 74.6968 127.68Z" fill="#4D4D4D"/>
<path d="M56.8785 135.599C56.3472 132.638 54.186 130.605 51.0972 130.161C49.4294 129.92 47.4806 130.357 45.7246 131.105C45.8047 127.018 46.1565 123.034 46.7361 120.175C46.8398 119.664 46.7361 119.132 46.448 118.698C46.1598 118.263 45.7107 117.96 45.1995 117.857C44.6883 117.753 44.1568 117.857 43.722 118.145C43.2872 118.433 42.9847 118.882 42.881 119.393C42.1913 122.793 41.7372 128.22 41.7693 133.646C40.7716 134.638 40.2568 135.669 40.2411 136.72C40.2341 137.203 40.4045 137.67 40.7198 138.035C41.0352 138.4 41.4735 138.636 41.9516 138.699C42.053 140.157 42.1988 141.563 42.3936 142.878C42.0551 143.015 41.7616 143.245 41.5461 143.539C41.3305 143.834 41.2013 144.184 41.1731 144.548C41.1448 144.912 41.2185 145.277 41.386 145.602C41.5535 145.926 41.8081 146.198 42.1213 146.386C42.3984 146.585 42.7339 146.685 43.0746 146.671C43.1083 146.671 43.144 146.671 43.1808 146.669C43.2898 147.051 43.4042 147.42 43.5278 147.765C43.6131 148.01 43.7463 148.236 43.9196 148.43C44.0929 148.624 44.3029 148.781 44.5375 148.893C44.772 149.006 45.0265 149.07 45.2861 149.083C45.5457 149.096 45.8053 149.058 46.05 148.97C46.2947 148.882 46.5195 148.747 46.7115 148.571C46.9035 148.396 47.0588 148.185 47.1685 147.949C47.2782 147.713 47.3401 147.458 47.3506 147.198C47.3611 146.939 47.32 146.679 47.2297 146.436C47.1808 146.299 47.1339 146.153 47.0873 146.006L47.1047 146.003C51.091 145.178 52.1199 144.619 52.4576 144.436C55.6808 142.686 57.4977 139.052 56.8785 135.599ZM50.5802 140.98C49.9413 141.327 48.0305 141.792 46.2719 142.158C45.9775 139.957 45.8022 137.742 45.7468 135.522C47.1533 134.659 49.1717 133.857 50.5372 134.054C52.2915 134.307 52.8487 135.411 53.0069 136.294C53.2802 137.819 52.534 139.918 50.5802 140.98Z" fill="#4D4D4D"/>
<path d="M33.4778 142.443C31.9814 142.483 30.5081 142.067 29.2533 141.251C28.2225 142.156 26.6597 142.536 24.8751 142.278C22.5785 141.946 19.5773 140.427 18.6782 137.234C18.5366 136.732 18.6003 136.194 18.8552 135.739C19.1101 135.284 19.5353 134.949 20.0374 134.807C20.5394 134.666 21.0771 134.73 21.5322 134.984C21.9874 135.239 22.3226 135.665 22.4642 136.167C22.835 137.482 24.2463 138.054 24.6697 138.198C25.7118 138.553 26.4541 138.405 26.6435 138.3C26.9312 137.741 27.1378 137.144 27.2571 136.526C27.2498 136.463 27.2427 136.399 27.236 136.334C26.993 134.043 27.1646 132.427 27.7459 131.532C27.9245 131.257 28.1689 131.031 28.457 130.874C28.7451 130.718 29.0677 130.636 29.3955 130.636H29.3986C29.7269 130.637 30.0499 130.719 30.338 130.877C30.6262 131.034 30.8704 131.261 31.0484 131.537C31.6729 132.506 31.6167 134.621 31.2366 136.618C31.2959 137.109 31.4049 137.593 31.5617 138.062C32.5049 138.666 34.7225 138.699 36.075 137.865C36.7811 137.43 36.7005 137.114 36.6468 136.904C36.583 136.654 36.5691 136.393 36.6059 136.138C36.6427 135.882 36.7296 135.636 36.8614 135.414C36.9933 135.192 37.1676 134.998 37.3744 134.843C37.5812 134.688 37.8165 134.576 38.0668 134.512C38.3171 134.448 38.5775 134.434 38.8331 134.471C39.0888 134.508 39.3347 134.595 39.5568 134.727C39.7789 134.859 39.9728 135.033 40.1276 135.24C40.2823 135.446 40.3948 135.682 40.4586 135.932C40.9902 138.018 40.1214 139.993 38.137 141.214C36.7218 142.033 35.1128 142.457 33.4778 142.443Z" fill="#4D4D4D"/>
<path d="M32.389 126.482C32.3117 125.985 32.1266 125.512 31.8466 125.096C31.5667 124.679 31.1987 124.328 30.7687 124.069C30.3894 123.819 29.9585 123.658 29.5082 123.598C29.058 123.538 28.6 123.581 28.1685 123.723C27.6795 123.904 27.2418 124.201 26.8928 124.589C26.5438 124.977 26.2938 125.443 26.1644 125.948C26.0365 126.406 26.0247 126.887 26.1299 127.35C26.2351 127.813 26.4541 128.243 26.767 128.6C27.3602 129.246 28.1699 129.653 29.0428 129.743C29.1949 129.761 29.3481 129.771 29.5013 129.771C29.8799 129.774 30.2557 129.707 30.6094 129.572C31.2027 129.322 31.6977 128.884 32.019 128.326C32.3403 127.768 32.4703 127.12 32.389 126.482Z" fill="#4D4D4D"/>
<path d="M18.6046 138.662C16.7957 137.773 15.5528 135.831 14.5744 134.047C14.246 133.411 13.9896 132.741 13.81 132.048C13.45 130.835 13.0421 129.461 11.6401 128.111C8.93724 125.507 6.54542 124.258 2.31752 125.577C1.86417 125.718 1.48555 126.034 1.26496 126.454C1.04438 126.875 0.999884 127.366 1.14128 127.819C1.28267 128.272 1.59837 128.651 2.01891 128.872C2.43946 129.092 2.93042 129.137 3.38377 128.995C4.92905 128.514 5.94894 128.474 7.05003 129.047C5.90192 129.293 4.80618 129.74 3.81308 130.366C1.93288 131.57 0.777292 133.313 0.559547 135.274C0.180531 138.685 1.68339 140.668 3.01121 141.73C4.18042 142.664 5.63837 143.161 7.1346 143.137C10.0383 143.137 12.953 141.51 14.5553 140.112C15.2809 140.826 16.1144 141.421 17.0253 141.876C17.4515 142.085 17.9435 142.117 18.3929 141.964C18.8424 141.81 19.2126 141.485 19.422 141.059C19.6314 140.632 19.663 140.14 19.5097 139.691C19.3564 139.241 19.0308 138.871 18.6046 138.662ZM5.24822 138.933C4.65989 138.463 3.90298 137.613 4.11876 135.669C4.2421 134.56 5.07038 133.813 5.74384 133.382C7.15398 132.479 8.96337 132.232 9.83267 132.521C9.96359 132.565 10.0992 132.593 10.2367 132.606C10.2825 132.753 10.3286 132.905 10.3772 133.068C10.6262 134.006 10.981 134.913 11.4347 135.771C11.712 136.277 12.0101 136.793 12.3338 137.306C11.0487 138.531 7.32059 140.591 5.24822 138.933Z" fill="#4D4D4D"/>
</g>
<defs>
<clipPath id="clip0_14_3">
<rect width="160" height="148.137" fill="white" transform="translate(0.5 0.931641)"/>
</clipPath>
</defs>
</svg>
