<svg width="201" height="60" fill="none" xmlns="http://www.w3.org/2000/svg"><g clip-path="url(#clip0_96_378)"><path d="M32.0637 58.5099C47.7504 58.5099 60.4669 45.7934 60.4669 30.1067C60.4669 14.42 47.7504 1.70349 32.0637 1.70349C16.377 1.70349 3.66049 14.42 3.66049 30.1067C3.66049 45.7934 16.377 58.5099 32.0637 58.5099Z" fill="#F29DA9"/><path d="M29.7344 35.4022C28.0018 34.8533 26.2287 34.077 24.4386 34.3887C23.0068 34.6379 21.7932 35.551 20.6408 36.4364L15.3057 40.5344C13.2452 42.1171 10.9924 44.063 10.9502 46.6614C10.9138 48.8976 12.573 50.7906 14.322 52.1846C23.4437 59.455 37.0922 59.0214 47.2968 53.3709C50.4885 51.6037 53.772 48.6582 53.3376 45.0357C52.9175 41.5278 47.4892 36.4677 44.1374 35.6761C42.1646 35.2105 39.8281 36.2265 37.8463 36.3622C35.106 36.5575 32.3535 36.2318 29.7344 35.4022Z" fill="#F7F6F1"/><path d="M32.278 45.3875C31.6361 45.3865 30.9947 45.352 30.3565 45.2842C28.3623 45.0757 26.5732 43.9226 25.1814 41.9487C23.452 39.4947 22.6797 36.2462 23.0435 34.7514C23.1041 34.5026 23.2611 34.288 23.4798 34.1549C23.6986 34.0218 23.9613 33.9811 24.2102 34.0417C24.459 34.1023 24.6735 34.2592 24.8066 34.478C24.9397 34.6968 24.9805 34.9595 24.9199 35.2083C24.7347 35.9693 25.216 38.6456 26.7599 40.8363C27.4998 41.8854 28.7606 43.1757 30.5573 43.3634C33.8822 43.7105 36.5352 43.0724 38.4425 41.4638C38.9913 40.9992 39.4754 40.4632 39.882 39.8701L39.7914 39.9192C36.9288 41.4576 32.8218 41.8341 29.8043 40.8356C27.391 40.0353 26.2447 38.2648 26.3972 35.5692C26.4116 35.3135 26.5271 35.0741 26.7181 34.9035C26.9091 34.733 27.1601 34.6453 27.4157 34.6598C27.6714 34.6742 27.9109 34.7897 28.0814 34.9807C28.252 35.1717 28.3396 35.4227 28.3252 35.6783C28.2215 37.5147 28.8257 38.4794 30.4111 39.0025C32.9237 39.8341 36.4839 39.5045 38.8776 38.2186C39.8721 37.6838 41.1446 36.7271 41.5564 35.2101C41.6211 34.9717 41.7748 34.7671 41.9858 34.6385C42.1968 34.5099 42.4491 34.4671 42.6907 34.519C43.6041 34.7147 43.4626 35.6034 43.3782 36.1345C43.0352 38.2775 42.112 40.2858 40.7088 41.9414C38.6848 44.2325 35.8542 45.3875 32.278 45.3875Z" fill="#4D4D4D"/><path d="M10.7337 48.9663C10.4956 48.9661 10.2659 48.8778 10.0889 48.7184C9.91189 48.5591 9.80003 48.3399 9.77481 48.1031C9.51326 45.6549 12.0302 39.9294 16.7593 38.2932C17.2857 38.1113 18.4836 37.0436 19.4458 36.1854C20.7325 35.0381 21.9478 33.9548 22.8915 33.6026C23.0105 33.5573 23.1374 33.536 23.2648 33.5399C23.3921 33.5438 23.5175 33.5729 23.6335 33.6255C23.7496 33.6781 23.8541 33.7531 23.941 33.8463C24.0279 33.9395 24.0956 34.049 24.14 34.1684C24.1844 34.2878 24.2047 34.4149 24.1998 34.5422C24.1949 34.6695 24.1648 34.7946 24.1113 34.9103C24.0578 35.0259 23.9819 35.1298 23.8881 35.216C23.7942 35.3022 23.6842 35.3689 23.5644 35.4124C22.9617 35.6369 21.7248 36.7398 20.731 37.6256C19.417 38.797 18.2821 39.8083 17.3904 40.1175C13.6039 41.4271 11.5209 46.2809 11.6934 47.8968C11.7069 48.0229 11.6954 48.1504 11.6596 48.2721C11.6239 48.3937 11.5645 48.5071 11.4848 48.6058C11.4052 48.7045 11.3069 48.7865 11.1956 48.8472C11.0842 48.9079 10.962 48.946 10.8359 48.9594C10.802 48.9636 10.7679 48.9659 10.7337 48.9663Z" fill="#4D4D4D"/><path d="M54.3991 48.4352C54.2283 48.4354 54.0605 48.3902 53.9128 48.3043C53.7652 48.2184 53.643 48.0949 53.5588 47.9462C53.2012 47.3166 53.2136 46.6116 53.227 45.8651C53.2572 44.1553 53.2951 42.0233 48.8555 39.5307C48.287 39.2113 44.7449 36.2931 43.6044 35.2381C43.4216 35.0628 43.3149 34.8227 43.3074 34.5694C43.2999 34.3162 43.3922 34.0702 43.5644 33.8844C43.7366 33.6986 43.975 33.5879 44.228 33.5761C44.4811 33.5644 44.7286 33.6525 44.9173 33.8216C46.1312 34.9467 49.3896 37.5954 49.8097 37.8526C55.2464 40.905 55.1911 44.0317 55.1572 45.9C55.1187 46.2665 55.1459 46.637 55.2376 46.9939C55.3208 47.1407 55.3641 47.3068 55.3631 47.4756C55.3622 47.6444 55.317 47.81 55.2321 47.9559C55.1472 48.1018 55.0255 48.2228 54.8793 48.3071C54.733 48.3913 54.5672 48.4357 54.3984 48.4359L54.3991 48.4352Z" fill="#4D4D4D"/><path d="M19.1508 52.1653C19.0012 52.165 18.8538 52.1301 18.72 52.0632C18.5862 51.9963 18.4698 51.8994 18.3798 51.7799C18.2899 51.6604 18.2288 51.5217 18.2015 51.3747C18.1742 51.2276 18.1813 51.0763 18.2224 50.9325C19.3243 47.1034 17.8921 43.387 16.1951 39.6001C16.0903 39.3665 16.0826 39.1007 16.1738 38.8614C16.2649 38.6221 16.4474 38.4288 16.6811 38.324C16.9148 38.2192 17.1805 38.2116 17.4198 38.3027C17.6591 38.3939 17.8524 38.5763 17.9572 38.81C19.8066 42.9371 21.3607 47.0102 20.0784 51.4665C20.0204 51.6678 19.8985 51.8447 19.7312 51.9708C19.5639 52.0968 19.3602 52.1651 19.1508 52.1653Z" fill="#4D4D4D"/><path d="M46.9417 54.7761H46.9017C46.775 54.771 46.6506 54.7409 46.5355 54.6877C46.4204 54.6344 46.317 54.559 46.231 54.4658C46.1451 54.3726 46.0784 54.2633 46.0346 54.1443C45.9909 54.0253 45.9711 53.8988 45.9763 53.7721C45.9805 52.6995 45.8708 51.6294 45.6489 50.58C45.1032 47.4177 44.4848 43.8334 48.5398 38.1301C48.6125 38.0249 48.7054 37.9351 48.8131 37.866C48.9208 37.797 49.0412 37.75 49.1672 37.7279C49.2932 37.7057 49.4223 37.7088 49.5471 37.737C49.6719 37.7651 49.7899 37.8178 49.8942 37.892C49.9984 37.9661 50.0869 38.0602 50.1545 38.1689C50.2221 38.2775 50.2674 38.3985 50.2879 38.5248C50.3083 38.6511 50.3034 38.7802 50.2736 38.9046C50.2437 39.029 50.1894 39.1462 50.1138 39.2495C46.5237 44.2972 47.0465 47.3253 47.5518 50.2511C47.7983 51.4355 47.9164 52.6429 47.9043 53.8525C47.8934 54.1007 47.7873 54.3352 47.6081 54.5072C47.4288 54.6792 47.1902 54.7755 46.9417 54.7761Z" fill="#4D4D4D"/><path d="M38.9947 57.7773C38.7489 57.7771 38.5124 57.6831 38.3334 57.5145C38.1545 57.346 38.0466 57.1154 38.0318 56.8701C37.9918 56.2109 37.5269 50.4283 33.3511 50.5891C31.6414 50.6524 30.3318 51.1679 29.4685 52.1213C28.1975 53.5226 28.1186 55.5656 28.1848 56.6587C28.1924 56.7853 28.175 56.9122 28.1336 57.032C28.0922 57.1519 28.0276 57.2624 27.9434 57.3573C27.8593 57.4523 27.7573 57.5297 27.6433 57.5851C27.5292 57.6406 27.4054 57.6731 27.2788 57.6807C27.1522 57.6883 27.0253 57.671 26.9055 57.6296C26.7856 57.5881 26.675 57.5235 26.5801 57.4394C26.4852 57.3553 26.4078 57.2533 26.3523 57.1392C26.2969 57.0252 26.2644 56.9013 26.2568 56.7747C26.1724 55.3789 26.2931 52.7492 28.0393 50.8241C29.2666 49.4709 31.0299 48.7426 33.2805 48.6593C38.158 48.4858 39.7732 53.6623 39.9602 56.7536C39.9755 57.0093 39.8887 57.2605 39.7188 57.4521C39.549 57.6437 39.31 57.76 39.0544 57.7755C39.034 57.7766 39.014 57.7773 38.9947 57.7773Z" fill="#4D4D4D"/><path d="M54.0332 36.4906C55.2304 35.6823 56.409 34.4655 56.2657 33.0282C56.1874 32.2403 55.72 31.5527 55.2649 30.9037L53.1092 27.8211C54.0152 27.6972 54.9377 27.7891 55.8015 28.0895C56.6652 28.3898 57.4458 28.8901 58.0794 29.5494C58.702 30.219 59.1651 31.0205 59.4343 31.8942C59.7034 32.7679 59.7717 33.6912 59.6339 34.595C59.5711 35.1047 59.3937 35.5936 59.1151 36.025C57.9972 37.6307 54.9153 38.0257 53.4158 39.296C52.004 40.4925 53.3387 41.0258 52.0484 39.4346C51.1182 38.288 53.0561 37.1501 54.0332 36.4906Z" fill="#605344"/><path d="M52.6919 41.4703C52.4748 41.4719 52.2626 41.4059 52.0846 41.2817C51.9065 41.1574 51.7715 40.9809 51.6981 40.7766C51.5764 40.5285 51.421 40.2984 51.2361 40.0931C51.0508 39.8763 50.9141 39.6224 50.8353 39.3483C50.7565 39.0743 50.7373 38.7865 50.7792 38.5044C50.9687 37.2676 52.267 36.4062 53.2165 35.7761C53.2983 35.7219 53.3765 35.6703 53.4493 35.6212C54.0201 35.2363 55.3351 34.2224 55.2263 33.1297C55.1729 32.5931 54.7669 32.0129 54.4089 31.501L51.283 27.0364L52.9535 26.7865C54.0256 26.6376 55.1178 26.7451 56.1403 27.1C57.1629 27.4549 58.0868 28.0473 58.8361 28.8284C59.5666 29.6161 60.1104 30.558 60.4272 31.5845C60.744 32.611 60.8257 33.6956 60.6662 34.7579C60.5813 35.425 60.3439 36.0635 59.9725 36.6241C59.1595 37.7911 57.7291 38.3775 56.3457 38.9443C55.5443 39.2219 54.7853 39.6093 54.0903 40.0952C53.9427 40.2062 53.819 40.3458 53.7265 40.5056C53.7086 40.7406 53.6119 40.9626 53.4521 41.1358C53.2922 41.309 53.0786 41.4232 52.8458 41.4598C52.7949 41.4673 52.7434 41.4708 52.6919 41.4703ZM54.6199 37.3567L54.4209 37.4899C54.7931 37.3193 55.1765 37.1625 55.5548 37.0068C56.6578 36.5553 57.7979 36.0879 58.258 35.4269C58.4456 35.1254 58.5632 34.7857 58.6022 34.4327C58.7146 33.6872 58.6579 32.926 58.4363 32.2055C58.2146 31.4849 57.8337 30.8234 57.3217 30.27C56.7411 29.6706 56.0137 29.2336 55.2118 29.0026L56.1212 30.3042C56.5759 30.9539 57.1984 31.8441 57.306 32.9234C57.4643 34.5066 56.5094 36.081 54.6185 37.3575L54.6199 37.3567Z" fill="#4D4D4D"/><path d="M32.0237 59.638C26.3382 59.6301 20.7759 57.9811 16.0047 54.8891C11.2335 51.7971 7.45637 47.3935 5.12679 42.2072C2.79721 37.0209 2.01428 31.2724 2.87201 25.652C3.72974 20.0316 6.19168 14.7783 9.96215 10.5229C15.1563 4.6612 22.4662 1.10294 30.2838 0.630886C38.1014 0.15883 45.7864 2.81165 51.6481 8.00575C57.5098 13.1999 61.068 20.5098 61.5401 28.3274C62.0121 36.145 59.3593 43.83 54.1652 49.6917C51.6002 52.6021 48.4834 54.9749 44.9952 56.6727C41.507 58.3705 37.7167 59.3596 33.8436 59.5827C33.2354 59.6198 32.6287 59.6383 32.0237 59.638ZM32.0811 2.82941C31.5304 2.82941 30.9765 2.84614 30.4194 2.87961C25.0344 3.20487 19.8668 5.11966 15.57 8.38184C11.2732 11.644 8.04021 16.1071 6.27991 21.2067C4.51961 26.3062 4.31103 31.8133 5.68054 37.0314C7.05005 42.2495 9.93615 46.9443 13.9739 50.5222C18.0117 54.0999 23.0197 56.4 28.3647 57.1315C33.7096 57.863 39.1515 56.9932 44.0021 54.632C48.8528 52.2708 52.8943 48.5242 55.6156 43.8661C58.337 39.208 59.616 33.8475 59.2908 28.4625C58.8639 21.5314 55.8129 15.0232 50.7584 10.2616C45.7038 5.49991 39.0253 2.84236 32.0811 2.82941Z" fill="#4D4D4D"/><path d="M17.023 47.9518C14.7218 47.2759 12.9331 47.4858 11.9444 49.0431C11.6466 49.5896 11.4603 50.1898 11.3965 50.8089C11.1928 52.0093 11.0244 53.3644 11.7603 54.3338C12.0518 54.6797 12.4213 54.9514 12.8383 55.1265C13.2553 55.3016 13.708 55.3752 14.159 55.3411C15.0619 55.2642 15.9341 54.9763 16.7055 54.5008C17.2833 54.204 17.7978 53.7975 18.2202 53.304C18.5848 52.8279 18.8088 52.2592 18.8667 51.6623C18.9245 51.0655 18.814 50.4643 18.5476 49.9271C18.002 48.8641 18.7222 49.4542 17.0198 47.9452" fill="#F7F6F1"/><path d="M14.0095 56.308C13.433 56.3239 12.8606 56.2066 12.3369 55.965C11.8132 55.7235 11.3523 55.3643 10.9902 54.9155C10.0316 53.6528 10.2055 52.0493 10.4445 50.6455C10.5275 49.8992 10.7605 49.1773 11.1295 48.5232C12.2885 46.6996 14.3206 46.1838 17.1704 46.9896C17.3521 47.0182 17.5218 47.0984 17.6593 47.2206C18.843 48.2697 19.0562 48.4574 19.2235 49.042C19.2671 49.1956 19.3282 49.3438 19.4054 49.4836C19.7575 50.1855 19.904 50.9726 19.828 51.7541C19.7519 52.5356 19.4565 53.2797 18.9758 53.9006C18.4757 54.4934 17.8645 54.9826 17.1766 55.3408C16.2757 55.8961 15.2545 56.2265 14.1991 56.304C14.1365 56.3069 14.0728 56.308 14.0095 56.308ZM14.8066 48.5505C13.5835 48.5505 13.0604 49.0871 12.7592 49.5593C12.5361 49.9995 12.3969 50.4774 12.3485 50.9685C12.1703 52.0199 12.0371 53.0999 12.5304 53.7482C12.7288 53.9683 12.9755 54.1395 13.2512 54.2483C13.5269 54.357 13.8241 54.4004 14.1194 54.3749C14.8704 54.3056 15.5945 54.0598 16.2326 53.6576C16.6989 53.4194 17.1164 53.0958 17.4632 52.7034C17.7143 52.3733 17.8685 51.9799 17.9086 51.5672C17.9487 51.1544 17.8731 50.7387 17.6902 50.3665C17.556 50.1159 17.4491 49.8516 17.3712 49.5782V49.5757C17.2522 49.4432 16.8779 49.1071 16.5578 48.823C15.9887 48.655 15.3998 48.5633 14.8066 48.5505Z" fill="#4D4D4D"/><path d="M50.5751 53.6569C51.5679 54.0807 53.1004 54.4041 53.9582 53.9945C54.9743 53.5099 55.1925 52.1712 55.166 51.0461C55.1911 49.8157 54.9151 48.5978 54.362 47.4985C53.7603 46.4316 52.6596 45.5836 51.4347 45.5589C50.9296 45.5567 50.4304 45.6686 49.9745 45.8863C49.1775 46.2737 48.5213 46.9002 48.0974 47.6784C47.6735 48.4567 47.5031 49.3478 47.61 50.2276C47.8599 51.9737 49.0876 53.1014 50.5722 53.6572" fill="#F7F6F1"/><path d="M52.9397 55.1483C52.0022 55.1247 51.0779 54.9228 50.2161 54.5531C48.2273 53.8019 46.9308 52.2763 46.6573 50.3632C46.5174 49.2775 46.7239 48.1753 47.2473 47.2139C47.7706 46.2524 48.5841 45.4807 49.5718 45.0088C50.1601 44.7291 50.8042 44.5869 51.4555 44.593C52.2369 44.6406 52.9928 44.8894 53.6496 45.3153C54.3065 45.7412 54.8422 46.3297 55.2045 47.0237C55.7975 48.0757 56.0925 49.3464 56.1325 51.0223C56.1911 53.4782 55.2093 54.4676 54.3751 54.8652C53.9234 55.0644 53.4332 55.161 52.9397 55.1483ZM51.3813 46.5235C51.0342 46.5308 50.6927 46.6123 50.3798 46.7625C49.7703 47.061 49.2686 47.5416 48.9442 48.1377C48.6198 48.7338 48.4886 49.4161 48.5689 50.09C48.8035 51.731 50.1382 52.4621 50.9131 52.7521C50.9269 52.7572 50.9404 52.7626 50.9538 52.7684C51.9073 53.1751 53.0932 53.3374 53.5439 53.1224C54.1751 52.8216 54.2143 51.5858 54.202 51.0685C54.17 49.7225 53.9539 48.7374 53.5224 47.9724C53.3219 47.5732 53.0237 47.2311 52.6556 46.9779C52.2875 46.7246 51.8615 46.5685 51.4169 46.5239L51.3813 46.5235Z" fill="#4D4D4D"/><path d="M50.3216 11.6731C48.9861 8.76673 46.8694 6.28856 44.2076 4.51509C43.8169 4.24832 43.4168 3.99696 43.0071 3.76099C43.0548 7.55043 42.4757 11.3679 40.9187 14.8125C39.1493 18.7252 36.0328 22.1222 32.0437 23.7108C29.0585 24.8996 25.7784 25.0371 22.5757 25.2972C17.7166 25.6924 12.8884 26.4029 8.12146 27.4242C12.0182 30.7309 17.4236 32.6149 22.2563 34.1835C31.741 37.2621 38.9831 37.8486 44.9151 34.1126C51.9258 29.6974 52.5661 16.7383 50.3216 11.6731Z" fill="#F7F6F1"/><path d="M32.0437 23.7108C36.0328 22.1222 39.1493 18.7253 40.9176 14.8125C42.4746 11.3679 43.0537 7.55046 43.0061 3.76101C41.3457 2.79771 39.5474 2.09485 37.6738 1.67694C32.8087 0.606713 30.0749 1.01851 28.032 1.98833C24.5772 3.62932 23.1003 6.86838 16.6338 7.23906C11.7887 7.51735 6.67145 6.4544 3.25342 9.60942C-1.10315 13.631 3.84674 23.3489 7.25677 26.6436C7.53542 26.9128 7.82462 27.1721 8.12146 27.4242C12.8884 26.403 17.7166 25.6925 22.5757 25.2972C25.7784 25.0371 29.0585 24.8996 32.0437 23.7108Z" fill="#C6BCB0"/><path d="M35.3941 37.7598C31.6108 37.7598 27.219 36.8988 21.926 35.177C16.3286 33.3581 10.5282 31.2577 6.52596 27.3882C3.96244 24.9094 0.442547 18.853 0.500024 13.9267C0.525488 11.775 1.21411 10.0605 2.54699 8.83131C5.44482 6.15901 9.34449 6.19612 13.1154 6.23359C14.2591 6.2445 15.4414 6.25614 16.5774 6.19139C20.671 5.95785 22.5244 4.55004 24.4866 3.05965C25.4468 2.27975 26.4871 1.60406 27.59 1.04397C30.235 -0.211055 33.4166 -0.327463 37.9056 0.660187C40.3731 1.21492 42.7132 2.23215 44.802 3.65806C47.6276 5.53928 49.8713 8.17258 51.2801 11.261C53.7233 16.7794 52.9692 30.2864 45.4656 35.0068C42.5477 36.8413 39.2959 37.7598 35.3941 37.7598ZM11.7822 8.31693C8.75954 8.31693 5.9672 8.52355 3.96571 10.3693C3.07301 11.1929 2.60992 12.3981 2.59282 13.9514C2.54226 18.232 5.74603 23.7239 7.97997 25.8833C11.6617 29.4432 17.2079 31.4432 22.5728 33.1872C32.6738 36.4699 39.1868 36.4844 44.3513 33.2344C48.2001 30.8132 49.5773 25.7643 50.0557 22.9702C50.7432 18.9552 50.4664 14.5895 49.3674 12.1064C48.1159 9.37529 46.1265 7.048 43.6234 5.38672C41.7553 4.11058 39.6623 3.2 37.4552 2.70315C32.322 1.57181 29.9658 2.23206 28.4867 2.93415C27.5152 3.4338 26.5989 4.03417 25.7529 4.72538C23.726 6.26487 21.4277 8.0099 16.6975 8.27982C15.4916 8.34858 14.2736 8.33694 13.0961 8.32566C12.6545 8.32129 12.2158 8.31693 11.7822 8.31693Z" fill="#4D4D4D"/><path d="M31.5024 7.52646C28.1433 9.45083 29.156 15.3113 30.0164 18.1265C30.8767 20.9418 30.3361 23.4344 28.5216 25.7552C27.9116 26.5352 27.0443 27.1114 26.562 27.9761C25.6733 29.5694 26.4474 31.7124 27.9079 32.8034C29.3685 33.8944 31.3147 34.1181 33.1328 33.9675C37.9074 33.5742 41.7048 32.8652 44.6645 29.0987C48.2295 24.5613 48.1808 18.4168 47.6082 14.9842C46.4015 7.73818 36.5934 4.61008 31.5024 7.52646Z" fill="#605344"/><path d="M32.1303 35.0562C30.1713 35.0562 28.5449 34.5833 27.2841 33.6412C25.5208 32.3254 24.427 29.6556 25.6471 27.4657C26.0053 26.8784 26.4482 26.3472 26.9614 25.8891C27.2229 25.6456 27.4684 25.3855 27.6962 25.1103C29.3434 23.0033 29.7625 20.8817 29.0145 18.4321C28.5522 16.9133 26.467 9.20564 30.9844 6.62065C33.9484 4.92255 38.325 4.99166 42.1337 6.79708C45.7035 8.489 48.0764 11.4108 48.6453 14.8132C48.9978 16.9268 49.8123 24.2499 45.4925 29.7469C42.1887 33.9464 37.8019 34.6313 33.2205 35.01C32.8465 35.0408 32.4831 35.0562 32.1303 35.0562ZM36.0278 7.48898C34.6334 7.45424 33.2537 7.78002 32.0222 8.4348C29.4209 9.92628 30.167 15.0362 31.0168 17.8202C31.9553 20.8937 31.3933 23.7796 29.3456 26.3977C29.0611 26.7475 28.7532 27.0775 28.4238 27.3853C28.0586 27.706 27.7395 28.0756 27.4754 28.4835C26.8421 29.6196 27.5118 31.1999 28.5354 31.9634C29.864 32.9551 31.7232 33.0333 33.0488 32.9238C38.2115 32.4989 41.2985 31.6906 43.8442 28.4494C47.6347 23.6261 46.8955 17.0523 46.5783 15.1526C46.1254 12.4352 44.1774 10.0772 41.2359 8.68289C39.6079 7.90944 37.8302 7.50192 36.0278 7.48898Z" fill="#4D4D4D"/><path d="M21.8994 15.3826C20.7393 15.3798 19.6072 15.0256 18.6524 14.3666C18.7495 14.8708 18.9973 15.3338 19.3631 15.6942C19.7289 16.0546 20.1955 16.2955 20.7011 16.3851C21.2068 16.4746 21.7277 16.4086 22.195 16.1958C22.6624 15.983 23.0541 15.6333 23.3185 15.1931C22.8561 15.3194 22.3788 15.3831 21.8994 15.3826Z" fill="#999999"/><path d="M21.1381 11.3425C20.7346 11.3435 20.3371 11.4407 19.9786 11.626C19.6202 11.8113 19.3111 12.0794 19.0769 12.408C19.5838 12.9379 20.2306 13.3132 20.9422 13.4902C21.6538 13.6672 22.401 13.6387 23.097 13.408C23.2699 13.3459 23.4579 13.3393 23.6347 13.3891C23.5374 12.9002 23.2985 12.4506 22.9477 12.0964C22.5969 11.7422 22.1496 11.499 21.6616 11.3971C21.4894 11.361 21.314 11.3427 21.1381 11.3425Z" fill="#999999"/><path d="M24.7485 11.5218C24.3603 10.9288 23.8318 10.4407 23.2099 10.1008C22.5879 9.76084 21.8918 9.57954 21.183 9.57294C20.4743 9.56634 19.7749 9.73464 19.1467 10.0629C18.5186 10.3912 17.9811 10.8694 17.5819 11.455C17.1827 12.0407 16.9341 12.7157 16.8581 13.4204C16.7821 14.1251 16.8811 14.8377 17.1463 15.4949C17.4115 16.1522 17.8347 16.734 18.3785 17.1886C18.9222 17.6432 19.5697 17.9568 20.2635 18.1014C20.5558 18.1627 20.8536 18.1936 21.1522 18.1938C21.9286 18.1919 22.69 17.9805 23.3561 17.5817C24.0222 17.183 24.5683 16.6118 24.9366 15.9284C25.305 15.245 25.4819 14.4748 25.4488 13.6992C25.4157 12.9236 25.1738 12.1713 24.7485 11.5218ZM22.5346 16.006C22.1862 16.2339 21.7871 16.3726 21.3724 16.41C20.9578 16.4473 20.5404 16.3821 20.1568 16.2202C19.7733 16.0582 19.4355 15.8044 19.1732 15.4812C18.9108 15.1579 18.732 14.7751 18.6524 14.3665C19.6077 15.0258 20.7405 15.3801 21.9012 15.3825C22.3805 15.383 22.8577 15.3193 23.32 15.193C23.1229 15.5198 22.8544 15.7978 22.5346 16.006ZM23.2676 12.4905C23.4472 12.7634 23.5724 13.0686 23.6361 13.389C23.4593 13.3392 23.2713 13.3458 23.0984 13.4079C22.4024 13.6386 21.6552 13.6671 20.9436 13.4901C20.232 13.3131 19.5852 12.9378 19.0784 12.4079C19.3182 12.0718 19.6364 11.7992 20.0053 11.6138C20.3743 11.4284 20.7829 11.3359 21.1958 11.3441C21.6086 11.3523 22.0132 11.4612 22.3745 11.6611C22.7358 11.8611 23.0428 12.1461 23.269 12.4916L23.2676 12.4905Z" fill="#4D4D4D"/><path d="M3.75468 9.2959C4.16052 9.68061 4.44151 10.1783 4.56123 10.7246C4.68096 11.2708 4.63393 11.8404 4.42621 12.3596C4.19976 12.8709 3.82501 13.3024 3.3505 13.5982C2.87599 13.894 2.32358 14.0405 1.76483 14.0188" fill="#666666"/><path d="M1.91 14.9079C1.84489 14.9079 1.77977 14.906 1.71429 14.9024C1.59771 14.8965 1.48344 14.8677 1.37806 14.8175C1.27269 14.7673 1.17828 14.6967 1.10028 14.6099C1.02229 14.523 0.962237 14.4216 0.923594 14.3115C0.884951 14.2013 0.868478 14.0846 0.875123 13.9681C0.881768 13.8515 0.9114 13.7375 0.962312 13.6324C1.01322 13.5274 1.08441 13.4335 1.17178 13.356C1.25914 13.2786 1.36095 13.2193 1.47135 13.1814C1.58176 13.1435 1.69857 13.1278 1.81506 13.1352C2.19145 13.1468 2.56286 13.0467 2.88242 12.8475C3.20199 12.6483 3.45539 12.3589 3.61065 12.0159C3.7469 11.6651 3.7766 11.2819 3.69604 10.9144C3.61547 10.5468 3.42822 10.2112 3.15775 9.94961C2.98987 9.78987 2.89131 9.57068 2.88321 9.33909C2.87512 9.10751 2.95814 8.88197 3.11445 8.7109C3.27076 8.53983 3.48791 8.43685 3.71929 8.42408C3.95066 8.4113 4.17783 8.48974 4.35203 8.64256C4.89488 9.14919 5.27074 9.809 5.42967 10.5343C5.5886 11.2597 5.52308 12.0162 5.24182 12.7034C4.95937 13.3539 4.49422 13.9084 3.9028 14.2997C3.31139 14.691 2.61913 14.9023 1.91 14.9079Z" fill="#4D4D4D"/><path d="M4.73871 23.2976L16.3119 25.7553C15.1049 27.4424 13.3674 28.6765 11.3769 29.2602" fill="#999999"/><path d="M11.3769 30.1457C11.1637 30.1458 10.9576 30.0688 10.7966 29.9291C10.6356 29.7893 10.5304 29.5961 10.5005 29.385C10.4705 29.1739 10.5178 28.9591 10.6335 28.7801C10.7493 28.6011 10.9258 28.4698 11.1306 28.4105C12.4709 28.0195 13.6916 27.2984 14.681 26.3134L4.55391 24.1634C4.43989 24.1396 4.33169 24.0936 4.23552 24.0279C4.13935 23.9622 4.05708 23.8781 3.99345 23.7806C3.92982 23.683 3.88607 23.5739 3.86471 23.4594C3.84335 23.3449 3.8448 23.2273 3.86898 23.1133C3.89315 22.9994 3.93958 22.8914 4.00559 22.7954C4.07161 22.6994 4.15592 22.6175 4.25368 22.5542C4.35145 22.4908 4.46075 22.4475 4.57531 22.4265C4.68988 22.4055 4.80746 22.4073 4.92132 22.4319L16.4945 24.8888C16.638 24.9192 16.7718 24.9848 16.8837 25.0798C16.9956 25.1748 17.0821 25.2961 17.1354 25.4328C17.1888 25.5695 17.2073 25.7174 17.1892 25.863C17.1712 26.0087 17.1172 26.1476 17.0321 26.2672C15.7128 28.1193 13.8082 29.4732 11.6253 30.1104C11.5446 30.134 11.461 30.1458 11.3769 30.1457Z" fill="#4D4D4D"/><path d="M188.077 38.869C187.994 38.869 187.911 38.8677 187.827 38.865C187.626 38.8589 187.428 38.8132 187.244 38.7305C187.06 38.6477 186.895 38.5297 186.756 38.3829C186.618 38.2362 186.511 38.0637 186.439 37.8753C186.368 37.6869 186.334 37.4863 186.34 37.285C186.346 37.0836 186.392 36.8854 186.475 36.7017C186.558 36.5179 186.676 36.3523 186.822 36.2142C186.969 36.0762 187.142 35.9683 187.33 35.8969C187.518 35.8255 187.719 35.7919 187.92 35.798C188.315 35.8086 188.71 35.7755 189.098 35.6994C188.464 35.0287 188.011 34.2081 187.781 33.3145C187.563 32.436 187.601 31.5132 187.891 30.6557C188.182 29.7982 188.711 29.0419 189.418 28.4763C190.193 27.8848 191.139 27.5599 192.114 27.55C193.089 27.5402 194.041 27.846 194.827 28.4217C195.247 28.7426 195.586 29.1569 195.817 29.6317C196.063 30.1865 196.173 30.7918 196.139 31.3978C196.106 32.5242 195.816 33.6281 195.291 34.6252C195.337 34.6132 195.382 34.6001 195.427 34.5863C195.66 34.5135 196.241 34.153 197.504 32.5426C197.816 32.1424 198.248 31.5968 199.079 31.6604C199.376 31.6827 199.66 31.7907 199.896 31.9713C200.133 32.152 200.311 32.3974 200.411 32.6778C200.511 32.9581 200.527 33.2614 200.457 33.5507C200.387 33.84 200.235 34.1028 200.019 34.3073C199.991 34.3436 199.957 34.3862 199.918 34.436C198.907 35.7249 197.691 37.0992 196.33 37.5187C195.077 37.9013 193.745 37.9405 192.471 37.6322C191.148 38.4401 189.628 38.868 188.077 38.869ZM192.203 30.6193C191.877 30.615 191.558 30.7155 191.293 30.906C191.056 31.106 190.881 31.3687 190.787 31.664C190.692 31.9592 190.683 32.2751 190.76 32.5753C190.953 33.2158 191.375 33.763 191.945 34.1127C192.631 33.3379 193.029 32.3501 193.072 31.3159C193.085 31.1926 193.076 31.068 193.046 30.9478C193.014 30.905 192.977 30.8673 192.934 30.8361C192.72 30.686 192.464 30.6099 192.203 30.6193Z" fill="#4D4D4D"/><path d="M187.922 29.1256C187.785 28.7426 187.501 28.4299 187.133 28.2562C186.765 28.0825 186.343 28.0621 185.96 28.1994C184.693 28.6566 183.381 28.9821 182.047 29.1707C181.569 26.6472 181.479 24.5708 181.81 23.3652C182.106 22.2852 182.666 22.267 182.849 22.2612C183.12 22.2535 183.388 22.3228 183.621 22.4609C183.854 22.5989 184.044 22.8003 184.167 23.0415C184.233 23.2319 184.336 23.4074 184.47 23.5581C184.603 23.7088 184.765 23.8317 184.947 23.9197C185.128 24.0078 185.325 24.0593 185.526 24.0713C185.727 24.0833 185.928 24.0555 186.119 23.9897C186.309 23.9238 186.485 23.821 186.635 23.6873C186.786 23.5536 186.909 23.3915 186.997 23.2103C187.085 23.0291 187.136 22.8323 187.148 22.6312C187.16 22.4301 187.133 22.2286 187.067 22.0382C186.485 20.3557 184.623 19.1316 182.75 19.1942C180.869 19.2553 179.411 20.5111 178.851 22.5529C178.326 24.4657 178.555 27.0725 178.96 29.3428C178.26 29.3242 177.562 29.2663 176.869 29.1693C176.469 29.119 176.065 29.2281 175.745 29.473C175.425 29.718 175.214 30.079 175.158 30.4781C175.102 30.8773 175.205 31.2825 175.445 31.6061C175.686 31.9298 176.043 32.146 176.442 32.2079C177.446 32.3493 178.459 32.4204 179.473 32.4207C179.513 32.4207 179.553 32.4185 179.593 32.4181C180.013 34.5557 180.477 37.5929 180.262 39.0938C180.105 40.1898 179.732 40.5827 179.576 40.6013C179.421 40.6198 179.091 40.4168 178.923 39.9978C178.849 39.8107 178.738 39.6402 178.597 39.4961C178.456 39.3519 178.288 39.2369 178.103 39.1575C177.918 39.0782 177.719 39.0361 177.518 39.0336C177.316 39.0312 177.116 39.0684 176.929 39.1433C176.742 39.2181 176.572 39.329 176.427 39.4698C176.283 39.6105 176.168 39.7782 176.089 39.9634C176.01 40.1486 175.967 40.3476 175.965 40.549C175.963 40.7505 176 40.9504 176.075 41.1375C176.338 41.8577 176.809 42.4833 177.429 42.9345C178.049 43.3857 178.789 43.6422 179.555 43.6712C179.684 43.6711 179.813 43.6635 179.941 43.6483C180.601 43.5693 182.795 43.0389 183.299 39.53C183.583 37.551 183.072 34.2632 182.673 32.1773C184.147 31.9566 185.595 31.5917 186.998 31.0878C187.381 30.9502 187.693 30.6662 187.866 30.2982C188.04 29.9302 188.06 29.5085 187.922 29.1256Z" fill="#4D4D4D"/><path d="M171.01 39.797C169.939 39.8147 168.891 39.4868 168.022 38.8621C166.67 39.6216 165.386 39.8206 164.205 39.4528C162.377 38.8839 161.356 37.1054 160.749 35.8176C160.658 35.6348 160.604 35.4356 160.591 35.2316C160.577 35.0277 160.605 34.8232 160.672 34.63C160.739 34.4369 160.844 34.2591 160.98 34.107C161.117 33.955 161.282 33.8317 161.467 33.7445C161.652 33.6572 161.852 33.6078 162.056 33.5991C162.261 33.5903 162.464 33.6225 162.656 33.6936C162.848 33.7647 163.023 33.8734 163.172 34.0133C163.321 34.1531 163.441 34.3213 163.524 34.508C164.082 35.6903 164.619 36.3687 165.119 36.5241C165.468 36.6332 165.947 36.5153 166.545 36.1748C166.592 36.1159 166.631 36.0505 166.66 35.9806C166.615 35.7059 166.574 35.4029 166.539 35.0686C166.35 33.2716 166.483 32.0056 166.933 31.3053C167.072 31.0895 167.263 30.9119 167.489 30.7889C167.714 30.666 167.967 30.6015 168.223 30.6014H168.226C168.483 30.6018 168.736 30.6669 168.961 30.7905C169.187 30.9141 169.378 31.0924 169.516 31.309C170.085 32.1999 170.135 34.5429 169.807 36.0883C169.836 36.2098 169.872 36.3294 169.916 36.4462C170.445 36.7998 171.332 36.8289 172.147 36.5051C172.777 36.2545 173.473 35.7332 173.54 35.0213C173.558 34.8207 173.616 34.6257 173.71 34.4474C173.804 34.2692 173.932 34.1112 174.087 33.9826C174.243 33.8539 174.421 33.757 174.614 33.6974C174.806 33.6379 175.009 33.6169 175.209 33.6355C175.41 33.6542 175.605 33.7122 175.783 33.8062C175.962 33.9002 176.12 34.0284 176.248 34.1835C176.377 34.3385 176.474 34.5174 176.533 34.7099C176.593 34.9024 176.614 35.1048 176.595 35.3054C176.433 37.0559 175.163 38.6081 173.281 39.3564C172.559 39.6454 171.788 39.7948 171.01 39.797Z" fill="#4D4D4D"/><path d="M170.738 27.2104C170.676 26.8053 170.525 26.4191 170.296 26.0794C170.067 25.7398 169.765 25.4551 169.412 25.246C169.098 25.0379 168.74 24.9033 168.367 24.8521C167.993 24.8009 167.613 24.8345 167.253 24.9502C166.848 25.0973 166.485 25.3409 166.196 25.66C165.906 25.9791 165.699 26.3641 165.592 26.7815C165.488 27.1548 165.48 27.5481 165.568 27.9255C165.656 28.3028 165.837 28.652 166.095 28.9412C166.589 29.4701 167.258 29.8015 167.978 29.8736C168.104 29.8889 168.231 29.8967 168.358 29.8968C168.668 29.8995 168.977 29.845 169.267 29.736C169.756 29.5351 170.165 29.1788 170.431 28.7223C170.697 28.2658 170.805 27.7345 170.738 27.2104Z" fill="#4D4D4D"/><path d="M145.339 39.4875C144.961 39.4873 144.596 39.3478 144.315 39.0956C144.034 38.8434 143.855 38.4962 143.814 38.1207C143.773 37.7451 143.871 37.3675 144.091 37.0602C144.311 36.7529 144.637 36.5376 145.005 36.4554C146.668 36.0788 148.169 35.1878 149.295 33.909C148.307 30.7001 147.724 26.4217 148.131 23.7425C148.47 21.513 149.503 14.7296 153.274 15.3011C154.257 15.4506 156 16.144 156.607 19.1099C156.995 21.0051 156.804 23.1907 156.577 24.6905C156.091 27.8867 154.04 32.6081 152.746 34.535C152.881 34.9182 153.08 35.2751 153.337 35.59C154.201 36.4227 157.498 36.4106 158.699 35.3328C159.002 35.061 159.401 34.9208 159.807 34.9429C160.213 34.9649 160.594 35.1475 160.866 35.4505C161.138 35.7534 161.278 36.1519 161.256 36.5582C161.234 36.9646 161.051 37.3456 160.748 37.6173C158.393 39.7297 153.31 39.8265 151.207 37.7992C150.957 37.5451 150.74 37.26 150.562 36.9509C149.175 38.1905 147.492 39.0514 145.675 39.4504C145.565 39.475 145.452 39.4875 145.339 39.4875ZM152.941 18.3776C152.58 18.7472 151.764 20.2667 151.166 24.2038C150.914 25.8652 151.14 28.169 151.551 30.2752C152.402 28.3978 153.274 26.0081 153.544 24.2304C153.812 22.7424 153.832 21.2201 153.602 19.7257C153.527 19.3685 153.325 18.5766 152.94 18.3776H152.941Z" fill="#4D4D4D"/><path d="M125.728 39.865C124.851 39.8391 123.988 39.6337 123.193 39.2615C121.149 38.3913 119.326 35.8547 119.813 33.1162C120.119 31.3912 121.723 29.6836 123.096 29.0292C125.765 27.7585 128.929 29.0325 130.455 31.9943C131.074 33.1948 131.097 34.7066 130.52 36.2523C130.099 37.38 129.206 38.857 128.072 39.3102C127.335 39.6488 126.538 39.8374 125.728 39.865ZM125.27 31.5996C124.974 31.6011 124.682 31.6695 124.416 31.7997C123.764 32.1104 122.936 33.0806 122.834 33.655C122.601 34.9671 123.71 36.1476 124.396 36.4397C125.615 36.9588 125.954 36.8526 126.852 36.4946C127.312 36.1086 128.222 34.3596 127.729 33.4025C127.305 32.5789 126.375 31.5996 125.27 31.5996Z" fill="#4D4D4D"/><path d="M123.066 25.0416C122.846 24.8415 122.587 24.6885 122.306 24.5919C122.024 24.4953 121.726 24.457 121.429 24.4795C121.05 24.5101 120.68 24.6157 120.342 24.7901C120.003 24.9645 119.703 25.2043 119.458 25.4956C119.173 25.8398 118.973 26.2467 118.875 26.6829C118.777 27.1192 118.783 27.5724 118.894 28.0056C118.975 28.3303 119.129 28.6319 119.345 28.887C119.565 29.1265 119.829 29.3202 120.123 29.4571C120.559 29.6937 121.038 29.8413 121.531 29.8911C121.596 29.8958 121.662 29.8983 121.726 29.8983C122.028 29.9041 122.329 29.8491 122.61 29.7366C122.891 29.6242 123.147 29.4565 123.363 29.2435C123.6 28.9934 123.78 28.6949 123.89 28.3687C124.091 27.794 124.12 27.1733 123.974 26.5824C123.827 25.9916 123.512 25.4561 123.066 25.0416Z" fill="#4D4D4D"/><path d="M129.398 25.5411C129.283 25.1409 128.814 23.8099 127.593 23.4552C127.062 23.2943 126.495 23.2982 125.966 23.4663C125.438 23.6345 124.972 23.959 124.632 24.397C124.422 24.6535 124.268 24.9508 124.179 25.2701C124.112 25.5378 124.09 25.8147 124.114 26.0896C124.134 26.5192 124.24 26.9403 124.426 27.3279C124.613 27.7154 124.875 28.0614 125.199 28.345C125.65 28.7149 126.216 28.9169 126.799 28.9165C127.227 28.919 127.648 28.804 128.015 28.584C128.599 28.1828 129.044 27.6111 129.291 26.9471C129.383 26.7556 129.445 26.5512 129.476 26.341C129.505 26.0718 129.479 25.7995 129.398 25.5411Z" fill="#4D4D4D"/><path d="M133.564 27.6832C133.246 27.2713 132.826 26.9501 132.345 26.7516C131.864 26.5531 131.339 26.4842 130.823 26.5519C130.48 26.6058 130.152 26.7321 129.861 26.9223C129.57 27.1126 129.323 27.3625 129.136 27.6556C128.808 28.1817 128.658 28.7998 128.71 29.4177C128.734 29.8622 128.879 30.2917 129.131 30.6589C129.392 31.003 129.728 31.2827 130.113 31.4767C130.425 31.6622 130.765 31.7973 131.119 31.8768C131.273 31.9075 131.431 31.923 131.588 31.923C132.096 31.9194 132.592 31.7662 133.013 31.4826C133.434 31.1989 133.762 30.7974 133.956 30.3282C134.132 29.8923 134.188 29.4174 134.119 28.9525C134.05 28.4876 133.859 28.0495 133.564 27.6832Z" fill="#4D4D4D"/><path d="M119.664 33.8627C119.25 31.5524 117.564 29.9663 115.153 29.6196C113.852 29.4323 112.332 29.7728 110.962 30.3563C110.986 27.4975 111.25 24.6458 111.751 21.8312C111.827 21.4346 111.743 21.0242 111.518 20.689C111.293 20.3539 110.945 20.1209 110.549 20.0406C110.153 19.9604 109.742 20.0393 109.404 20.2603C109.066 20.4812 108.829 20.8265 108.744 21.2211C108.206 23.8738 107.852 28.1074 107.877 32.3399C107.098 33.1137 106.697 33.9184 106.685 34.7379C106.679 35.1141 106.812 35.4792 107.058 35.7638C107.304 36.0484 107.646 36.2327 108.019 36.2814C108.098 37.419 108.212 38.5161 108.364 39.5416C108.1 39.6487 107.87 39.8273 107.702 40.0574C107.534 40.2875 107.433 40.56 107.411 40.8442C107.389 41.1284 107.446 41.4132 107.577 41.6665C107.708 41.9198 107.907 42.1317 108.151 42.2783C108.367 42.4332 108.629 42.5114 108.895 42.5005C108.921 42.5005 108.949 42.5005 108.978 42.5005C109.063 42.7985 109.152 43.0866 109.248 43.3551C109.314 43.5475 109.418 43.725 109.553 43.8771C109.688 44.0292 109.852 44.1529 110.035 44.2411C110.219 44.3292 110.418 44.3801 110.621 44.3906C110.824 44.4011 111.027 44.3711 111.219 44.3024C111.41 44.2337 111.586 44.1276 111.736 43.9902C111.886 43.8529 112.007 43.6871 112.093 43.5025C112.178 43.3178 112.226 43.118 112.234 42.9148C112.241 42.7115 112.208 42.5087 112.136 42.3183C112.098 42.2117 112.062 42.0978 112.025 41.9833L112.039 41.9803C115.149 41.3372 115.951 40.9014 116.215 40.7581C117.434 40.1081 118.42 39.0953 119.038 37.86C119.656 36.6247 119.875 35.2278 119.664 33.8627ZM114.751 38.0603C114.252 38.331 112.761 38.6933 111.39 38.9788C111.16 37.262 111.023 35.5339 110.98 33.8023C112.077 33.129 113.652 32.5033 114.717 32.6572C116.086 32.854 116.52 33.7157 116.645 34.4033C116.741 35.1334 116.61 35.8752 116.272 36.529C115.933 37.1828 115.402 37.7172 114.751 38.0603Z" fill="#4D4D4D"/><path d="M101.409 39.2015C100.242 39.2326 99.0923 38.9082 98.1133 38.2713C97.309 38.9774 96.0903 39.2735 94.6978 39.0716C92.9062 38.8134 90.5649 37.6275 89.8629 35.1371C89.7575 34.747 89.8102 34.3311 90.0095 33.9796C90.2089 33.6282 90.5389 33.3696 90.9278 33.2599C91.3167 33.1503 91.7331 33.1985 92.0867 33.394C92.4403 33.5896 92.7025 33.9167 92.8163 34.3044C93.1074 35.3309 94.2063 35.7773 94.537 35.8893C95.0249 36.0959 95.5699 36.1241 96.0765 35.969C96.3008 35.5333 96.462 35.0678 96.5552 34.5867C96.5494 34.5376 96.544 34.4874 96.5389 34.4368C96.3493 32.6492 96.4832 31.3887 96.9365 30.6899C97.0758 30.4755 97.2665 30.2993 97.4912 30.1774C97.7159 30.0554 97.9675 29.9915 98.2231 29.9915H98.2257C98.4818 29.9918 98.7338 30.0563 98.9587 30.179C99.1835 30.3018 99.374 30.4789 99.5127 30.6943C99.9998 31.4498 99.9562 33.0999 99.6582 34.6594C99.7048 35.043 99.7901 35.4208 99.9129 35.7871C100.649 36.26 102.379 36.284 103.434 35.6347C103.985 35.2953 103.922 35.0483 103.88 34.8846C103.784 34.492 103.848 34.0777 104.056 33.7314C104.264 33.3852 104.6 33.135 104.992 33.0352C105.383 32.9354 105.798 32.994 106.147 33.1983C106.495 33.4026 106.749 33.7361 106.853 34.1265C107.268 35.7537 106.591 37.2942 105.042 38.2477C103.938 38.8846 102.684 39.214 101.409 39.2015Z" fill="#4D4D4D"/><path d="M100.559 26.7499C100.499 26.3628 100.354 25.9937 100.136 25.6685C99.9173 25.3433 99.6303 25.07 99.2948 24.8677C98.9989 24.6729 98.6627 24.5474 98.3115 24.5006C97.9603 24.4538 97.6031 24.4869 97.2664 24.5974C96.8848 24.739 96.5432 24.971 96.2708 25.2734C95.9984 25.5759 95.8033 25.9398 95.7022 26.3341C95.6025 26.6907 95.5933 27.0666 95.6755 27.4277C95.7577 27.7888 95.9287 28.1237 96.1729 28.4021C96.6354 28.9067 97.2669 29.2241 97.9478 29.2941C98.0664 29.3085 98.1858 29.3157 98.3053 29.3159C98.6006 29.3188 98.8939 29.2661 99.1697 29.1606C99.6325 28.9654 100.019 28.6241 100.27 28.1888C100.52 27.7536 100.622 27.2482 100.559 26.7499Z" fill="#4D4D4D"/><path d="M89.8068 36.2516C88.3965 35.5586 87.4263 34.0431 86.6631 32.652C86.4067 32.1558 86.2066 31.6325 86.0665 31.0918C85.8059 29.928 85.2187 28.8626 84.3739 28.0208C82.264 25.9899 80.3996 25.0153 77.1013 26.0437C76.7476 26.154 76.4522 26.4003 76.2801 26.7284C76.108 27.0565 76.0733 27.4396 76.1836 27.7933C76.294 28.147 76.5403 28.4423 76.8684 28.6144C77.1965 28.7865 77.5795 28.8212 77.9332 28.7109C79.138 28.3355 79.934 28.3038 80.7932 28.7509C79.8976 28.9432 79.0427 29.2917 78.2679 29.7804C77.5824 30.1846 76.9976 30.7392 76.5578 31.4024C76.1179 32.0656 75.8344 32.82 75.7287 33.6088C75.433 36.2701 76.6058 37.8166 77.6411 38.6449C78.5533 39.3735 79.6907 39.7616 80.858 39.7427C83.1232 39.7427 85.3972 38.4739 86.6471 37.3826C87.2134 37.9399 87.8641 38.4045 88.5751 38.7591C88.9076 38.9225 89.2914 38.9471 89.6421 38.8275C89.9927 38.7079 90.2815 38.4539 90.4449 38.1214C90.6083 37.7889 90.6329 37.4051 90.5133 37.0544C90.3937 36.7038 90.1397 36.415 89.8072 36.2516H89.8068ZM79.3876 36.4637C78.9289 36.0963 78.3381 35.4331 78.5065 33.9172C78.5719 33.5443 78.7196 33.1906 78.9389 32.8819C79.1582 32.5733 79.4436 32.3174 79.7743 32.1329C80.8743 31.4287 82.2843 31.2359 82.9639 31.4614C83.066 31.4952 83.1717 31.5169 83.2789 31.5262C83.3153 31.6411 83.3517 31.7597 83.388 31.887C83.5823 32.6193 83.8591 33.3271 84.2131 33.9969C84.4292 34.3912 84.662 34.7943 84.9144 35.1945C83.9137 36.1501 81.0035 37.7569 79.3869 36.4637H79.3876Z" fill="#4D4D4D"/></g><defs><clipPath id="clip0_96_378"><rect width="200" height="59.6381" fill="white" transform="translate(0.5)"/></clipPath></defs></svg>